<?xml version="1.0" encoding="utf-8"?>
<!-- Generator: Adobe Illustrator 14.0.0, SVG Export Plug-In . SVG Version: 6.00 Build 43363)  -->
<!DOCTYPE svg PUBLIC "-//W3C//DTD SVG 1.1//EN" "http://www.w3.org/Graphics/SVG/1.1/DTD/svg11.dtd">
<svg version="1.1" id="图层_1" xmlns="http://www.w3.org/2000/svg" xmlns:xlink="http://www.w3.org/1999/xlink" x="0px" y="0px"
	 width="43.408px" height="68.75px" viewBox="0 0 43.408 68.75" enable-background="new 0 0 43.408 68.75" xml:space="preserve">
<g>
	<path d="M28.613,0c4.166,0,7.674,1.742,10.522,5.225c2.848,3.483,4.272,8.984,4.272,16.504c0,6.445-1.059,13.021-3.174,19.727
		c-2.116,6.706-5.095,12.517-8.936,17.432c-3.061,3.874-6.267,6.674-9.619,8.398c-1.953,0.977-4.216,1.465-6.787,1.465
		c-4.232,0-7.772-1.741-10.62-5.225C1.424,60.043,0,54.525,0,46.973c0-7.454,1.432-14.941,4.297-22.461
		C7.649,15.723,11.93,9.05,17.139,4.492C20.557,1.498,24.381,0,28.613,0z M28.662,2.539c-1.889,0-3.801,0.74-5.737,2.222
		c-1.938,1.481-3.939,4.565-6.006,9.253c-2.067,4.688-4.045,10.727-5.933,18.115c-2.441,9.668-3.662,17.904-3.662,24.707
		c0,3.386,0.732,5.917,2.197,7.593c1.465,1.677,3.239,2.515,5.322,2.515c1.985,0,3.678-0.65,5.078-1.953
		c3.743-3.516,6.949-9.521,9.619-18.018c4.329-13.899,6.494-25.195,6.494-33.887c0-3.613-0.732-6.274-2.197-7.983
		S30.647,2.539,28.662,2.539z"/>
</g>
</svg>
