<?xml version="1.0" encoding="utf-8"?>
<!-- Generator: Adobe Illustrator 14.0.0, SVG Export Plug-In . SVG Version: 6.00 Build 43363)  -->
<!DOCTYPE svg PUBLIC "-//W3C//DTD SVG 1.1//EN" "http://www.w3.org/Graphics/SVG/1.1/DTD/svg11.dtd">
<svg version="1.1" id="图层_1" xmlns="http://www.w3.org/2000/svg" xmlns:xlink="http://www.w3.org/1999/xlink" x="0px" y="0px"
	 width="35.645px" height="67.578px" viewBox="0 0 35.645 67.578" enable-background="new 0 0 35.645 67.578" xml:space="preserve">
<g>
	<path d="M35.645,0L19.922,54.736c-0.912,3.223-1.367,5.551-1.367,6.982c0,1.205,0.415,2.124,1.245,2.759s2.774,1.066,5.835,1.294
		l-0.488,1.807H0l0.684-1.807c2.669-0.064,4.427-0.276,5.273-0.635c1.367-0.586,2.393-1.367,3.076-2.344
		c1.074-1.497,2.165-4.183,3.271-8.057L23.633,15.43c0.684-2.376,1.058-3.743,1.123-4.102c0.098-0.65,0.146-1.285,0.146-1.904
		c0-1.139-0.31-2.034-0.928-2.686c-0.619-0.65-1.465-0.977-2.539-0.977c-0.847,0-2.165,0.195-3.955,0.586L16.846,4.59L33.301,0
		H35.645z"/>
</g>
</svg>
