<?xml version="1.0" encoding="utf-8"?>
<!-- Generator: Adobe Illustrator 14.0.0, SVG Export Plug-In . SVG Version: 6.00 Build 43363)  -->
<!DOCTYPE svg PUBLIC "-//W3C//DTD SVG 1.1//EN" "http://www.w3.org/Graphics/SVG/1.1/DTD/svg11.dtd">
<svg version="1.1" id="图层_1" xmlns="http://www.w3.org/2000/svg" xmlns:xlink="http://www.w3.org/1999/xlink" x="0px" y="0px"
	 width="45.313px" height="67.578px" viewBox="0 0 45.313 67.578" enable-background="new 0 0 45.313 67.578" xml:space="preserve">
<g>
	<path d="M32.959,67.578H0v-1.807c16.797-14.713,27.896-26.253,33.301-34.619c2.506-3.873,3.76-7.942,3.76-12.207
		c0-3.385-1.042-6.145-3.125-8.276c-2.084-2.132-4.785-3.198-8.105-3.198c-4.59,0-8.366,2.197-11.328,6.592l-1.709-0.781
		c1.66-4.199,4.085-7.463,7.275-9.79C23.258,1.164,26.709,0,30.42,0c4.199,0,7.73,1.44,10.596,4.321
		c2.864,2.881,4.297,6.372,4.297,10.474c0,2.865-0.505,5.518-1.514,7.959c-1.563,3.809-4.443,8.073-8.643,12.793
		c-6.381,7.227-14.893,15.544-25.537,24.951h16.602c2.669,0,4.866-0.553,6.592-1.66c1.725-1.106,2.962-2.588,3.711-4.443h1.953
		L32.959,67.578z"/>
</g>
</svg>
