<?xml version="1.0" encoding="utf-8"?>
<!-- Generator: Adobe Illustrator 14.0.0, SVG Export Plug-In . SVG Version: 6.00 Build 43363)  -->
<!DOCTYPE svg PUBLIC "-//W3C//DTD SVG 1.1//EN" "http://www.w3.org/Graphics/SVG/1.1/DTD/svg11.dtd">
<svg version="1.1" id="图层_1" xmlns="http://www.w3.org/2000/svg" xmlns:xlink="http://www.w3.org/1999/xlink" x="0px" y="0px"
	 width="42.041px" height="68.75px" viewBox="0 0 42.041 68.75" enable-background="new 0 0 42.041 68.75" xml:space="preserve">
<g>
	<path d="M11.963,31.396V29.98c7.877-1.204,13.753-3.548,17.627-7.031c2.799-2.474,4.199-5.42,4.199-8.838
		c0-2.571-0.814-4.695-2.441-6.372c-1.628-1.677-3.598-2.515-5.908-2.515c-3.646,0-6.885,2.263-9.717,6.787l-1.807-0.537
		c1.692-3.775,3.865-6.633,6.519-8.569C23.087,0.969,25.992,0,29.15,0c3.841,0,6.949,1.147,9.326,3.442
		c2.376,2.295,3.564,5.2,3.564,8.716c0,2.995-1.115,5.876-3.345,8.643c-2.23,2.768-6.063,5.241-11.499,7.422
		c3.385,1.4,5.94,3.41,7.666,6.03c1.725,2.62,2.588,5.771,2.588,9.448c0,4.069-1.172,8.146-3.516,12.231
		c-2.344,4.086-5.559,7.243-9.644,9.473c-4.085,2.229-8.374,3.345-12.866,3.345c-4.102,0-7.21-0.717-9.326-2.148
		C0.7,65.625,0,64.486,0,63.184c0-1.139,0.415-2.115,1.245-2.93c0.83-0.813,1.847-1.221,3.052-1.221
		c0.846,0,1.692,0.131,2.539,0.391c0.521,0.163,1.798,0.814,3.833,1.953c2.034,1.14,3.621,1.896,4.761,2.271
		c1.139,0.375,2.311,0.562,3.516,0.562c2.93,0,5.347-1.7,7.251-5.103c1.904-3.401,2.856-7.022,2.856-10.864
		c0-3.125-0.644-5.908-1.929-8.35c-1.286-2.441-3.313-4.419-6.079-5.933C18.278,32.446,15.25,31.592,11.963,31.396z"/>
</g>
</svg>
