<?xml version="1.0" encoding="utf-8"?>
<!-- Generator: Adobe Illustrator 14.0.0, SVG Export Plug-In . SVG Version: 6.00 Build 43363)  -->
<!DOCTYPE svg PUBLIC "-//W3C//DTD SVG 1.1//EN" "http://www.w3.org/Graphics/SVG/1.1/DTD/svg11.dtd">
<svg version="1.1" id="图层_1" xmlns="http://www.w3.org/2000/svg" xmlns:xlink="http://www.w3.org/1999/xlink" x="0px" y="0px"
	 width="44.336px" height="67.383px" viewBox="0 0 44.336 67.383" enable-background="new 0 0 44.336 67.383" xml:space="preserve">
<g>
	<path d="M22.217,0h22.119L42.09,8.057H22.217l-3.662,8.154c5.273,0.847,9.375,2.49,12.305,4.932
		c4.524,3.809,6.787,9.131,6.787,15.967c0,4.525-0.839,8.618-2.515,12.28c-1.677,3.662-3.728,6.73-6.152,9.204
		c-2.426,2.475-5.021,4.428-7.788,5.859c-3.776,1.953-7.585,2.93-11.426,2.93c-3.288,0-5.892-0.717-7.813-2.148
		C0.651,64.258,0,63.021,0,61.523c0-1.172,0.423-2.173,1.27-3.003c0.846-0.83,1.888-1.245,3.125-1.245
		c1.725,0,3.646,0.863,5.762,2.588c1.302,1.074,2.376,1.791,3.223,2.148c0.684,0.293,1.497,0.439,2.441,0.439
		c3.678,0,7.063-1.831,10.156-5.493c3.092-3.662,4.639-8.423,4.639-14.282c0-4.068-0.822-7.535-2.466-10.4
		c-1.645-2.864-3.735-4.883-6.274-6.055s-5.925-1.985-10.156-2.441L22.217,0z"/>
</g>
</svg>
