<?xml version="1.0" encoding="utf-8"?>
<!-- Generator: Adobe Illustrator 14.0.0, SVG Export Plug-In . SVG Version: 6.00 Build 43363)  -->
<!DOCTYPE svg PUBLIC "-//W3C//DTD SVG 1.1//EN" "http://www.w3.org/Graphics/SVG/1.1/DTD/svg11.dtd">
<svg version="1.1" id="图层_1" xmlns="http://www.w3.org/2000/svg" xmlns:xlink="http://www.w3.org/1999/xlink" x="0px" y="0px"
	 width="46.24px" height="68.75px" viewBox="0 0 46.24 68.75" enable-background="new 0 0 46.24 68.75" xml:space="preserve">
<g>
	<path d="M46.24,0v1.904c-5.566,1.303-10.971,4.045-16.211,8.228c-5.241,4.183-9.831,9.546-13.77,16.089
		c3.516-1.497,6.38-2.246,8.594-2.246c4.134,0,7.657,1.498,10.571,4.492c2.913,2.995,4.37,7.031,4.37,12.109
		c0,7.78-2.507,14.421-7.52,19.922C27.262,66,21.858,68.75,16.064,68.75c-5.273,0-9.27-1.944-11.987-5.835
		C1.359,59.025,0,54.525,0,49.414c0-6.673,1.546-13.257,4.639-19.751c3.092-6.494,7.283-12.068,12.573-16.724
		c5.289-4.654,10.782-8.089,16.479-10.303C37.076,1.335,41.26,0.456,46.24,0z M13.916,30.322c-4.655,9.929-6.982,18.262-6.982,25
		c0,3.483,0.879,6.226,2.637,8.228s3.776,3.003,6.055,3.003c3.743,0,7.234-2.726,10.474-8.179c3.238-5.452,4.858-11.775,4.858-18.97
		c0-3.841-0.944-6.803-2.832-8.887c-1.889-2.083-4.167-3.125-6.836-3.125c-1.14,0-2.222,0.188-3.247,0.562
		S15.641,29.118,13.916,30.322z"/>
</g>
</svg>
