<?xml version="1.0" encoding="utf-8"?>
<!-- Generator: Adobe Illustrator 14.0.0, SVG Export Plug-In . SVG Version: 6.00 Build 43363)  -->
<!DOCTYPE svg PUBLIC "-//W3C//DTD SVG 1.1//EN" "http://www.w3.org/Graphics/SVG/1.1/DTD/svg11.dtd">
<svg version="1.1" id="图层_1" xmlns="http://www.w3.org/2000/svg" xmlns:xlink="http://www.w3.org/1999/xlink" x="0px" y="0px"
	 width="45.068px" height="68.75px" viewBox="0 0 45.068 68.75" enable-background="new 0 0 45.068 68.75" xml:space="preserve">
<g>
	<path d="M29.931,30.518c3.125,3.386,5.411,6.56,6.86,9.521c1.448,2.963,2.173,5.925,2.173,8.887c0,5.307-2.019,9.937-6.055,13.892
		c-4.037,3.955-9.018,5.933-14.941,5.933c-5.306,0-9.627-1.611-12.964-4.834C1.667,60.693,0,56.934,0,52.637
		c0-3.678,1.359-7.291,4.077-10.84c2.718-3.548,7.853-6.966,15.405-10.254c-2.897-3.548-4.858-6.478-5.884-8.789
		c-1.025-2.311-1.538-4.605-1.538-6.885c0-4.329,1.619-8.057,4.858-11.182C20.157,1.563,24.234,0,29.15,0
		c4.688,0,8.512,1.352,11.475,4.053c2.962,2.702,4.443,5.859,4.443,9.473c0,3.581-1.196,6.836-3.589,9.766
		S35.237,28.63,29.931,30.518z M21.289,33.545c-4.851,2.019-8.521,4.939-11.011,8.765s-3.735,7.935-3.735,12.329
		c0,3.549,1.099,6.405,3.296,8.569c2.197,2.165,5.086,3.247,8.667,3.247c3.711,0,6.836-1.302,9.375-3.906
		c2.539-2.604,3.809-5.713,3.809-9.326c0-2.734-0.741-5.607-2.222-8.618C27.986,41.594,25.259,37.907,21.289,33.545z M28.027,28.467
		c3.516-1.204,6.241-3.174,8.179-5.908c1.937-2.734,2.905-5.875,2.905-9.424c0-3.32-0.937-5.933-2.808-7.837
		c-1.872-1.904-4.321-2.856-7.349-2.856c-2.897,0-5.241,0.912-7.031,2.734c-1.791,1.823-2.686,4.184-2.686,7.08
		c0,2.182,0.472,4.199,1.416,6.055C22.021,21.045,24.478,24.431,28.027,28.467z"/>
</g>
</svg>
