<?xml version="1.0" encoding="utf-8"?>
<!-- Generator: Adobe Illustrator 14.0.0, SVG Export Plug-In . SVG Version: 6.00 Build 43363)  -->
<!DOCTYPE svg PUBLIC "-//W3C//DTD SVG 1.1//EN" "http://www.w3.org/Graphics/SVG/1.1/DTD/svg11.dtd">
<svg version="1.1" id="图层_1" xmlns="http://www.w3.org/2000/svg" xmlns:xlink="http://www.w3.org/1999/xlink" x="0px" y="0px"
	 width="46.191px" height="68.75px" viewBox="0 0 46.191 68.75" enable-background="new 0 0 46.191 68.75" xml:space="preserve">
<g>
	<path d="M0,68.75v-1.563c3.353-0.716,6.266-1.758,8.74-3.125c4.395-2.408,8.341-5.387,11.841-8.936
		c3.499-3.548,6.616-7.666,9.351-12.354c-1.986,0.977-3.532,1.611-4.639,1.904c-1.107,0.293-2.344,0.439-3.711,0.439
		c-4.916,0-8.675-1.676-11.279-5.029c-2.604-3.353-3.906-7.259-3.906-11.719c0-7.779,2.531-14.453,7.593-20.02
		C19.05,2.783,24.429,0,30.126,0c5.176,0,9.146,1.945,11.914,5.835c2.767,3.89,4.15,8.439,4.15,13.647
		c0,6.608-1.53,13.135-4.59,19.58c-3.061,6.445-7.211,11.996-12.451,16.65c-5.241,4.655-10.742,8.105-16.504,10.352
		C9.228,67.399,5.012,68.294,0,68.75z M32.373,38.721c4.59-9.31,6.885-17.627,6.885-24.951c0-3.548-0.871-6.299-2.612-8.252
		c-1.742-1.953-3.769-2.93-6.079-2.93c-3.842,0-7.349,2.686-10.522,8.057s-4.761,11.752-4.761,19.141c0,3.906,0.903,6.86,2.71,8.862
		s4.077,3.003,6.812,3.003c1.236,0,2.376-0.188,3.418-0.562C29.263,40.715,30.647,39.926,32.373,38.721z"/>
</g>
</svg>
