<?xml version="1.0" encoding="utf-8"?>
<!-- Generator: Adobe Illustrator 14.0.0, SVG Export Plug-In . SVG Version: 6.00 Build 43363)  -->
<!DOCTYPE svg PUBLIC "-//W3C//DTD SVG 1.1//EN" "http://www.w3.org/Graphics/SVG/1.1/DTD/svg11.dtd">
<svg version="1.1" id="图层_1" xmlns="http://www.w3.org/2000/svg" xmlns:xlink="http://www.w3.org/1999/xlink" x="0px" y="0px"
	 width="59.57px" height="67.725px" viewBox="0 0 59.57 67.725" enable-background="new 0 0 59.57 67.725" xml:space="preserve">
<g>
	<path d="M56.396,0l-5.029,55.078c-0.261,2.572-0.391,4.265-0.391,5.078c0,1.303,0.244,2.295,0.732,2.979
		c0.618,0.944,1.456,1.645,2.515,2.1c1.058,0.456,2.84,0.684,5.347,0.684l-0.537,1.807H32.958l0.537-1.807h1.123
		c2.115,0,3.841-0.455,5.176-1.367c0.943-0.618,1.676-1.644,2.197-3.076c0.357-1.009,0.699-3.385,1.025-7.129l0.781-8.398H24.853
		l-6.738,9.131c-1.53,2.051-2.49,3.524-2.881,4.419c-0.391,0.896-0.586,1.733-0.586,2.515c0,1.042,0.423,1.938,1.27,2.686
		c0.846,0.749,2.246,1.156,4.199,1.221l-0.537,1.807H0l0.537-1.807c2.409-0.098,4.533-0.903,6.372-2.417
		c1.839-1.514,4.582-4.744,8.228-9.692L54.687,0H56.396z M46.728,16.26L27.539,42.383h16.65L46.728,16.26z"/>
</g>
</svg>
