<?xml version="1.0" encoding="utf-8"?>
<!-- Generator: Adobe Illustrator 14.0.0, SVG Export Plug-In . SVG Version: 6.00 Build 43363)  -->
<!DOCTYPE svg PUBLIC "-//W3C//DTD SVG 1.1//EN" "http://www.w3.org/Graphics/SVG/1.1/DTD/svg11.dtd">
<svg version="1.1" id="图层_1" xmlns="http://www.w3.org/2000/svg" xmlns:xlink="http://www.w3.org/1999/xlink" x="0px" y="0px"
	 width="61.328px" height="66.211px" viewBox="0 0 61.328 66.211" enable-background="new 0 0 61.328 66.211" xml:space="preserve">
<g>
	<path d="M17.09,1.807L17.773,0h23.633c3.971,0,7.511,0.619,10.62,1.855c3.108,1.237,5.436,2.963,6.982,5.176
		c1.546,2.214,2.319,4.558,2.319,7.031c0,3.809-1.376,7.251-4.126,10.327c-2.751,3.076-7.235,5.347-13.452,6.812
		c4.004,1.498,6.949,3.483,8.838,5.957c1.888,2.475,2.832,5.192,2.832,8.154c0,3.288-0.847,6.43-2.539,9.424
		c-1.693,2.995-3.866,5.322-6.519,6.982c-2.653,1.66-5.852,2.881-9.595,3.662c-2.67,0.554-6.836,0.83-12.5,0.83H0l0.635-1.807
		c2.539-0.064,4.264-0.309,5.176-0.732c1.302-0.553,2.229-1.285,2.783-2.197c0.781-1.236,1.823-4.068,3.125-8.496l11.865-40.088
		c1.009-3.385,1.514-5.762,1.514-7.129c0-1.204-0.448-2.156-1.343-2.856c-0.896-0.7-2.596-1.05-5.103-1.05
		C18.099,1.855,17.578,1.84,17.09,1.807z M17.383,61.914c3.516,0.456,6.266,0.684,8.252,0.684c5.078,0,9.578-1.529,13.501-4.59
		c3.922-3.06,5.884-7.21,5.884-12.451c0-4.004-1.213-7.129-3.638-9.375c-2.426-2.246-6.34-3.369-11.743-3.369
		c-1.042,0-2.312,0.049-3.809,0.146L17.383,61.914z M27.002,29.297c2.115,0.065,3.646,0.098,4.59,0.098
		c6.771,0,11.808-1.473,15.112-4.419c3.304-2.946,4.956-6.632,4.956-11.06c0-3.353-1.01-5.965-3.027-7.837
		c-2.019-1.872-5.241-2.808-9.668-2.808c-1.172,0-2.67,0.195-4.492,0.586L27.002,29.297z"/>
</g>
</svg>
