<?xml version="1.0" encoding="utf-8"?>
<!-- Generator: Adobe Illustrator 14.0.0, SVG Export Plug-In . SVG Version: 6.00 Build 43363)  -->
<!DOCTYPE svg PUBLIC "-//W3C//DTD SVG 1.1//EN" "http://www.w3.org/Graphics/SVG/1.1/DTD/svg11.dtd">
<svg version="1.1" id="图层_1" xmlns="http://www.w3.org/2000/svg" xmlns:xlink="http://www.w3.org/1999/xlink" x="0px" y="0px"
	 width="63.623px" height="69.238px" viewBox="0 0 63.623 69.238" enable-background="new 0 0 63.623 69.238" xml:space="preserve">
<g>
	<path d="M63.623,0l-4.932,21.436h-1.758l-0.195-5.371c-0.163-1.953-0.537-3.694-1.123-5.225c-0.586-1.529-1.465-2.856-2.637-3.979
		s-2.653-2.002-4.443-2.637c-1.791-0.635-3.776-0.952-5.957-0.952c-5.827,0-10.922,1.596-15.283,4.785
		c-5.566,4.069-9.929,9.814-13.086,17.236c-2.604,6.12-3.906,12.321-3.906,18.604c0,6.413,1.872,11.532,5.615,15.356
		c3.743,3.825,8.609,5.737,14.6,5.737c4.524,0,8.553-1.009,12.085-3.027c3.531-2.018,6.812-5.127,9.839-9.326h2.295
		c-3.581,5.697-7.553,9.888-11.914,12.573c-4.362,2.686-9.587,4.028-15.674,4.028c-5.404,0-10.189-1.132-14.355-3.394
		c-4.167-2.262-7.341-5.444-9.521-9.546C1.09,52.197,0,47.787,0,43.066c0-7.227,1.937-14.258,5.811-21.094
		c3.874-6.836,9.188-12.207,15.942-16.113C28.507,1.953,35.318,0,42.188,0c3.223,0,6.836,0.766,10.84,2.295
		c1.758,0.651,3.027,0.977,3.809,0.977s1.465-0.162,2.051-0.488C59.473,2.458,60.449,1.53,61.816,0H63.623z"/>
</g>
</svg>
