<?xml version="1.0" encoding="utf-8"?>
<!-- Generator: Adobe Illustrator 14.0.0, SVG Export Plug-In . SVG Version: 6.00 Build 43363)  -->
<!DOCTYPE svg PUBLIC "-//W3C//DTD SVG 1.1//EN" "http://www.w3.org/Graphics/SVG/1.1/DTD/svg11.dtd">
<svg version="1.1" id="图层_1" xmlns="http://www.w3.org/2000/svg" xmlns:xlink="http://www.w3.org/1999/xlink" x="0px" y="0px"
	 width="80.762px" height="66.211px" viewBox="0 0 80.762 66.211" enable-background="new 0 0 80.762 66.211" xml:space="preserve">
<path d="M58.35,0h22.412l-0.537,1.807c-3.158,0.456-5.917,1.408-8.276,2.856c-2.36,1.449-5.575,4.338-9.644,8.667L45.117,30.908
	l4.834,17.725c0.455,1.693,1.302,4.313,2.539,7.861c0.781,2.279,1.563,3.891,2.344,4.834c0.781,0.944,1.766,1.669,2.954,2.173
	c1.188,0.505,2.986,0.806,5.396,0.903l-0.537,1.807H36.67l0.537-1.807c2.669-0.098,4.59-0.602,5.762-1.514
	c0.879-0.65,1.318-1.497,1.318-2.539c0-0.911-0.424-2.913-1.27-6.006l-4.639-16.65L22.852,53.369
	c-3.027,3.093-4.834,5.127-5.42,6.104c-0.358,0.586-0.537,1.156-0.537,1.709c0,0.977,0.488,1.774,1.465,2.393
	c0.455,0.261,1.839,0.537,4.15,0.83l-0.488,1.807H0l0.537-1.807c2.768-0.26,5.029-0.895,6.787-1.904
	c2.571-1.529,6.119-4.573,10.645-9.131l19.238-19.336l-5.273-19.092c-1.596-5.859-2.987-9.464-4.175-10.815
	c-1.188-1.351-3.264-2.124-6.226-2.319L22.021,0h23.682l-0.586,1.807c-2.182,0-3.654,0.139-4.419,0.415
	c-0.766,0.277-1.352,0.7-1.758,1.27c-0.407,0.57-0.61,1.213-0.61,1.929c0,0.781,0.391,2.604,1.172,5.469l4.492,16.309l10.4-10.352
	c4.102-4.102,6.917-7.405,8.447-9.912c0.553-0.879,0.83-1.66,0.83-2.344c0-0.749-0.31-1.334-0.928-1.758
	c-0.879-0.586-2.523-0.928-4.932-1.025L58.35,0z"/>
</svg>
