<?xml version="1.0" encoding="utf-8"?>
<!-- Generator: Adobe Illustrator 14.0.0, SVG Export Plug-In . SVG Version: 6.00 Build 43363)  -->
<!DOCTYPE svg PUBLIC "-//W3C//DTD SVG 1.1//EN" "http://www.w3.org/Graphics/SVG/1.1/DTD/svg11.dtd">
<svg version="1.1" id="图层_1" xmlns="http://www.w3.org/2000/svg" xmlns:xlink="http://www.w3.org/1999/xlink" x="0px" y="0px"
	 width="73.438px" height="66.211px" viewBox="0 0 73.438 66.211" enable-background="new 0 0 73.438 66.211" xml:space="preserve">
<g>
	<path d="M17.627,1.807L18.213,0h21.143c8.951,0,15.584,1.025,19.897,3.076c4.313,2.051,7.755,5.281,10.327,9.692
		c2.571,4.411,3.857,9.14,3.857,14.185c0,4.33-0.741,8.537-2.222,12.622c-1.481,4.085-3.158,7.356-5.029,9.814
		c-1.872,2.458-4.745,5.168-8.618,8.13c-3.874,2.963-8.073,5.151-12.598,6.567c-4.525,1.416-10.173,2.124-16.943,2.124H0
		l0.635-1.807c2.571-0.064,4.297-0.293,5.176-0.684c1.302-0.553,2.262-1.302,2.881-2.246c0.944-1.367,2.002-4.117,3.174-8.252
		l11.719-40.039c0.911-3.157,1.367-5.631,1.367-7.422c0-1.27-0.423-2.246-1.27-2.93c-0.847-0.684-2.507-1.025-4.98-1.025H17.627z
		 M34.961,3.662L20.605,53.223c-1.074,3.711-1.611,6.006-1.611,6.885c0,0.521,0.171,1.025,0.513,1.514s0.806,0.814,1.392,0.977
		c0.846,0.293,2.213,0.439,4.102,0.439c5.11,0,9.854-0.528,14.233-1.587C43.611,60.393,47.2,58.822,50,56.738
		c3.971-3.027,7.145-7.193,9.521-12.5c2.376-5.306,3.564-11.344,3.564-18.115c0-7.649-1.823-13.338-5.469-17.065
		C53.971,5.33,48.648,3.467,41.65,3.467C39.925,3.467,37.695,3.532,34.961,3.662z"/>
</g>
</svg>
