<?xml version="1.0" encoding="utf-8"?>
<!-- Generator: Adobe Illustrator 14.0.0, SVG Export Plug-In . SVG Version: 6.00 Build 43363)  -->
<!DOCTYPE svg PUBLIC "-//W3C//DTD SVG 1.1//EN" "http://www.w3.org/Graphics/SVG/1.1/DTD/svg11.dtd">
<svg version="1.1" id="图层_1" xmlns="http://www.w3.org/2000/svg" xmlns:xlink="http://www.w3.org/1999/xlink" x="0px" y="0px"
	 width="65.479px" height="66.211px" viewBox="0 0 65.479 66.211" enable-background="new 0 0 65.479 66.211" xml:space="preserve">
<path d="M34.619,3.564l-7.568,26.172h6.201c4.427,0,7.633-0.675,9.619-2.026c1.985-1.351,3.694-3.849,5.127-7.495h1.807
	l-6.787,24.023h-1.953c0.586-2.018,0.879-3.743,0.879-5.176c0-1.399-0.285-2.522-0.854-3.369c-0.57-0.846-1.352-1.473-2.344-1.88
	c-0.993-0.407-3.085-0.61-6.274-0.61h-6.299l-6.396,21.924c-0.619,2.116-0.928,3.728-0.928,4.834c0,0.847,0.406,1.596,1.221,2.246
	c0.553,0.456,1.937,0.684,4.15,0.684h5.859c6.348,0,11.434-1.123,15.259-3.369c3.824-2.246,7.251-6.152,10.278-11.719h1.807
	l-6.25,18.408H0l0.635-1.807c2.539-0.064,4.248-0.293,5.127-0.684c1.302-0.586,2.246-1.334,2.832-2.246
	c0.879-1.334,1.92-4.134,3.125-8.398L23.34,13.135c0.911-3.223,1.367-5.68,1.367-7.373c0-1.237-0.432-2.205-1.294-2.905
	c-0.863-0.7-2.548-1.05-5.054-1.05h-1.025L17.92,0h47.559l-4.102,15.967H59.57c0.228-1.497,0.342-2.75,0.342-3.76
	c0-1.725-0.424-3.174-1.27-4.346c-1.107-1.497-2.719-2.637-4.834-3.418c-1.563-0.586-5.16-0.879-10.791-0.879H34.619z"/>
</svg>
