<?xml version="1.0" encoding="utf-8"?>
<!-- Generator: Adobe Illustrator 14.0.0, SVG Export Plug-In . SVG Version: 6.00 Build 43363)  -->
<!DOCTYPE svg PUBLIC "-//W3C//DTD SVG 1.1//EN" "http://www.w3.org/Graphics/SVG/1.1/DTD/svg11.dtd">
<svg version="1.1" id="图层_1" xmlns="http://www.w3.org/2000/svg" xmlns:xlink="http://www.w3.org/1999/xlink" x="0px" y="0px"
	 width="69.287px" height="66.211px" viewBox="0 0 69.287 66.211" enable-background="new 0 0 69.287 66.211" xml:space="preserve">
<g>
	<path d="M34.961,3.516l-7.813,26.221h8.691c3.906,0,6.827-0.602,8.765-1.807c1.937-1.204,3.931-3.775,5.981-7.715h1.855
		l-6.885,24.121h-1.953c0.488-1.953,0.732-3.564,0.732-4.834c0-1.985-0.659-3.523-1.978-4.614s-3.784-1.636-7.397-1.636h-8.789
		L20.41,53.223c-1.042,3.549-1.563,5.908-1.563,7.08c0,1.205,0.447,2.133,1.343,2.783c0.895,0.651,3.084,1.091,6.567,1.318
		l-0.586,1.807H0l0.635-1.807c2.539-0.064,4.231-0.293,5.078-0.684c1.302-0.553,2.262-1.302,2.881-2.246
		c0.879-1.334,1.92-4.085,3.125-8.252l11.67-39.893c0.944-3.223,1.416-5.745,1.416-7.568c0-0.846-0.212-1.57-0.635-2.173
		c-0.423-0.603-1.05-1.05-1.88-1.343s-2.482-0.439-4.956-0.439L17.92,0h51.367l-4.883,16.748h-1.855
		c0.357-2.018,0.537-3.678,0.537-4.98c0-2.148-0.595-3.85-1.782-5.103c-1.188-1.253-2.71-2.14-4.565-2.661
		c-1.303-0.325-4.216-0.488-8.74-0.488H34.961z"/>
</g>
</svg>
