<?xml version="1.0" encoding="utf-8"?>
<!-- Generator: Adobe Illustrator 14.0.0, SVG Export Plug-In . SVG Version: 6.00 Build 43363)  -->
<!DOCTYPE svg PUBLIC "-//W3C//DTD SVG 1.1//EN" "http://www.w3.org/Graphics/SVG/1.1/DTD/svg11.dtd">
<svg version="1.1" id="图层_1" xmlns="http://www.w3.org/2000/svg" xmlns:xlink="http://www.w3.org/1999/xlink" x="0px" y="0px"
	 width="65.527px" height="69.287px" viewBox="0 0 65.527 69.287" enable-background="new 0 0 65.527 69.287" xml:space="preserve">
<g>
	<path d="M65.039,0l-4.932,20.85h-1.855c0.293-2.441,0.439-4.248,0.439-5.42c0-3.19-1.408-6.014-4.224-8.472
		c-2.816-2.457-6.698-3.687-11.646-3.687c-10.124,0-18.393,4.753-24.805,14.258c-5.111,7.52-7.666,15.935-7.666,25.244
		c0,6.185,1.579,11.523,4.736,16.016c3.157,4.492,8.023,6.738,14.6,6.738c1.627,0,3.165-0.146,4.614-0.439
		c1.448-0.293,3.638-0.943,6.567-1.953l4.834-17.041c0.684-2.344,1.025-4.216,1.025-5.615c0-1.172-0.424-2.067-1.27-2.686
		c-1.367-0.944-3.581-1.416-6.641-1.416h-1.367l0.537-1.904h27.539l-0.488,1.904c-2.507,0.032-4.33,0.325-5.469,0.879
		c-1.14,0.554-2.116,1.497-2.93,2.832c-0.554,0.879-1.449,3.435-2.686,7.666l-4.883,16.748c-4.46,1.921-8.057,3.198-10.791,3.833
		s-5.615,0.952-8.643,0.952c-6.967,0-12.614-1.311-16.943-3.931c-4.33-2.62-7.528-6.087-9.595-10.4C1.033,50.644,0,46.354,0,42.09
		c0-5.729,1.204-11.173,3.613-16.333c2.409-5.159,5.412-9.521,9.009-13.086c3.597-3.564,7.511-6.372,11.743-8.423
		C30.191,1.416,36.311,0,42.724,0c4.72,0,8.984,0.781,12.793,2.344c1.529,0.618,2.652,0.928,3.369,0.928
		c0.813,0,1.505-0.187,2.075-0.562c0.569-0.374,1.31-1.277,2.222-2.71H65.039z"/>
</g>
</svg>
