<?xml version="1.0" encoding="utf-8"?>
<!-- Generator: Adobe Illustrator 14.0.0, SVG Export Plug-In . SVG Version: 6.00 Build 43363)  -->
<!DOCTYPE svg PUBLIC "-//W3C//DTD SVG 1.1//EN" "http://www.w3.org/Graphics/SVG/1.1/DTD/svg11.dtd">
<svg version="1.1" id="图层_1" xmlns="http://www.w3.org/2000/svg" xmlns:xlink="http://www.w3.org/1999/xlink" x="0px" y="0px"
	 width="69.971px" height="66.211px" viewBox="0 0 69.971 66.211" enable-background="new 0 0 69.971 66.211" xml:space="preserve">
<path d="M18.359,0h51.611l-5.127,17.48h-1.807c0.325-2.734,0.488-4.655,0.488-5.762c0-3.418-0.847-5.664-2.539-6.738
	c-1.693-1.074-4.77-1.611-9.229-1.611H36.133l-14.697,50c-1.042,3.451-1.563,5.632-1.563,6.543c0,1.693,0.61,2.824,1.831,3.394
	c1.221,0.57,3.507,0.937,6.86,1.099l-0.488,1.807H0l0.586-1.807c4.231-0.032,6.974-0.789,8.228-2.271
	c1.253-1.48,2.53-4.402,3.833-8.765l11.67-39.014c1.106-3.678,1.66-6.348,1.66-8.008c0-1.79-0.529-2.954-1.587-3.491
	c-1.059-0.537-3.264-0.887-6.616-1.05L18.359,0z"/>
</svg>
