<?xml version="1.0" encoding="utf-8"?>
<!-- Generator: Adobe Illustrator 14.0.0, SVG Export Plug-In . SVG Version: 6.00 Build 43363)  -->
<!DOCTYPE svg PUBLIC "-//W3C//DTD SVG 1.1//EN" "http://www.w3.org/Graphics/SVG/1.1/DTD/svg11.dtd">
<svg version="1.1" id="图层_1" xmlns="http://www.w3.org/2000/svg" xmlns:xlink="http://www.w3.org/1999/xlink" x="0px" y="0px"
	 width="83.74px" height="66.211px" viewBox="0 0 83.74 66.211" enable-background="new 0 0 83.74 66.211" xml:space="preserve">
<g>
	<path d="M27.294,29.541h30.566l4.834-16.357c0.911-3.189,1.367-5.664,1.367-7.422c0-0.846-0.204-1.57-0.61-2.173
		c-0.407-0.603-1.034-1.05-1.88-1.343c-0.847-0.293-2.507-0.439-4.98-0.439L57.08,0h26.66l-0.586,1.807
		c-2.246-0.032-3.923,0.195-5.029,0.684c-1.563,0.684-2.719,1.563-3.467,2.637c-1.074,1.53-2.165,4.216-3.271,8.057l-11.67,39.99
		c-0.977,3.32-1.465,5.697-1.465,7.129c0,1.237,0.431,2.173,1.294,2.808c0.862,0.635,2.921,1.066,6.177,1.294l-0.537,1.807H39.404
		l0.684-1.807c2.539-0.064,4.231-0.293,5.078-0.684c1.302-0.586,2.246-1.334,2.832-2.246c0.846-1.27,1.888-4.036,3.125-8.301
		L57.08,32.91H26.367l-6.006,20.264c-0.944,3.256-1.416,5.632-1.416,7.129c0,1.237,0.423,2.173,1.27,2.808
		c0.846,0.635,2.897,1.066,6.152,1.294l-0.391,1.807H0l0.635-1.807c2.571-0.064,4.28-0.293,5.127-0.684
		c1.302-0.586,2.262-1.334,2.881-2.246c0.846-1.334,1.888-4.102,3.125-8.301l11.719-39.99c0.944-3.255,1.416-5.729,1.416-7.422
		c0-0.846-0.204-1.57-0.61-2.173c-0.407-0.603-1.042-1.05-1.904-1.343c-0.863-0.293-2.547-0.439-5.054-0.439L17.919,0h26.123
		l-0.537,1.807c-2.182-0.032-3.793,0.195-4.834,0.684c-1.53,0.651-2.653,1.514-3.369,2.588c-0.977,1.433-2.051,4.135-3.223,8.105
		L27.294,29.541z"/>
</g>
</svg>
