<?xml version="1.0" encoding="utf-8"?>
<!-- Generator: Adobe Illustrator 14.0.0, SVG Export Plug-In . SVG Version: 6.00 Build 43363)  -->
<!DOCTYPE svg PUBLIC "-//W3C//DTD SVG 1.1//EN" "http://www.w3.org/Graphics/SVG/1.1/DTD/svg11.dtd">
<svg version="1.1" id="图层_1" xmlns="http://www.w3.org/2000/svg" xmlns:xlink="http://www.w3.org/1999/xlink" x="0px" y="0px"
	 width="44.141px" height="66.211px" viewBox="0 0 44.141 66.211" enable-background="new 0 0 44.141 66.211" xml:space="preserve">
<g>
	<path d="M27.784,64.404l-0.537,1.807H0l0.684-1.807c2.734-0.064,4.541-0.293,5.42-0.684c1.432-0.553,2.49-1.318,3.174-2.295
		c1.074-1.529,2.181-4.264,3.32-8.203l11.523-39.941c0.977-3.32,1.465-5.826,1.465-7.52c0-0.846-0.212-1.563-0.635-2.148
		c-0.423-0.586-1.066-1.033-1.929-1.343c-0.863-0.31-2.547-0.464-5.054-0.464L18.555,0h25.586l-0.537,1.807
		c-2.084-0.032-3.63,0.195-4.639,0.684c-1.465,0.651-2.58,1.579-3.345,2.783c-0.766,1.205-1.75,3.874-2.954,8.008L21.192,53.223
		c-1.042,3.679-1.563,6.022-1.563,7.031c0,0.814,0.203,1.506,0.61,2.075c0.407,0.57,1.058,1.01,1.953,1.318
		C23.088,63.957,24.952,64.209,27.784,64.404z"/>
</g>
</svg>
