<?xml version="1.0" encoding="utf-8"?>
<!-- Generator: Adobe Illustrator 14.0.0, SVG Export Plug-In . SVG Version: 6.00 Build 43363)  -->
<!DOCTYPE svg PUBLIC "-//W3C//DTD SVG 1.1//EN" "http://www.w3.org/Graphics/SVG/1.1/DTD/svg11.dtd">
<svg version="1.1" id="图层_1" xmlns="http://www.w3.org/2000/svg" xmlns:xlink="http://www.w3.org/1999/xlink" x="0px" y="0px"
	 width="58.105px" height="67.725px" viewBox="0 0 58.105 67.725" enable-background="new 0 0 58.105 67.725" xml:space="preserve">
<g>
	<path d="M32.031,0h26.074l-0.537,1.807c-3.354,0.032-5.713,0.644-7.08,1.831c-1.367,1.188-2.8,4.37-4.297,9.546l-8.398,29.15
		c-1.596,5.501-3.207,9.701-4.834,12.598c-2.182,3.906-5.119,7.016-8.813,9.326c-3.695,2.311-7.837,3.467-12.427,3.467
		c-3.776,0-6.673-0.871-8.691-2.612S0,61.264,0,58.789c0-1.953,0.61-3.58,1.831-4.883c1.221-1.302,2.677-1.953,4.37-1.953
		c1.465,0,2.661,0.439,3.589,1.318s1.392,1.953,1.392,3.223c0,1.042-0.423,2.051-1.27,3.027C8.837,60.759,8.3,61.605,8.3,62.061
		c0,0.684,0.309,1.303,0.928,1.855c0.618,0.554,1.448,0.83,2.49,0.83c1.497,0,3.052-0.357,4.663-1.074
		c1.611-0.716,3.125-1.807,4.541-3.271s2.653-3.223,3.711-5.273c1.058-2.051,2.14-4.85,3.247-8.398l2.393-8.447l7.275-25.098
		c1.074-3.679,1.611-5.974,1.611-6.885c0-1.237-0.488-2.246-1.465-3.027s-3.044-1.27-6.201-1.465L32.031,0z"/>
</g>
</svg>
