<?xml version="1.0" encoding="utf-8"?>
<!-- Generator: Adobe Illustrator 14.0.0, SVG Export Plug-In . SVG Version: 6.00 Build 43363)  -->
<!DOCTYPE svg PUBLIC "-//W3C//DTD SVG 1.1//EN" "http://www.w3.org/Graphics/SVG/1.1/DTD/svg11.dtd">
<svg version="1.1" id="图层_1" xmlns="http://www.w3.org/2000/svg" xmlns:xlink="http://www.w3.org/1999/xlink" x="0px" y="0px"
	 width="75.537px" height="66.211px" viewBox="0 0 75.537 66.211" enable-background="new 0 0 75.537 66.211" xml:space="preserve">
<path d="M34.619,28.564l16.406,25.342c2.93,4.492,5.354,7.365,7.275,8.618c1.92,1.254,4.443,1.88,7.568,1.88l-0.537,1.807H37.109
	l0.439-1.807c2.246-0.228,3.833-0.765,4.761-1.611c0.928-0.846,1.392-1.807,1.392-2.881c0-0.977-0.163-1.92-0.488-2.832
	c-0.261-0.65-1.205-2.246-2.832-4.785L26.953,31.25l-6.494,21.924c-1.074,3.516-1.611,5.876-1.611,7.08
	c0,1.237,0.455,2.182,1.367,2.832c0.911,0.651,3.157,1.091,6.738,1.318l-0.781,1.807H0l0.635-1.807
	c2.539-0.064,4.248-0.293,5.127-0.684c1.302-0.586,2.262-1.334,2.881-2.246c0.846-1.334,1.888-4.102,3.125-8.301l11.67-39.99
	c0.879-3.06,1.318-5.518,1.318-7.373c0-1.302-0.415-2.295-1.245-2.979s-2.45-1.025-4.858-1.025h-0.977L18.262,0h24.854l-0.488,1.807
	c-2.051-0.032-3.581,0.195-4.59,0.684c-1.4,0.684-2.426,1.563-3.076,2.637c-0.651,1.074-1.611,3.76-2.881,8.057l-5.127,16.992
	l23.535-17.725c3.125-2.344,5.176-4.199,6.152-5.566c0.586-0.846,0.879-1.611,0.879-2.295c0-0.586-0.302-1.155-0.903-1.709
	c-0.603-0.553-1.522-0.911-2.759-1.074L54.346,0h21.191l-0.439,1.807c-2.312,0.391-4.257,0.903-5.835,1.538
	c-1.579,0.635-3.198,1.506-4.858,2.612c-0.488,0.326-3.662,2.734-9.521,7.227L34.619,28.564z"/>
</svg>
