<?xml version="1.0" encoding="utf-8"?>
<!-- Generator: Adobe Illustrator 14.0.0, SVG Export Plug-In . SVG Version: 6.00 Build 43363)  -->
<!DOCTYPE svg PUBLIC "-//W3C//DTD SVG 1.1//EN" "http://www.w3.org/Graphics/SVG/1.1/DTD/svg11.dtd">
<svg version="1.1" id="图层_1" xmlns="http://www.w3.org/2000/svg" xmlns:xlink="http://www.w3.org/1999/xlink" x="0px" y="0px"
	 width="55.518px" height="66.211px" viewBox="0 0 55.518 66.211" enable-background="new 0 0 55.518 66.211" xml:space="preserve">
<g>
	<path d="M49.073,66.211H0l0.684-1.807c2.604-0.064,4.346-0.276,5.225-0.635c1.367-0.586,2.376-1.351,3.027-2.295
		c1.009-1.497,2.083-4.199,3.223-8.105l11.67-40.283c0.977-3.32,1.465-5.762,1.465-7.324c0-1.236-0.448-2.197-1.343-2.881
		c-0.896-0.684-2.58-1.025-5.054-1.025c-0.554,0-0.993-0.016-1.318-0.049L18.165,0h27.002l-0.391,1.807
		c-3.027,0-5.176,0.293-6.445,0.879s-2.328,1.547-3.174,2.881c-0.586,0.879-1.547,3.613-2.881,8.203l-11.475,39.6
		c-0.879,2.995-1.318,5.078-1.318,6.25c0,0.781,0.439,1.53,1.318,2.246c0.553,0.488,1.807,0.732,3.76,0.732h6.396
		c4.654,0,8.35-0.586,11.084-1.758c2.018-0.879,3.873-2.197,5.566-3.955c0.911-0.977,2.522-3.401,4.834-7.275l1.27-2.197h1.807
		L49.073,66.211z"/>
</g>
</svg>
