<?xml version="1.0" encoding="utf-8"?>
<!-- Generator: Adobe Illustrator 14.0.0, SVG Export Plug-In . SVG Version: 6.00 Build 43363)  -->
<!DOCTYPE svg PUBLIC "-//W3C//DTD SVG 1.1//EN" "http://www.w3.org/Graphics/SVG/1.1/DTD/svg11.dtd">
<svg version="1.1" id="图层_1" xmlns="http://www.w3.org/2000/svg" xmlns:xlink="http://www.w3.org/1999/xlink" x="0px" y="0px"
	 width="59.814px" height="67.725px" viewBox="0 0 59.814 67.725" enable-background="new 0 0 59.814 67.725" xml:space="preserve">
<path d="M57.129,0L51.66,55.127c-0.195,1.953-0.293,3.646-0.293,5.078c0,2.246,0.569,3.744,1.709,4.492
	c1.139,0.749,3.385,1.156,6.738,1.221l-0.488,1.807H33.203l0.537-1.807c3.58-0.064,5.924-0.61,7.031-1.636
	c1.106-1.025,1.888-3.751,2.344-8.179l3.906-39.502l-25.83,35.254c-3.906,5.339-5.859,8.871-5.859,10.596
	c0,2.312,1.725,3.467,5.176,3.467l-0.586,1.807H0l0.488-1.807c2.995-0.032,5.786-1.375,8.374-4.028
	c2.588-2.652,5.655-6.388,9.204-11.206L55.371,0H57.129z"/>
</svg>
