<?xml version="1.0" encoding="utf-8"?>
<!-- Generator: Adobe Illustrator 14.0.0, SVG Export Plug-In . SVG Version: 6.00 Build 43363)  -->
<!DOCTYPE svg PUBLIC "-//W3C//DTD SVG 1.1//EN" "http://www.w3.org/Graphics/SVG/1.1/DTD/svg11.dtd">
<svg version="1.1" id="图层_1" xmlns="http://www.w3.org/2000/svg" xmlns:xlink="http://www.w3.org/1999/xlink" x="0px" y="0px"
	 width="95.654px" height="66.211px" viewBox="0 0 95.654 66.211" enable-background="new 0 0 95.654 66.211" xml:space="preserve">
<g>
	<path d="M34.96,0l6.104,53.32L79.492,0h16.162v1.807c-3.516,0.229-5.583,0.456-6.201,0.684c-1.074,0.424-2.06,1.27-2.954,2.539
		c-0.896,1.27-1.864,3.711-2.905,7.324L71.337,54.346c-0.717,2.441-1.074,4.362-1.074,5.762c0,1.27,0.439,2.23,1.318,2.881
		c1.236,0.944,3.189,1.416,5.859,1.416h1.172l-0.439,1.807H50.292l0.488-1.807h1.318c2.474,0,4.361-0.357,5.664-1.074
		c1.009-0.521,1.912-1.505,2.71-2.954c0.797-1.448,1.912-4.663,3.345-9.644l10.938-38.379L36.132,66.211h-1.953l-6.201-53.857
		L16.162,53.32c-1.009,3.483-1.514,5.827-1.514,7.031c0,1.205,0.439,2.124,1.318,2.759s3.011,1.066,6.396,1.294l-0.537,1.807H0
		l0.537-1.807h1.318c3.223,0,5.55-0.813,6.982-2.441c1.042-1.172,2.132-3.711,3.271-7.617L26.513,4.98
		c-1.074-1.106-2.1-1.855-3.076-2.246s-2.783-0.699-5.42-0.928L18.505,0H34.96z"/>
</g>
</svg>
