<?xml version="1.0" encoding="utf-8"?>
<!-- Generator: Adobe Illustrator 14.0.0, SVG Export Plug-In . SVG Version: 6.00 Build 43363)  -->
<!DOCTYPE svg PUBLIC "-//W3C//DTD SVG 1.1//EN" "http://www.w3.org/Graphics/SVG/1.1/DTD/svg11.dtd">
<svg version="1.1" id="图层_1" xmlns="http://www.w3.org/2000/svg" xmlns:xlink="http://www.w3.org/1999/xlink" x="0px" y="0px"
	 width="78.955px" height="67.725px" viewBox="0 0 78.955 67.725" enable-background="new 0 0 78.955 67.725" xml:space="preserve">
<g>
	<path d="M31.445,0l20.459,51.904l11.084-38.77c0.911-3.19,1.367-5.664,1.367-7.422c0-1.204-0.424-2.148-1.27-2.832
		c-0.847-0.684-2.426-1.025-4.736-1.025c-0.391,0-0.798-0.017-1.221-0.049L57.666,0h21.289l-0.586,1.807
		c-2.214-0.032-3.857,0.195-4.932,0.684c-1.53,0.684-2.67,1.563-3.418,2.637c-1.042,1.53-2.1,4.199-3.174,8.008L51.27,67.725h-1.758
		L27.49,11.865l-11.768,41.26c-0.879,3.125-1.318,5.518-1.318,7.178c0,1.237,0.398,2.173,1.196,2.808
		c0.797,0.635,2.693,1.066,5.688,1.294l-0.488,1.807H0l0.684-1.807c2.604-0.064,4.346-0.293,5.225-0.684
		c1.334-0.586,2.327-1.351,2.979-2.295c0.944-1.432,2.002-4.199,3.174-8.301L25.195,7.08c-1.27-1.953-2.629-3.296-4.077-4.028
		c-1.449-0.732-3.703-1.147-6.763-1.245L14.893,0H31.445z"/>
</g>
</svg>
