<?xml version="1.0" encoding="utf-8"?>
<!-- Generator: Adobe Illustrator 14.0.0, SVG Export Plug-In . SVG Version: 6.00 Build 43363)  -->
<!DOCTYPE svg PUBLIC "-//W3C//DTD SVG 1.1//EN" "http://www.w3.org/Graphics/SVG/1.1/DTD/svg11.dtd">
<svg version="1.1" id="图层_1" xmlns="http://www.w3.org/2000/svg" xmlns:xlink="http://www.w3.org/1999/xlink" x="0px" y="0px"
	 width="65.82px" height="69.238px" viewBox="0 0 65.82 69.238" enable-background="new 0 0 65.82 69.238" xml:space="preserve">
<g>
	<path d="M43.31,0c4.395,0,8.284,0.952,11.67,2.856c3.385,1.904,6.038,4.72,7.959,8.447c1.92,3.728,2.881,7.593,2.881,11.597
		c0,7.097-2.06,14.543-6.177,22.339c-4.118,7.797-9.497,13.745-16.138,17.847s-13.51,6.152-20.605,6.152
		c-5.111,0-9.383-1.132-12.817-3.394c-3.435-2.262-5.974-5.249-7.617-8.96C0.821,53.174,0,49.577,0,46.094
		c0-6.185,1.489-12.297,4.468-18.335s6.535-11.084,10.669-15.137c4.134-4.053,8.545-7.169,13.232-9.351
		C33.056,1.091,38.037,0,43.31,0z M41.65,3.125c-3.256,0-6.438,0.806-9.546,2.417c-3.109,1.611-6.193,4.248-9.253,7.91
		c-3.06,3.662-5.811,8.456-8.252,14.38c-2.995,7.292-4.492,14.177-4.492,20.654c0,4.623,1.188,8.716,3.564,12.28
		c2.376,3.564,6.022,5.347,10.938,5.347c2.962,0,5.867-0.732,8.716-2.197c2.848-1.465,5.818-3.971,8.911-7.52
		c3.873-4.459,7.129-10.148,9.766-17.065s3.955-13.37,3.955-19.36c0-4.427-1.188-8.342-3.564-11.743
		C50.015,4.826,46.435,3.125,41.65,3.125z"/>
</g>
</svg>
