<?xml version="1.0" encoding="utf-8"?>
<!-- Generator: Adobe Illustrator 14.0.0, SVG Export Plug-In . SVG Version: 6.00 Build 43363)  -->
<!DOCTYPE svg PUBLIC "-//W3C//DTD SVG 1.1//EN" "http://www.w3.org/Graphics/SVG/1.1/DTD/svg11.dtd">
<svg version="1.1" id="图层_1" xmlns="http://www.w3.org/2000/svg" xmlns:xlink="http://www.w3.org/1999/xlink" x="0px" y="0px"
	 width="71.143px" height="67.725px" viewBox="0 0 71.143 67.725" enable-background="new 0 0 71.143 67.725" xml:space="preserve">
<path d="M37.939,59.912h8.691c5.11,0,8.545-0.626,10.303-1.88c1.758-1.253,3.206-3.426,4.346-6.519h1.807L57.91,67.725H32.471
	l5.273-16.016c8.04-0.813,13.965-4.801,17.773-11.963c3.809-7.161,5.713-14.095,5.713-20.801c0-4.395-1.416-8.122-4.248-11.182
	c-2.832-3.06-6.527-4.59-11.084-4.59c-4.948,0-9.546,1.44-13.794,4.321s-7.683,7.153-10.303,12.817
	c-2.621,5.664-3.931,11.23-3.931,16.699c0,7.846,3.824,12.744,11.475,14.697L24.17,67.725H0l4.443-16.211H6.25
	c-0.488,1.237-0.732,2.36-0.732,3.369c0,1.4,0.521,2.588,1.563,3.564c1.041,0.977,3.45,1.465,7.227,1.465h9.229l1.807-5.42
	c-5.437-1.334-9.709-3.946-12.817-7.837c-3.109-3.89-4.663-8.064-4.663-12.524c0-5.469,1.773-11.043,5.322-16.724
	c3.548-5.68,8.39-10.001,14.526-12.964C33.846,1.481,40.201,0,46.777,0c7.584,0,13.541,2.108,17.871,6.323
	c4.329,4.216,6.494,9.416,6.494,15.601c0,7.845-2.751,14.982-8.252,21.411c-5.502,6.43-13.249,10.295-23.242,11.597L37.939,59.912z"
	/>
</svg>
