<?xml version="1.0" encoding="utf-8"?>
<!-- Generator: Adobe Illustrator 14.0.0, SVG Export Plug-In . SVG Version: 6.00 Build 43363)  -->
<!DOCTYPE svg PUBLIC "-//W3C//DTD SVG 1.1//EN" "http://www.w3.org/Graphics/SVG/1.1/DTD/svg11.dtd">
<svg version="1.1" id="图层_1" xmlns="http://www.w3.org/2000/svg" xmlns:xlink="http://www.w3.org/1999/xlink" x="0px" y="0px"
	 width="67.09px" height="66.211px" viewBox="0 0 67.09 66.211" enable-background="new 0 0 67.09 66.211" xml:space="preserve">
<path d="M34.912,11.475c0.553-1.985,0.83-3.499,0.83-4.541c0-1.334-0.424-2.522-1.27-3.564c-0.847-1.042-2.897-1.563-6.152-1.563
	L28.809,0h29.59L57.91,1.807c-3.842,0.065-6.706,0.684-8.594,1.855c-1.889,1.172-3.402,3.792-4.541,7.861
	c7.552,0.293,13.159,2.173,16.821,5.64s5.493,7.625,5.493,12.476c0,6.738-2.954,12.549-8.862,17.432s-14.56,7.438-25.952,7.666
	c-0.521,2.116-0.781,3.695-0.781,4.736c0,1.563,0.537,2.775,1.611,3.638c1.074,0.863,3.304,1.294,6.689,1.294l-0.537,1.807H9.424
	l0.537-1.807c3.548,0,6.266-0.635,8.154-1.904c1.888-1.27,3.304-3.857,4.248-7.764c-7.78-0.357-13.452-2.271-17.017-5.737
	S0,41.423,0,36.67c0-6.575,2.848-12.329,8.545-17.261C14.241,14.478,23.03,11.833,34.912,11.475z M34.18,14.258
	c-7.553,0-13.607,2.441-18.164,7.324C11.458,26.465,9.18,32.031,9.18,38.281c0,8.398,4.639,12.973,13.916,13.721L34.18,14.258z
	 M32.91,52.002c7.486,0,13.525-2.425,18.115-7.275c4.59-4.85,6.885-10.433,6.885-16.748c0-8.398-4.639-12.972-13.916-13.721
	L32.91,52.002z"/>
</svg>
