<?xml version="1.0" encoding="utf-8"?>
<!-- Generator: Adobe Illustrator 14.0.0, SVG Export Plug-In . SVG Version: 6.00 Build 43363)  -->
<!DOCTYPE svg PUBLIC "-//W3C//DTD SVG 1.1//EN" "http://www.w3.org/Graphics/SVG/1.1/DTD/svg11.dtd">
<svg version="1.1" id="图层_1" xmlns="http://www.w3.org/2000/svg" xmlns:xlink="http://www.w3.org/1999/xlink" x="0px" y="0px"
	 width="83.447px" height="66.211px" viewBox="0 0 83.447 66.211" enable-background="new 0 0 83.447 66.211" xml:space="preserve">
<path d="M17.432,0h66.016l-0.586,1.807c-2.865,0.033-5.029,0.545-6.494,1.538c-1.465,0.993-3.012,4.272-4.639,9.839L60.547,51.416
	c-1.303,4.492-1.953,7.373-1.953,8.643c0,1.53,0.496,2.612,1.489,3.247c0.992,0.635,2.872,1.001,5.64,1.099l-0.635,1.807H39.551
	l0.488-1.807c3.32,0,5.696-0.748,7.129-2.246c1.432-1.497,2.848-4.605,4.248-9.326L65.967,3.369H35.498l-14.16,48.779
	c-1.042,3.613-1.563,6.218-1.563,7.813c0,2.963,2.49,4.443,7.471,4.443l-0.586,1.807H0l0.586-1.807
	c2.408-0.032,4.15-0.244,5.225-0.635s2.066-1.188,2.979-2.393c0.911-1.204,1.773-3.189,2.588-5.957l12.842-43.115
	c0.716-2.441,1.074-4.215,1.074-5.322c0-1.985-0.651-3.328-1.953-4.028c-1.303-0.7-3.418-1.082-6.348-1.147L17.432,0z"/>
</svg>
