<?xml version="1.0" encoding="utf-8"?>
<!-- Generator: Adobe Illustrator 14.0.0, SVG Export Plug-In . SVG Version: 6.00 Build 43363)  -->
<!DOCTYPE svg PUBLIC "-//W3C//DTD SVG 1.1//EN" "http://www.w3.org/Graphics/SVG/1.1/DTD/svg11.dtd">
<svg version="1.1" id="图层_1" xmlns="http://www.w3.org/2000/svg" xmlns:xlink="http://www.w3.org/1999/xlink" x="0px" y="0px"
	 width="67.383px" height="66.992px" viewBox="0 0 67.383 66.992" enable-background="new 0 0 67.383 66.992" xml:space="preserve">
<path d="M19.482,0.781h28.271l-0.391,1.807c-3.939,0.065-6.738,0.725-8.398,1.978c-1.66,1.253-3.044,3.735-4.15,7.446l-7.666,25.928
	c3.971-0.228,7.234-1.041,9.79-2.441c2.555-1.399,4.492-3.198,5.811-5.396s2.84-6.144,4.565-11.841
	c1.822-5.859,3.613-9.969,5.371-12.329c1.758-2.36,3.719-3.938,5.884-4.736C60.733,0.399,63.672,0,67.383,0v1.855
	c-2.344,0.033-4.199,0.822-5.566,2.368c-1.367,1.546-2.719,4.712-4.053,9.497c-1.986,7.227-4.021,12.557-6.104,15.991
	c-2.084,3.435-5.07,6.112-8.96,8.032c-3.891,1.921-9.351,2.881-16.382,2.881l-4.297,14.941c-0.554,1.889-0.83,3.369-0.83,4.443
	c0,1.303,0.366,2.385,1.099,3.247c0.732,0.863,1.521,1.392,2.368,1.587c0.846,0.195,2.393,0.31,4.639,0.342l-0.439,1.807H0.586
	l0.439-1.807c3.938,0,6.746-0.716,8.423-2.148c1.676-1.432,3.116-4.15,4.321-8.154l4.248-14.258
	c-5.6-0.391-9.896-2.141-12.891-5.249c-2.995-3.108-4.492-6.746-4.492-10.913c0-1.563,0.122-2.97,0.366-4.224
	c0.244-1.253,1.001-3.898,2.271-7.935C4.15,9.505,4.59,7.422,4.59,6.055c0-2.799-1.53-4.199-4.59-4.199V0
	c2.701,0.065,4.817,0.399,6.348,1.001c1.529,0.603,2.856,1.701,3.979,3.296c1.123,1.595,1.685,3.369,1.685,5.322
	c0,2.214-0.717,5.583-2.148,10.107c-1.14,3.679-1.709,6.511-1.709,8.496c0,3.027,1.017,5.404,3.052,7.129
	c2.034,1.726,4.532,2.588,7.495,2.588l7.373-25.244c0.586-2.083,0.879-3.694,0.879-4.834c0-1.725-0.537-3.035-1.611-3.931
	c-1.074-0.895-3.174-1.343-6.299-1.343L19.482,0.781z"/>
</svg>
