<?xml version="1.0" encoding="utf-8"?>
<!-- Generator: Adobe Illustrator 14.0.0, SVG Export Plug-In . SVG Version: 6.00 Build 43363)  -->
<!DOCTYPE svg PUBLIC "-//W3C//DTD SVG 1.1//EN" "http://www.w3.org/Graphics/SVG/1.1/DTD/svg11.dtd">
<svg version="1.1" id="图层_1" xmlns="http://www.w3.org/2000/svg" xmlns:xlink="http://www.w3.org/1999/xlink" x="0px" y="0px"
	 width="66.992px" height="88.818px" viewBox="0 0 66.992 88.818" enable-background="new 0 0 66.992 88.818" xml:space="preserve">
<g>
	<path d="M24.511,69.238L11.914,79.443c1.985-0.358,3.825-0.537,5.518-0.537c1.627,0,3.133,0.098,4.517,0.293
		c1.383,0.195,4.346,0.806,8.887,1.831s8.504,1.538,11.89,1.538c3.613,0,6.681-0.627,9.204-1.88
		c2.522-1.254,4.972-3.345,7.349-6.274l1.611,0.781c-3.354,4.817-7.309,8.292-11.865,10.425c-4.558,2.132-9.392,3.198-14.502,3.198
		c-2.832,0-6.706-0.554-11.621-1.66c-7.52-1.66-12.777-2.49-15.771-2.49c-1.14,0-2.067,0.081-2.783,0.244
		c-0.716,0.162-1.791,0.553-3.223,1.172L0,84.766l20.02-15.82c-6.185-0.847-10.873-3.564-14.063-8.154
		c-3.19-4.59-4.785-9.488-4.785-14.697c0-7.129,2.156-14.502,6.47-22.119c4.313-7.617,9.831-13.517,16.553-17.7
		C30.916,2.092,37.515,0,43.994,0c4.817,0,8.927,0.977,12.329,2.93c3.401,1.953,6.03,4.794,7.886,8.521
		c1.855,3.728,2.783,7.544,2.783,11.45c0,7.487-2.133,15.071-6.396,22.754c-4.265,7.683-9.563,13.501-15.894,17.456
		C38.37,67.065,31.64,69.107,24.511,69.238z M42.822,3.125c-3.256,0-6.438,0.806-9.546,2.417c-3.109,1.611-6.193,4.248-9.253,7.91
		c-3.06,3.662-5.811,8.455-8.252,14.38c-2.962,7.292-4.443,14.177-4.443,20.654c0,4.623,1.188,8.716,3.564,12.28
		c2.376,3.564,6.022,5.347,10.938,5.347c2.93,0,5.826-0.732,8.691-2.197c2.864-1.465,5.826-3.955,8.887-7.471
		c3.906-4.492,7.178-10.205,9.814-17.139s3.955-13.379,3.955-19.336c0-4.395-1.188-8.301-3.564-11.719
		C51.236,4.834,47.639,3.125,42.822,3.125z"/>
</g>
</svg>
