<?xml version="1.0" encoding="utf-8"?>
<!-- Generator: Adobe Illustrator 14.0.0, SVG Export Plug-In . SVG Version: 6.00 Build 43363)  -->
<!DOCTYPE svg PUBLIC "-//W3C//DTD SVG 1.1//EN" "http://www.w3.org/Graphics/SVG/1.1/DTD/svg11.dtd">
<svg version="1.1" id="图层_1" xmlns="http://www.w3.org/2000/svg" xmlns:xlink="http://www.w3.org/1999/xlink" x="0px" y="0px"
	 width="60.205px" height="66.211px" viewBox="0 0 60.205 66.211" enable-background="new 0 0 60.205 66.211" xml:space="preserve">
<g>
	<path d="M43.848,66.211L33.252,34.033c-2.475,0.033-5.013-0.211-7.617-0.732l-5.713,20.02c-0.749,2.604-1.123,4.802-1.123,6.592
		c0,1.367,0.472,2.441,1.416,3.223c0.716,0.586,2.669,1.01,5.859,1.27l-0.439,1.807H0l0.537-1.807
		c2.409-0.098,4.036-0.342,4.883-0.732c1.334-0.553,2.311-1.302,2.93-2.246c1.042-1.529,2.132-4.231,3.271-8.105l11.572-39.99
		c0.781-2.669,1.172-4.736,1.172-6.201c0-1.497-0.61-2.767-1.831-3.809c-1.221-1.041-2.971-1.546-5.249-1.514L17.871,0h21.582
		c7.227,0,12.435,1.367,15.625,4.102c3.189,2.734,4.785,6.332,4.785,10.791c0,4.265-1.636,8.162-4.907,11.694
		s-7.756,5.771-13.452,6.714l6.445,19.385c1.563,4.753,3.125,7.846,4.688,9.277c1.563,1.433,4.085,2.246,7.568,2.441l-0.537,1.807
		H43.848z M26.465,30.518c2.083,0.293,3.938,0.439,5.566,0.439c5.599,0,10.025-1.555,13.281-4.663
		c3.255-3.108,4.883-6.974,4.883-11.597c0-3.613-1.018-6.38-3.052-8.301c-2.035-1.92-5.087-2.881-9.155-2.881
		c-1.042,0-2.279,0.131-3.711,0.391L26.465,30.518z"/>
</g>
</svg>
