<?xml version="1.0" encoding="utf-8"?>
<!-- Generator: Adobe Illustrator 14.0.0, SVG Export Plug-In . SVG Version: 6.00 Build 43363)  -->
<!DOCTYPE svg PUBLIC "-//W3C//DTD SVG 1.1//EN" "http://www.w3.org/Graphics/SVG/1.1/DTD/svg11.dtd">
<svg version="1.1" id="图层_1" xmlns="http://www.w3.org/2000/svg" xmlns:xlink="http://www.w3.org/1999/xlink" x="0px" y="0px"
	 width="64.502px" height="66.211px" viewBox="0 0 64.502 66.211" enable-background="new 0 0 64.502 66.211" xml:space="preserve">
<path d="M18.018,0h26.074c6.836,0,11.946,1.473,15.332,4.419c3.385,2.946,5.078,6.535,5.078,10.767c0,3.353-1.074,6.608-3.223,9.766
	c-2.148,3.158-5.339,5.721-9.57,7.69c-4.232,1.97-8.806,2.954-13.721,2.954c-3.061,0-6.95-0.553-11.67-1.66l-5.273,18.066
	c-1.237,4.297-1.855,7.129-1.855,8.496c0,1.042,0.439,1.904,1.318,2.588s2.979,1.123,6.299,1.318l-0.488,1.807H0l0.537-1.807
	c3.45,0,5.851-0.594,7.202-1.782c1.351-1.188,2.808-4.468,4.37-9.839l10.938-37.695C24.349,10.563,25,7.536,25,6.006
	c0-1.139-0.464-2.083-1.392-2.832c-0.928-0.749-2.971-1.204-6.128-1.367L18.018,0z M27.148,30.859
	c3.678,0.944,6.641,1.416,8.887,1.416c3.548,0,6.778-0.732,9.692-2.197c2.913-1.465,5.191-3.662,6.836-6.592
	c1.644-2.93,2.466-5.973,2.466-9.131c0-3.288-1.01-5.892-3.027-7.813c-2.019-1.92-5.078-2.881-9.18-2.881
	c-2.214,0-4.899,0.277-8.057,0.83L27.148,30.859z"/>
</svg>
