<?xml version="1.0" encoding="utf-8"?>
<!-- Generator: Adobe Illustrator 14.0.0, SVG Export Plug-In . SVG Version: 6.00 Build 43363)  -->
<!DOCTYPE svg PUBLIC "-//W3C//DTD SVG 1.1//EN" "http://www.w3.org/Graphics/SVG/1.1/DTD/svg11.dtd">
<svg version="1.1" id="图层_1" xmlns="http://www.w3.org/2000/svg" xmlns:xlink="http://www.w3.org/1999/xlink" x="0px" y="0px"
	 width="53.516px" height="69.238px" viewBox="0 0 53.516 69.238" enable-background="new 0 0 53.516 69.238" xml:space="preserve">
<g>
	<path d="M0,69.238l5.469-24.561h1.66c-0.228,2.377-0.342,4.346-0.342,5.908c0,4.46,1.424,8.09,4.272,10.889
		c2.848,2.8,6.567,4.199,11.157,4.199c4.264,0,7.503-1.31,9.717-3.931c2.213-2.62,3.32-5.64,3.32-9.058
		c0-2.213-0.505-4.231-1.514-6.055c-1.53-2.701-5.615-7.454-12.256-14.258c-3.223-3.255-5.29-5.68-6.201-7.275
		c-1.498-2.637-2.246-5.403-2.246-8.301c0-4.622,1.725-8.577,5.176-11.865C21.664,1.645,26.09,0,31.495,0
		c1.822,0,3.548,0.18,5.176,0.537c1.009,0.195,2.848,0.847,5.518,1.953c1.888,0.749,2.93,1.156,3.125,1.221
		c0.455,0.098,0.96,0.146,1.514,0.146c0.943,0,1.758-0.244,2.441-0.732S50.749,1.596,51.661,0h1.855l-5.078,21.973h-1.66
		c0.13-1.953,0.195-3.531,0.195-4.736c0-3.938-1.303-7.161-3.906-9.668c-2.604-2.506-6.039-3.76-10.303-3.76
		c-3.386,0-6.137,0.993-8.252,2.979c-2.116,1.986-3.174,4.281-3.174,6.885c0,2.279,0.675,4.451,2.026,6.519
		c1.351,2.067,4.459,5.437,9.326,10.107c4.866,4.671,8.016,8.317,9.448,10.938c1.432,2.62,2.148,5.412,2.148,8.374
		c0,3.354-0.888,6.601-2.661,9.741c-1.774,3.142-4.321,5.575-7.642,7.3s-6.95,2.588-10.889,2.588c-1.953,0-3.776-0.18-5.469-0.537
		c-1.693-0.358-4.395-1.236-8.105-2.637c-1.27-0.488-2.328-0.732-3.174-0.732c-1.921,0-3.418,1.303-4.492,3.906H0z"/>
</g>
</svg>
