<?xml version="1.0" encoding="utf-8"?>
<!-- Generator: Adobe Illustrator 14.0.0, SVG Export Plug-In . SVG Version: 6.00 Build 43363)  -->
<!DOCTYPE svg PUBLIC "-//W3C//DTD SVG 1.1//EN" "http://www.w3.org/Graphics/SVG/1.1/DTD/svg11.dtd">
<svg version="1.1" id="图层_1" xmlns="http://www.w3.org/2000/svg" xmlns:xlink="http://www.w3.org/1999/xlink" x="0px" y="0px"
	 width="57.959px" height="66.211px" viewBox="0 0 57.959 66.211" enable-background="new 0 0 57.959 66.211" xml:space="preserve">
<path d="M7.666,0h50.293l-5.42,17.578h-1.855c0.618-2.571,0.928-4.866,0.928-6.885c0-2.376-0.732-4.167-2.197-5.371
	c-1.107-0.911-3.955-1.367-8.545-1.367h-5.225L22.559,49.561c-1.66,5.729-2.49,9.262-2.49,10.596c0,1.237,0.521,2.255,1.563,3.052
	c1.041,0.798,2.881,1.196,5.518,1.196h2.246l-0.586,1.807H0l0.537-1.807h1.27c2.539,0,4.492-0.406,5.859-1.221
	c0.943-0.553,1.798-1.554,2.563-3.003c0.765-1.448,1.831-4.517,3.198-9.204L27.148,3.955h-3.955c-3.809,0-6.877,0.488-9.204,1.465
	c-2.328,0.977-4.208,2.393-5.64,4.248c-1.433,1.855-2.604,4.492-3.516,7.91H3.027L7.666,0z"/>
</svg>
