<?xml version="1.0" encoding="utf-8"?>
<!-- Generator: Adobe Illustrator 14.0.0, SVG Export Plug-In . SVG Version: 6.00 Build 43363)  -->
<!DOCTYPE svg PUBLIC "-//W3C//DTD SVG 1.1//EN" "http://www.w3.org/Graphics/SVG/1.1/DTD/svg11.dtd">
<svg version="1.1" id="图层_1" xmlns="http://www.w3.org/2000/svg" xmlns:xlink="http://www.w3.org/1999/xlink" x="0px" y="0px"
	 width="65.82px" height="69.238px" viewBox="0 0 65.82 69.238" enable-background="new 0 0 65.82 69.238" xml:space="preserve">
<path d="M42.578,0c7.877,0,13.721,2.344,17.529,7.031s5.713,10.026,5.713,16.016c0,7.194-2.092,14.624-6.274,22.29
	c-4.184,7.666-9.514,13.566-15.991,17.7c-6.479,4.135-13.33,6.201-20.557,6.201c-7.715,0-13.477-2.425-17.285-7.275
	C1.904,57.113,0,51.823,0,46.094C0,39.16,2.01,32.04,6.03,24.731c4.02-7.308,9.391-13.257,16.113-17.847
	C28.865,2.295,35.677,0,42.578,0z M41.357,3.125c-8.139,0-15.381,5.005-21.729,15.015s-9.521,20.142-9.521,30.396
	c0,4.721,1.212,8.83,3.638,12.329c2.425,3.5,6.111,5.249,11.06,5.249c4.297,0,8.919-2.034,13.867-6.104
	c4.947-4.068,9.065-10.132,12.354-18.188c3.287-8.057,4.932-15.275,4.932-21.655c0-4.98-1.286-9.065-3.857-12.256
	C49.527,4.72,45.947,3.125,41.357,3.125z M23.828,23.73h1.807c-0.326,1.205-0.488,2.116-0.488,2.734
	c0,2.832,2.002,4.248,6.006,4.248h4.932c3.287,0,5.606-0.464,6.958-1.392c1.351-0.928,2.53-2.791,3.54-5.591h1.807L42.09,45.605
	h-1.855c0.423-1.497,0.635-2.652,0.635-3.467c0-1.529-0.595-2.629-1.782-3.296c-1.188-0.667-3.459-1.001-6.812-1.001h-3.223
	c-2.865,0-5.021,0.61-6.47,1.831c-1.449,1.221-2.563,3.198-3.345,5.933h-1.807L23.828,23.73z"/>
</svg>
