<?xml version="1.0" encoding="utf-8"?>
<!-- Generator: Adobe Illustrator 14.0.0, SVG Export Plug-In . SVG Version: 6.00 Build 43363)  -->
<!DOCTYPE svg PUBLIC "-//W3C//DTD SVG 1.1//EN" "http://www.w3.org/Graphics/SVG/1.1/DTD/svg11.dtd">
<svg version="1.1" id="图层_1" xmlns="http://www.w3.org/2000/svg" xmlns:xlink="http://www.w3.org/1999/xlink" x="0px" y="0px"
	 width="59.814px" height="67.725px" viewBox="0 0 59.814 67.725" enable-background="new 0 0 59.814 67.725" xml:space="preserve">
<g>
	<path d="M2.685,67.725l5.469-55.127c0.26-2.8,0.391-4.688,0.391-5.664c0-1.465-0.545-2.686-1.636-3.662
		C5.818,2.295,4.101,1.807,1.757,1.807H0L0.488,0h26.123l-0.537,1.807c-2.832,0.032-4.777,0.325-5.835,0.879
		c-1.059,0.554-1.896,1.497-2.515,2.832c-0.326,0.716-0.668,2.751-1.025,6.104l-3.906,39.502l25.83-35.254
		c2.799-3.809,4.557-6.462,5.273-7.959c0.488-1.009,0.732-1.888,0.732-2.637c0-0.879-0.375-1.644-1.123-2.295
		c-0.749-0.651-2.148-1.042-4.199-1.172L39.892,0h19.922l-0.488,1.807c-1.596,0.13-2.865,0.439-3.809,0.928
		c-1.791,0.847-3.573,2.132-5.347,3.857c-1.774,1.726-4.582,5.208-8.423,10.449L4.443,67.725H2.685z"/>
</g>
</svg>
