<?xml version="1.0" encoding="utf-8"?>
<!-- Generator: Adobe Illustrator 14.0.0, SVG Export Plug-In . SVG Version: 6.00 Build 43363)  -->
<!DOCTYPE svg PUBLIC "-//W3C//DTD SVG 1.1//EN" "http://www.w3.org/Graphics/SVG/1.1/DTD/svg11.dtd">
<svg version="1.1" id="图层_1" xmlns="http://www.w3.org/2000/svg" xmlns:xlink="http://www.w3.org/1999/xlink" x="0px" y="0px"
	 width="82.227px" height="67.725px" viewBox="0 0 82.227 67.725" enable-background="new 0 0 82.227 67.725" xml:space="preserve">
<g>
	<path d="M1.368,67.725l5.713-55.176c0.228-2.116,0.342-3.743,0.342-4.883c0-1.888-0.537-3.32-1.611-4.297S2.8,1.872,0,1.807
		L0.538,0h24.805l-0.537,1.807c-3.32-0.032-5.591,0.562-6.812,1.782s-2.06,4.207-2.515,8.96l-3.662,35.742L36.963,9.473
		c0.032-0.651,0.049-1.204,0.049-1.66c0-1.823-0.537-3.223-1.611-4.199s-3.386-1.579-6.934-1.807L28.858,0h26.807l-0.537,1.807
		c-3.093,0.032-5.176,0.293-6.25,0.781c-0.781,0.358-1.44,0.937-1.978,1.733c-0.537,0.798-0.969,2.156-1.294,4.077
		c-0.098,0.554-0.497,4.329-1.196,11.328c-0.7,6.999-1.75,16.521-3.149,28.564l20.947-31.836c2.278-3.483,3.711-5.925,4.297-7.324
		s0.879-2.588,0.879-3.564c0-0.911-0.391-1.717-1.172-2.417c-0.781-0.699-2.116-1.147-4.004-1.343L62.598,0h19.629l-0.488,1.807
		c-1.726,0.13-3.256,0.554-4.59,1.27c-1.335,0.716-2.914,2.083-4.736,4.102c-1.042,1.172-3.19,4.265-6.445,9.277l-33.252,51.27
		h-1.807l5.371-51.27L3.028,67.725H1.368z"/>
</g>
</svg>
