<?xml version="1.0" encoding="utf-8"?>
<!-- Generator: Adobe Illustrator 14.0.0, SVG Export Plug-In . SVG Version: 6.00 Build 43363)  -->
<!DOCTYPE svg PUBLIC "-//W3C//DTD SVG 1.1//EN" "http://www.w3.org/Graphics/SVG/1.1/DTD/svg11.dtd">
<svg version="1.1" id="图层_1" xmlns="http://www.w3.org/2000/svg" xmlns:xlink="http://www.w3.org/1999/xlink" x="0px" y="0px"
	 width="69.531px" height="66.211px" viewBox="0 0 69.531 66.211" enable-background="new 0 0 69.531 66.211" xml:space="preserve">
<path d="M5.811,46.387h1.807c-0.977,3.483-1.465,5.99-1.465,7.52c0,1.498,0.528,2.548,1.587,3.149
	c1.058,0.603,3.377,0.903,6.958,0.903h28.418c2.832,0,4.842-0.228,6.03-0.684c1.188-0.455,2.344-1.497,3.467-3.125
	c1.123-1.627,2.237-4.215,3.345-7.764h1.807l-5.811,19.824H0L5.811,46.387z M20.361,0h49.17l-5.078,17.188h-1.855
	c0.684-1.985,1.025-3.613,1.025-4.883c0-1.563-0.497-2.628-1.489-3.198c-0.993-0.569-2.808-0.854-5.444-0.854H27.783
	c-3.354,0-5.656,0.537-6.909,1.611c-1.254,1.074-2.466,3.516-3.638,7.324H15.43L20.361,0z M23.828,22.363h1.855
	c-0.391,1.4-0.586,2.49-0.586,3.271c0,1.433,0.439,2.401,1.318,2.905c0.879,0.505,2.604,0.757,5.176,0.757h9.961
	c3.223,0,5.46-0.439,6.714-1.318c1.253-0.879,2.303-2.75,3.149-5.615h1.807l-6.25,21.533h-1.855
	c0.423-1.465,0.635-2.652,0.635-3.564c0-1.529-0.464-2.571-1.392-3.125c-0.928-0.553-2.646-0.83-5.151-0.83h-9.814
	c-2.637,0-4.379,0.131-5.225,0.391c-0.847,0.261-1.645,0.863-2.393,1.807c-0.749,0.944-1.579,2.719-2.49,5.322H17.48L23.828,22.363z
	"/>
</svg>
