<?xml version="1.0" encoding="utf-8"?>
<!-- Generator: Adobe Illustrator 14.0.0, SVG Export Plug-In . SVG Version: 6.00 Build 43363)  -->
<!DOCTYPE svg PUBLIC "-//W3C//DTD SVG 1.1//EN" "http://www.w3.org/Graphics/SVG/1.1/DTD/svg11.dtd">
<svg version="1.1" id="图层_1" xmlns="http://www.w3.org/2000/svg" xmlns:xlink="http://www.w3.org/1999/xlink" x="0px" y="0px"
	 width="57.715px" height="66.211px" viewBox="0 0 57.715 66.211" enable-background="new 0 0 57.715 66.211" xml:space="preserve">
<g>
	<path d="M25.977,31.006l12.598-17.627c3.255-4.59,4.883-7.52,4.883-8.789c0-0.716-0.351-1.311-1.05-1.782
		c-0.7-0.472-2.694-0.806-5.981-1.001L36.914,0h20.801l-0.391,1.807c-2.019,0.261-3.402,0.537-4.15,0.83
		c-1.172,0.488-2.328,1.254-3.467,2.295c-1.53,1.367-3.744,4.053-6.641,8.057L26.855,35.352l-4.883,16.357
		c-1.205,4.102-1.807,6.934-1.807,8.496c0,1.01,0.187,1.774,0.562,2.295c0.374,0.521,1.033,0.944,1.978,1.27
		c1.236,0.391,3.125,0.603,5.664,0.635l-0.488,1.807H0l0.586-1.807c2.767-0.064,4.606-0.293,5.518-0.684
		c1.465-0.586,2.555-1.367,3.271-2.344c1.106-1.497,2.246-4.183,3.418-8.057l5.811-19.336l-7.08-22.852
		c-1.27-4.036-2.434-6.543-3.491-7.52C6.974,2.637,5.127,2.035,2.49,1.807L2.979,0h24.463l-0.586,1.807
		c-3.061,0.229-4.802,0.424-5.225,0.586c-0.717,0.229-1.303,0.684-1.758,1.367c-0.456,0.684-0.684,1.481-0.684,2.393
		c0,1.335,0.472,3.613,1.416,6.836L25.977,31.006z"/>
</g>
</svg>
