<?xml version="1.0" encoding="utf-8"?>
<!-- Generator: Adobe Illustrator 14.0.0, SVG Export Plug-In . SVG Version: 6.00 Build 43363)  -->
<!DOCTYPE svg PUBLIC "-//W3C//DTD SVG 1.1//EN" "http://www.w3.org/Graphics/SVG/1.1/DTD/svg11.dtd">
<svg version="1.1" id="图层_1" xmlns="http://www.w3.org/2000/svg" xmlns:xlink="http://www.w3.org/1999/xlink" x="0px" y="0px"
	 width="44.58px" height="45.361px" viewBox="0 0 44.58 45.361" enable-background="new 0 0 44.58 45.361" xml:space="preserve">
<g>
	<path d="M44.58,0l-9.521,33.105l-1.074,4.443c-0.098,0.424-0.146,0.781-0.146,1.074c0,0.521,0.162,0.977,0.488,1.367
		c0.26,0.293,0.586,0.439,0.977,0.439c0.423,0,0.977-0.26,1.66-0.781c1.27-0.943,2.962-2.896,5.078-5.859l1.66,1.172
		c-2.246,3.386-4.558,5.966-6.934,7.739c-2.377,1.773-4.574,2.661-6.592,2.661c-1.4,0-2.45-0.351-3.149-1.05
		c-0.7-0.699-1.05-1.717-1.05-3.052c0-1.595,0.357-3.694,1.074-6.299l1.025-3.662c-4.265,5.566-8.187,9.457-11.768,11.67
		c-2.572,1.595-5.095,2.393-7.568,2.393c-2.376,0-4.427-0.985-6.152-2.954C0.862,40.438,0,37.729,0,34.277
		c0-5.176,1.554-10.636,4.663-16.382C7.771,12.15,11.719,7.552,16.504,4.102C20.247,1.367,23.779,0,27.1,0
		c1.985,0,3.638,0.521,4.956,1.563s2.319,2.767,3.003,5.176l1.758-5.566L44.58,0z M27.197,2.539c-2.084,0-4.297,0.977-6.641,2.93
		c-3.32,2.767-6.274,6.868-8.862,12.305S7.813,28.125,7.813,32.52c0,2.214,0.553,3.964,1.66,5.249
		c1.106,1.286,2.376,1.929,3.809,1.929c3.548,0,7.405-2.62,11.572-7.861c5.566-6.966,8.35-14.111,8.35-21.436
		c0-2.767-0.537-4.769-1.611-6.006S29.053,2.539,27.197,2.539z"/>
</g>
</svg>
