<?xml version="1.0" encoding="utf-8"?>
<!-- Generator: Adobe Illustrator 14.0.0, SVG Export Plug-In . SVG Version: 6.00 Build 43363)  -->
<!DOCTYPE svg PUBLIC "-//W3C//DTD SVG 1.1//EN" "http://www.w3.org/Graphics/SVG/1.1/DTD/svg11.dtd">
<svg version="1.1" id="图层_1" xmlns="http://www.w3.org/2000/svg" xmlns:xlink="http://www.w3.org/1999/xlink" x="0px" y="0px"
	 width="71.094px" height="69.238px" viewBox="0 0 71.094 69.238" enable-background="new 0 0 71.094 69.238" xml:space="preserve">
<path d="M47.363,25.098h20.508v1.807c-2.832,0.228-4.924,0.854-6.274,1.88c-1.352,1.025-3.459,4.126-6.323,9.302
	c-2.865,5.176-6.088,10.01-9.668,14.502c2.896,3.386,5.484,5.754,7.764,7.104c2.278,1.352,4.573,2.026,6.885,2.026
	c2.246,0,4.15-0.61,5.713-1.831s2.669-3.019,3.32-5.396l1.807,1.318c-1.205,4.59-3.142,7.976-5.811,10.156
	c-2.67,2.181-5.778,3.271-9.326,3.271c-2.67,0-5.38-0.725-8.13-2.173c-2.751-1.448-5.754-3.897-9.009-7.349
	c-4.037,3.581-7.675,6.063-10.913,7.446c-3.239,1.383-6.698,2.075-10.376,2.075c-5.371,0-9.636-1.433-12.793-4.297
	C1.578,62.077,0,58.659,0,54.688c0-3.938,1.416-7.869,4.248-11.792s8.154-7.983,15.967-12.183c-1.53-3.385-2.572-6.16-3.125-8.325
	c-0.554-2.165-0.83-4.24-0.83-6.226c0-5.566,2.051-9.814,6.152-12.744C25.602,1.14,29.231,0,33.301,0
	c3.873,0,7.031,1.147,9.473,3.442s3.662,5.119,3.662,8.472c0,3.451-1.181,6.478-3.54,9.082c-2.36,2.604-6.535,5.453-12.524,8.545
	c4.134,7.357,8.447,14.096,12.939,20.215c5.729-6.836,8.594-12.598,8.594-17.285c0-1.497-0.488-2.832-1.465-4.004
	c-0.717-0.879-1.742-1.399-3.076-1.563V25.098z M36.279,56.885c-4.297-5.859-7.275-10.14-8.936-12.842
	c-1.66-2.701-3.483-6.055-5.469-10.059c-3.906,2.246-6.845,4.721-8.813,7.422c-1.97,2.702-2.954,5.632-2.954,8.789
	c0,3.483,1.123,6.543,3.369,9.18s5.273,3.955,9.082,3.955c2.051,0,4.028-0.406,5.933-1.221
	C30.396,61.296,32.991,59.555,36.279,56.885z M28.711,26.367c4.036-1.92,7.056-4.102,9.058-6.543s3.003-5.159,3.003-8.154
	c0-2.344-0.725-4.28-2.173-5.811c-1.449-1.53-3.247-2.295-5.396-2.295c-2.832,0-4.973,0.985-6.421,2.954
	c-1.449,1.97-2.173,3.898-2.173,5.786c0,1.595,0.276,3.377,0.83,5.347C25.992,19.621,27.083,22.526,28.711,26.367z"/>
</svg>
