<?xml version="1.0" encoding="utf-8"?>
<!-- Generator: Adobe Illustrator 14.0.0, SVG Export Plug-In . SVG Version: 6.00 Build 43363)  -->
<!DOCTYPE svg PUBLIC "-//W3C//DTD SVG 1.1//EN" "http://www.w3.org/Graphics/SVG/1.1/DTD/svg11.dtd">
<svg version="1.1" id="图层_1" xmlns="http://www.w3.org/2000/svg" xmlns:xlink="http://www.w3.org/1999/xlink" x="0px" y="0px"
	 width="52.002px" height="37.451px" viewBox="0 0 52.002 37.451" enable-background="new 0 0 52.002 37.451" xml:space="preserve">
<path d="M49.902,0.098h2.1c-0.098,4.102-1.278,7.349-3.54,9.741c-2.263,2.393-5.021,3.589-8.276,3.589
	c-1.498,0-3.093-0.244-4.785-0.732c-1.693-0.488-6.169-2.213-13.428-5.176c-5.078-2.083-8.676-3.125-10.791-3.125
	c-2.279,0-4.208,0.708-5.786,2.124C3.816,7.935,2.718,10.205,2.1,13.33H0c0.13-2.897,0.675-5.298,1.636-7.202
	c0.96-1.904,2.359-3.401,4.199-4.492C7.674,0.545,9.505,0,11.328,0c1.399,0,2.848,0.212,4.346,0.635
	c3.385,0.977,8.121,2.767,14.209,5.371c3.157,1.367,5.696,2.312,7.617,2.832c0.977,0.261,2.066,0.391,3.271,0.391
	c2.441,0,4.492-0.781,6.152-2.344S49.576,3.06,49.902,0.098z M49.902,24.072h2.1c-0.098,4.135-1.278,7.397-3.54,9.79
	c-2.263,2.393-5.021,3.589-8.276,3.589c-1.498,0-3.939-0.504-7.324-1.514l-10.889-4.443c-5.078-2.051-8.676-3.076-10.791-3.076
	c-2.279,0-4.208,0.708-5.786,2.124c-1.579,1.416-2.678,3.687-3.296,6.812H0c0.13-2.896,0.667-5.298,1.611-7.202
	c0.943-1.904,2.335-3.409,4.175-4.517c1.839-1.106,3.67-1.66,5.493-1.66c1.399,0,2.848,0.212,4.346,0.635
	c3.418,1.01,8.17,2.816,14.258,5.42c3.189,1.367,5.729,2.295,7.617,2.783c0.977,0.261,2.066,0.391,3.271,0.391
	c2.441,0,4.492-0.773,6.152-2.319S49.576,27.067,49.902,24.072z"/>
</svg>
