<?xml version="1.0" encoding="utf-8"?>
<!-- Generator: Adobe Illustrator 14.0.0, SVG Export Plug-In . SVG Version: 6.00 Build 43363)  -->
<!DOCTYPE svg PUBLIC "-//W3C//DTD SVG 1.1//EN" "http://www.w3.org/Graphics/SVG/1.1/DTD/svg11.dtd">
<svg version="1.1" id="图层_1" xmlns="http://www.w3.org/2000/svg" xmlns:xlink="http://www.w3.org/1999/xlink" x="0px" y="0px"
	 width="248.291px" height="47.412px" viewBox="0 0 248.291 47.412" enable-background="new 0 0 248.291 47.412"
	 xml:space="preserve">
<g>
	<path d="M24.902,39.6c-4.59,3.548-7.471,5.599-8.643,6.152c-1.758,0.813-3.63,1.221-5.615,1.221c-3.093,0-5.64-1.058-7.642-3.174
		C1.001,41.683,0,38.9,0,35.449c0-2.181,0.488-4.069,1.465-5.664c1.334-2.213,3.654-4.297,6.958-6.25
		c3.304-1.953,8.797-4.329,16.479-7.129v-1.758c0-4.459-0.708-7.52-2.124-9.18s-3.475-2.49-6.177-2.49
		c-2.051,0-3.679,0.554-4.883,1.66c-1.237,1.107-1.855,2.376-1.855,3.809l0.098,2.832c0,1.498-0.383,2.653-1.147,3.467
		c-0.765,0.814-1.766,1.221-3.003,1.221c-1.205,0-2.189-0.423-2.954-1.27c-0.765-0.846-1.147-2.002-1.147-3.467
		c0-2.799,1.432-5.371,4.297-7.715C8.87,1.172,12.891,0,18.066,0c3.971,0,7.227,0.667,9.766,2.002
		c1.92,1.009,3.336,2.588,4.248,4.736c0.586,1.4,0.879,4.265,0.879,8.594v15.186c0,4.265,0.081,6.877,0.244,7.837
		c0.162,0.96,0.431,1.604,0.806,1.929c0.374,0.326,0.806,0.488,1.294,0.488c0.521,0,0.977-0.114,1.367-0.342
		c0.684-0.423,2.002-1.611,3.955-3.564V39.6c-3.646,4.883-7.129,7.324-10.449,7.324c-1.595,0-2.865-0.554-3.809-1.66
		C25.423,44.157,24.935,42.269,24.902,39.6z M24.902,36.426V19.385c-4.916,1.953-8.089,3.337-9.521,4.15
		c-2.572,1.433-4.411,2.93-5.518,4.492c-1.107,1.563-1.66,3.271-1.66,5.127c0,2.344,0.7,4.289,2.1,5.835
		c1.399,1.546,3.011,2.319,4.834,2.319C17.61,41.309,20.866,39.681,24.902,36.426z"/>
	<path d="M57.031,0v10.059C60.774,3.353,64.615,0,68.555,0c1.79,0,3.271,0.545,4.443,1.636c1.172,1.091,1.758,2.352,1.758,3.784
		c0,1.27-0.424,2.344-1.27,3.223c-0.847,0.879-1.855,1.318-3.027,1.318c-1.14,0-2.417-0.562-3.833-1.685s-2.466-1.685-3.149-1.685
		c-0.586,0-1.221,0.326-1.904,0.977c-1.465,1.335-2.979,3.532-4.541,6.592v21.436c0,2.474,0.309,4.346,0.928,5.615
		c0.423,0.879,1.172,1.611,2.246,2.197s2.62,0.879,4.639,0.879v1.758h-22.9v-1.758c2.278,0,3.971-0.358,5.078-1.074
		c0.813-0.521,1.383-1.351,1.709-2.49c0.162-0.553,0.244-2.132,0.244-4.736V18.652c0-5.208-0.106-8.309-0.317-9.302
		c-0.212-0.993-0.603-1.717-1.172-2.173c-0.57-0.456-1.278-0.684-2.124-0.684c-1.01,0-2.148,0.244-3.418,0.732l-0.488-1.758L54.98,0
		H57.031z"/>
	<path d="M115.234,29.053c-1.205,5.892-3.564,10.425-7.08,13.599s-7.406,4.761-11.67,4.761c-5.078,0-9.506-2.132-13.281-6.396
		c-3.776-4.264-5.664-10.026-5.664-17.285c0-7.031,2.091-12.744,6.274-17.139C87.996,2.197,93.018,0,98.877,0
		c4.395,0,8.008,1.164,10.84,3.491c2.832,2.328,4.248,4.745,4.248,7.251c0,1.237-0.399,2.238-1.196,3.003
		c-0.798,0.765-1.913,1.147-3.345,1.147c-1.921,0-3.369-0.618-4.346-1.855c-0.554-0.684-0.92-1.985-1.099-3.906
		c-0.18-1.92-0.839-3.385-1.978-4.395c-1.14-0.977-2.719-1.465-4.736-1.465c-3.256,0-5.876,1.205-7.861,3.613
		c-2.637,3.19-3.955,7.406-3.955,12.646c0,5.339,1.31,10.051,3.931,14.136c2.62,4.085,6.16,6.128,10.62,6.128
		c3.189,0,6.055-1.09,8.594-3.271c1.79-1.497,3.531-4.215,5.225-8.154L115.234,29.053z"/>
	<path d="M159.619,29.053c-1.205,5.892-3.564,10.425-7.08,13.599s-7.406,4.761-11.67,4.761c-5.078,0-9.506-2.132-13.281-6.396
		c-3.776-4.264-5.664-10.026-5.664-17.285c0-7.031,2.091-12.744,6.274-17.139C132.381,2.197,137.402,0,143.262,0
		c4.395,0,8.008,1.164,10.84,3.491c2.832,2.328,4.248,4.745,4.248,7.251c0,1.237-0.399,2.238-1.196,3.003
		c-0.798,0.765-1.913,1.147-3.345,1.147c-1.921,0-3.369-0.618-4.346-1.855c-0.554-0.684-0.92-1.985-1.099-3.906
		c-0.18-1.92-0.839-3.385-1.978-4.395c-1.14-0.977-2.719-1.465-4.736-1.465c-3.256,0-5.876,1.205-7.861,3.613
		c-2.637,3.19-3.955,7.406-3.955,12.646c0,5.339,1.31,10.051,3.931,14.136c2.62,4.085,6.16,6.128,10.62,6.128
		c3.189,0,6.055-1.09,8.594-3.271c1.79-1.497,3.531-4.215,5.225-8.154L159.619,29.053z"/>
	<path d="M187.891,0c6.771,0,12.207,2.572,16.309,7.715c3.482,4.395,5.225,9.44,5.225,15.137c0,4.004-0.961,8.057-2.881,12.158
		c-1.921,4.102-4.565,7.194-7.935,9.277s-7.121,3.125-11.255,3.125c-6.738,0-12.094-2.686-16.064-8.057
		c-3.354-4.524-5.029-9.603-5.029-15.234c0-4.102,1.017-8.179,3.052-12.231c2.034-4.053,4.712-7.047,8.032-8.984
		C180.664,0.969,184.18,0,187.891,0z M186.377,3.174c-1.726,0-3.459,0.513-5.2,1.538c-1.742,1.025-3.149,2.824-4.224,5.396
		c-1.074,2.572-1.611,5.876-1.611,9.912c0,6.511,1.294,12.126,3.882,16.846c2.588,4.72,5.997,7.08,10.229,7.08
		c3.157,0,5.762-1.302,7.813-3.906c2.051-2.604,3.076-7.08,3.076-13.428c0-7.942-1.709-14.192-5.127-18.75
		C192.903,4.736,189.957,3.174,186.377,3.174z"/>
	<path d="M244.922,0v15.234h-1.611c-1.237-4.785-2.824-8.04-4.761-9.766c-1.938-1.725-4.403-2.588-7.397-2.588
		c-2.279,0-4.118,0.603-5.518,1.807c-1.4,1.205-2.1,2.539-2.1,4.004c0,1.823,0.521,3.386,1.563,4.688
		c1.009,1.335,3.06,2.751,6.152,4.248l7.129,3.467c6.607,3.223,9.912,7.471,9.912,12.744c0,4.069-1.538,7.349-4.614,9.839
		s-6.519,3.735-10.327,3.735c-2.734,0-5.859-0.488-9.375-1.465c-1.074-0.325-1.953-0.488-2.637-0.488
		c-0.749,0-1.335,0.423-1.758,1.27h-1.611V30.762h1.611c0.911,4.558,2.652,7.992,5.225,10.303c2.571,2.312,5.452,3.467,8.643,3.467
		c2.246,0,4.077-0.659,5.493-1.978s2.124-2.905,2.124-4.761c0-2.246-0.79-4.134-2.368-5.664c-1.579-1.53-4.729-3.467-9.448-5.811
		c-4.721-2.344-7.813-4.459-9.277-6.348c-1.465-1.855-2.197-4.199-2.197-7.031c0-3.678,1.261-6.754,3.784-9.229
		C224.08,1.237,227.344,0,231.348,0c1.758,0,3.89,0.375,6.396,1.123c1.66,0.488,2.767,0.732,3.32,0.732
		c0.521,0,0.928-0.114,1.221-0.342c0.293-0.228,0.635-0.732,1.025-1.514H244.922z"/>
</g>
</svg>
