<?xml version="1.0" encoding="utf-8"?>
<!-- Generator: Adobe Illustrator 14.0.0, SVG Export Plug-In . SVG Version: 6.00 Build 43363)  -->
<!DOCTYPE svg PUBLIC "-//W3C//DTD SVG 1.1//EN" "http://www.w3.org/Graphics/SVG/1.1/DTD/svg11.dtd">
<svg version="1.1" id="图层_1" xmlns="http://www.w3.org/2000/svg" xmlns:xlink="http://www.w3.org/1999/xlink" x="0px" y="0px"
	 width="240.234px" height="60.791px" viewBox="0 0 240.234 60.791" enable-background="new 0 0 240.234 60.791"
	 xml:space="preserve">
<g>
	<path d="M24.902,52.979c-4.59,3.548-7.471,5.599-8.643,6.152c-1.758,0.813-3.63,1.221-5.615,1.221c-3.093,0-5.64-1.058-7.642-3.174
		C1.001,55.062,0,52.279,0,48.828c0-2.181,0.488-4.069,1.465-5.664c1.334-2.213,3.654-4.297,6.958-6.25
		c3.304-1.953,8.797-4.329,16.479-7.129v-1.758c0-4.459-0.708-7.52-2.124-9.18s-3.475-2.49-6.177-2.49
		c-2.051,0-3.679,0.554-4.883,1.66c-1.237,1.107-1.855,2.376-1.855,3.809l0.098,2.832c0,1.498-0.383,2.653-1.147,3.467
		c-0.765,0.814-1.766,1.221-3.003,1.221c-1.205,0-2.189-0.423-2.954-1.27c-0.765-0.846-1.147-2.002-1.147-3.467
		c0-2.799,1.432-5.371,4.297-7.715c2.864-2.344,6.885-3.516,12.061-3.516c3.971,0,7.227,0.667,9.766,2.002
		c1.92,1.009,3.336,2.588,4.248,4.736c0.585,1.4,0.878,4.265,0.878,8.594v15.186c0,4.265,0.081,6.877,0.244,7.837
		c0.163,0.96,0.432,1.604,0.807,1.929c0.373,0.326,0.805,0.488,1.293,0.488c0.521,0,0.977-0.114,1.367-0.342
		c0.684-0.423,2.002-1.611,3.955-3.564v2.734c-3.646,4.883-7.129,7.324-10.449,7.324c-1.595,0-2.865-0.554-3.809-1.66
		C25.423,57.536,24.935,55.648,24.902,52.979z M24.902,49.805V32.764c-4.916,1.953-8.089,3.337-9.521,4.15
		c-2.572,1.433-4.411,2.93-5.518,4.492c-1.107,1.563-1.66,3.271-1.66,5.127c0,2.344,0.7,4.289,2.1,5.835
		c1.399,1.546,3.011,2.319,4.834,2.319C17.61,54.688,20.866,53.06,24.902,49.805z"/>
	<path d="M57.031,13.379v10.059c3.743-6.706,7.584-10.059,11.523-10.059c1.79,0,3.271,0.545,4.443,1.636
		c1.172,1.091,1.758,2.352,1.758,3.784c0,1.27-0.424,2.344-1.27,3.223c-0.847,0.879-1.855,1.318-3.027,1.318
		c-1.14,0-2.417-0.562-3.833-1.685s-2.466-1.685-3.149-1.685c-0.586,0-1.221,0.326-1.904,0.977
		c-1.465,1.335-2.979,3.532-4.541,6.592v21.436c0,2.474,0.309,4.346,0.928,5.615c0.423,0.879,1.172,1.611,2.246,2.197
		s2.62,0.879,4.639,0.879v1.758h-22.9v-1.758c2.278,0,3.971-0.358,5.078-1.074c0.813-0.521,1.383-1.351,1.709-2.49
		c0.162-0.553,0.244-2.132,0.244-4.736V32.031c0-5.208-0.106-8.309-0.317-9.302c-0.212-0.993-0.603-1.717-1.172-2.173
		c-0.57-0.456-1.278-0.684-2.124-0.684c-1.01,0-2.148,0.244-3.418,0.732l-0.488-1.758l13.525-5.469H57.031z"/>
	<path d="M115.234,42.432c-1.205,5.892-3.564,10.425-7.08,13.599s-7.406,4.761-11.67,4.761c-5.078,0-9.506-2.132-13.281-6.396
		c-3.776-4.264-5.664-10.026-5.664-17.285c0-7.031,2.091-12.744,6.274-17.139c4.183-4.395,9.204-6.592,15.063-6.592
		c4.395,0,8.008,1.164,10.84,3.491c2.832,2.328,4.248,4.745,4.248,7.251c0,1.237-0.399,2.238-1.196,3.003
		c-0.798,0.765-1.913,1.147-3.345,1.147c-1.921,0-3.369-0.618-4.346-1.855c-0.554-0.684-0.92-1.985-1.099-3.906
		c-0.18-1.92-0.839-3.385-1.978-4.395c-1.14-0.977-2.719-1.465-4.736-1.465c-3.256,0-5.876,1.205-7.861,3.613
		c-2.637,3.19-3.955,7.406-3.955,12.646c0,5.339,1.31,10.051,3.931,14.136c2.62,4.085,6.16,6.128,10.62,6.128
		c3.189,0,6.055-1.09,8.594-3.271c1.79-1.497,3.531-4.215,5.225-8.154L115.234,42.432z"/>
	<path d="M134.619,0v14.697h10.449v3.418h-10.449v29.004c0,2.897,0.415,4.851,1.245,5.859c0.83,1.009,1.896,1.514,3.198,1.514
		c1.074,0,2.115-0.333,3.125-1.001c1.009-0.667,1.79-1.652,2.344-2.954h1.904c-1.14,3.19-2.751,5.591-4.834,7.202
		c-2.084,1.611-4.232,2.417-6.445,2.417c-1.498,0-2.963-0.415-4.395-1.245c-1.433-0.83-2.49-2.018-3.174-3.564
		c-0.684-1.546-1.025-3.931-1.025-7.153V18.115h-7.08v-1.611c1.79-0.716,3.621-1.929,5.493-3.638
		c1.871-1.709,3.54-3.735,5.005-6.079c0.748-1.237,1.79-3.499,3.125-6.787H134.619z"/>
	<path d="M174.755,52.979c-4.59,3.548-7.471,5.599-8.643,6.152c-1.758,0.813-3.63,1.221-5.615,1.221
		c-3.093,0-5.64-1.058-7.642-3.174c-2.002-2.116-3.003-4.899-3.003-8.35c0-2.181,0.488-4.069,1.465-5.664
		c1.334-2.213,3.653-4.297,6.958-6.25c3.304-1.953,8.797-4.329,16.479-7.129v-1.758c0-4.459-0.708-7.52-2.124-9.18
		s-3.476-2.49-6.177-2.49c-2.051,0-3.679,0.554-4.883,1.66c-1.237,1.107-1.855,2.376-1.855,3.809l0.098,2.832
		c0,1.498-0.383,2.653-1.147,3.467c-0.766,0.814-1.767,1.221-3.003,1.221c-1.205,0-2.189-0.423-2.954-1.27
		c-0.766-0.846-1.147-2.002-1.147-3.467c0-2.799,1.432-5.371,4.297-7.715c2.864-2.344,6.885-3.516,12.061-3.516
		c3.971,0,7.227,0.667,9.766,2.002c1.92,1.009,3.336,2.588,4.248,4.736c0.586,1.4,0.879,4.265,0.879,8.594v15.186
		c0,4.265,0.081,6.877,0.244,7.837c0.162,0.96,0.431,1.604,0.806,1.929c0.374,0.326,0.806,0.488,1.294,0.488
		c0.521,0,0.977-0.114,1.367-0.342c0.684-0.423,2.002-1.611,3.955-3.564v2.734c-3.646,4.883-7.129,7.324-10.449,7.324
		c-1.596,0-2.865-0.554-3.809-1.66C175.276,57.536,174.788,55.648,174.755,52.979z M174.755,49.805V32.764
		c-4.916,1.953-8.09,3.337-9.521,4.15c-2.572,1.433-4.411,2.93-5.518,4.492c-1.107,1.563-1.66,3.271-1.66,5.127
		c0,2.344,0.699,4.289,2.1,5.835c1.399,1.546,3.011,2.319,4.834,2.319C167.463,54.688,170.718,53.06,174.755,49.805z"/>
	<path d="M206.835,22.852c5.24-6.315,10.237-9.473,14.99-9.473c2.441,0,4.541,0.61,6.299,1.831s3.157,3.231,4.199,6.03
		c0.716,1.953,1.074,4.948,1.074,8.984v19.092c0,2.832,0.228,4.753,0.684,5.762c0.357,0.814,0.936,1.449,1.733,1.904
		c0.797,0.456,2.271,0.684,4.419,0.684v1.758h-22.119v-1.758h0.928c2.083,0,3.54-0.317,4.37-0.952s1.407-1.57,1.733-2.808
		c0.13-0.488,0.195-2.018,0.195-4.59V31.006c0-4.069-0.529-7.023-1.587-8.862c-1.059-1.839-2.841-2.759-5.347-2.759
		c-3.874,0-7.731,2.116-11.572,6.348v23.584c0,3.027,0.179,4.899,0.537,5.615c0.455,0.944,1.082,1.636,1.88,2.075
		c0.797,0.439,2.417,0.659,4.858,0.659v1.758h-22.119v-1.758h0.977c2.278,0,3.816-0.578,4.614-1.733
		c0.797-1.155,1.196-3.361,1.196-6.616V32.715c0-5.371-0.122-8.643-0.366-9.814s-0.619-1.969-1.123-2.393
		c-0.505-0.423-1.181-0.635-2.026-0.635c-0.912,0-2.002,0.244-3.271,0.732l-0.732-1.758l13.477-5.469h2.1V22.852z"/>
</g>
</svg>
