<?xml version="1.0" encoding="utf-8"?>
<!-- Generator: Adobe Illustrator 14.0.0, SVG Export Plug-In . SVG Version: 6.00 Build 43363)  -->
<!DOCTYPE svg PUBLIC "-//W3C//DTD SVG 1.1//EN" "http://www.w3.org/Graphics/SVG/1.1/DTD/svg11.dtd">
<svg version="1.1" id="图层_1" xmlns="http://www.w3.org/2000/svg" xmlns:xlink="http://www.w3.org/1999/xlink" x="0px" y="0px"
	 width="44.287px" height="70.605px" viewBox="0 0 44.287 70.605" enable-background="new 0 0 44.287 70.605" xml:space="preserve">
<g>
	<path d="M26.221,0l-9.619,33.74c3.125-3.255,5.851-5.484,8.179-6.689c2.327-1.204,4.761-1.807,7.3-1.807
		c3.58,0,6.51,1.188,8.789,3.564c2.278,2.377,3.418,5.6,3.418,9.668c0,5.241-1.498,10.457-4.492,15.649
		C36.8,59.318,33.04,63.363,28.516,66.26c-4.525,2.897-8.984,4.346-13.379,4.346c-4.916,0-9.961-1.839-15.137-5.518l14.844-51.123
		c1.139-3.938,1.709-6.25,1.709-6.934c0-0.846-0.261-1.48-0.781-1.904c-0.749-0.586-1.855-0.879-3.32-0.879
		c-0.684,0-1.726,0.114-3.125,0.342V2.734L26.221,0z M7.324,65.625c3.255,1.791,6.12,2.686,8.594,2.686
		c2.864,0,5.835-1.05,8.911-3.149s5.745-5.64,8.008-10.62c2.262-4.98,3.394-10.01,3.394-15.088c0-2.994-0.741-5.338-2.222-7.031
		c-1.481-1.692-3.231-2.539-5.249-2.539c-3.027,0-5.99,1.213-8.887,3.638c-2.897,2.425-4.964,5.803-6.201,10.132L7.324,65.625z"/>
</g>
</svg>
