<?xml version="1.0" encoding="utf-8"?>
<!-- Generator: Adobe Illustrator 14.0.0, SVG Export Plug-In . SVG Version: 6.00 Build 43363)  -->
<!DOCTYPE svg PUBLIC "-//W3C//DTD SVG 1.1//EN" "http://www.w3.org/Graphics/SVG/1.1/DTD/svg11.dtd">
<svg version="1.1" id="图层_1" xmlns="http://www.w3.org/2000/svg" xmlns:xlink="http://www.w3.org/1999/xlink" x="0px" y="0px"
	 width="63.508px" height="65.975px" viewBox="0 0 63.508 65.975" enable-background="new 0 0 63.508 65.975" xml:space="preserve">
<path d="M16.797,10.545c-0.781,3.906-2.734,6.25-5.859,7.031s-5.731,0.263-7.813-1.563C1.037,14.195,0,11.851,0,8.982
	C0,6.12,1.367,3.648,4.102,1.561c2.734-2.081,5.725-2.081,8.984,0C16.339,3.648,17.578,6.639,16.797,10.545z M39.844,58.592
	c-0.781,3.906-2.734,6.25-5.859,7.031s-5.731,0.263-7.813-1.563c-2.088-1.818-3.125-4.162-3.125-7.031
	c0-2.862,1.367-5.334,4.102-7.422c2.734-2.081,5.725-2.081,8.984,0C39.386,51.695,40.625,54.686,39.844,58.592z M63.281,10.545
	c-0.781,3.906-2.734,6.25-5.859,7.031s-5.731,0.263-7.813-1.563c-2.088-1.819-3.125-4.163-3.125-7.031
	c0-2.862,1.367-5.334,4.102-7.422c2.734-2.081,5.725-2.081,8.984,0C62.823,3.648,64.063,6.639,63.281,10.545z"/>
</svg>
