<?xml version="1.0" encoding="utf-8"?>
<!-- Generator: Adobe Illustrator 14.0.0, SVG Export Plug-In . SVG Version: 6.00 Build 43363)  -->
<!DOCTYPE svg PUBLIC "-//W3C//DTD SVG 1.1//EN" "http://www.w3.org/Graphics/SVG/1.1/DTD/svg11.dtd">
<svg version="1.1" id="图层_1" xmlns="http://www.w3.org/2000/svg" xmlns:xlink="http://www.w3.org/1999/xlink" x="0px" y="0px"
	 width="57.471px" height="90.82px" viewBox="0 0 57.471 90.82" enable-background="new 0 0 57.471 90.82" xml:space="preserve">
<path d="M7.373,90.82H0c2.441-4.069,4.379-8.594,5.811-13.574l14.697-49.951c2.083-7.063,3.971-12.37,5.664-15.918
	c1.692-3.548,4.004-6.331,6.934-8.35C36.035,1.009,39.534,0,43.604,0c4.068,0,7.397,1.147,9.985,3.442s3.882,5.379,3.882,9.253
	c0,8.562-5.241,14.697-15.723,18.408c6.478,3.125,9.717,7.959,9.717,14.502c0,6.25-2.246,11.979-6.738,17.188
	c-4.492,5.209-10.141,7.813-16.943,7.813c-1.889,0-3.72-0.229-5.493-0.684c-1.774-0.456-3.801-1.66-6.079-3.613
	C13.118,77.734,10.172,85.904,7.373,90.82z M17.578,62.402c2.246,3.776,5.403,5.664,9.473,5.664c4.85,0,8.829-3.043,11.938-9.131
	c3.108-6.087,4.663-11.393,4.663-15.918c0-5.045-1.611-8.708-4.834-10.986c-2.084,0.423-3.598,0.635-4.541,0.635
	c-2.084,0-3.125-0.716-3.125-2.148c0-1.302,0.879-1.953,2.637-1.953s3.613,0.472,5.566,1.416c3.06-1.66,5.655-4.476,7.788-8.447
	c2.132-3.971,3.198-7.845,3.198-11.621c0-2.409-0.595-4.305-1.782-5.688c-1.188-1.383-2.792-2.075-4.81-2.075
	c-2.148,0-4.199,0.854-6.152,2.563s-3.532,4.216-4.736,7.52c-1.205,3.304-3.19,9.563-5.957,18.774L17.578,62.402z"/>
</svg>
