<?xml version="1.0" encoding="utf-8"?>
<!-- Generator: Adobe Illustrator 14.0.0, SVG Export Plug-In . SVG Version: 6.00 Build 43363)  -->
<!DOCTYPE svg PUBLIC "-//W3C//DTD SVG 1.1//EN" "http://www.w3.org/Graphics/SVG/1.1/DTD/svg11.dtd">
<svg version="1.1" id="图层_1" xmlns="http://www.w3.org/2000/svg" xmlns:xlink="http://www.w3.org/1999/xlink" x="0px" y="0px"
	 width="82.016px" height="91.02px" viewBox="0 0 82.016 91.02" enable-background="new 0 0 82.016 91.02" xml:space="preserve">
<path d="M69.656,49.744c0-13.327-2.62-23.181-7.858-29.564c-5.238-6.383-12.182-9.575-20.828-9.575
	c-8.647,0-15.576,3.192-20.79,9.575c-5.214,6.383-7.82,16.237-7.82,29.564V91.02H0V50.05c0-16.633,3.674-29.132,11.024-37.5
	C18.374,4.184,28.354,0,40.969,0c12.614,0,22.609,4.095,29.983,12.283c7.374,8.189,11.063,19.71,11.063,34.562V91.02h-12.36V49.744z
	"/>
</svg>
