<?xml version="1.0" encoding="utf-8"?>
<!-- Generator: Adobe Illustrator 14.0.0, SVG Export Plug-In . SVG Version: 6.00 Build 43363)  -->
<!DOCTYPE svg PUBLIC "-//W3C//DTD SVG 1.1//EN" "http://www.w3.org/Graphics/SVG/1.1/DTD/svg11.dtd">
<svg version="1.1" id="图层_1" xmlns="http://www.w3.org/2000/svg" xmlns:xlink="http://www.w3.org/1999/xlink" x="0px" y="0px"
	 width="82.017px" height="91.02px" viewBox="0 0 82.017 91.02" enable-background="new 0 0 82.017 91.02" xml:space="preserve">
<path d="M69.656,0h12.36v44.176c0,14.852-3.69,26.371-11.063,34.561C63.577,86.924,53.583,91.02,40.97,91.02
	c-12.616,0-22.598-4.184-29.946-12.551C3.675,70.104,0,57.604,0,40.971V0h12.359v41.275c0,13.326,2.606,23.182,7.819,29.563
	c5.212,6.385,12.143,9.576,20.791,9.576c8.646,0,15.589-3.191,20.828-9.576c5.237-6.381,7.858-16.236,7.858-29.563V0z"/>
</svg>
