<?xml version="1.0" encoding="utf-8"?>
<!-- Generator: Adobe Illustrator 14.0.0, SVG Export Plug-In . SVG Version: 6.00 Build 43363)  -->
<!DOCTYPE svg PUBLIC "-//W3C//DTD SVG 1.1//EN" "http://www.w3.org/Graphics/SVG/1.1/DTD/svg11.dtd">
<svg version="1.1" id="图层_1" xmlns="http://www.w3.org/2000/svg" xmlns:xlink="http://www.w3.org/1999/xlink" x="0px" y="0px"
	 width="39.844px" height="45.361px" viewBox="0 0 39.844 45.361" enable-background="new 0 0 39.844 45.361" xml:space="preserve">
<g>
	<path d="M35.889,33.545c-3.386,4.069-6.804,7.056-10.254,8.96c-3.451,1.904-7.097,2.856-10.938,2.856
		c-4.623,0-8.228-1.302-10.815-3.906C1.294,38.852,0,35.352,0,30.957c0-4.98,1.392-9.88,4.175-14.697s6.526-8.731,11.23-11.743
		C20.109,1.506,24.723,0,29.248,0c3.548,0,6.201,0.741,7.959,2.222c1.758,1.481,2.637,3.296,2.637,5.444
		c0,2.019-0.619,3.743-1.855,5.176c-0.912,1.106-2.035,1.66-3.369,1.66c-1.01,0-1.848-0.325-2.515-0.977
		c-0.668-0.651-1.001-1.465-1.001-2.441c0-0.618,0.122-1.188,0.366-1.709s0.748-1.147,1.514-1.88
		c0.765-0.732,1.229-1.262,1.392-1.587c0.162-0.325,0.244-0.667,0.244-1.025c0-0.684-0.31-1.253-0.928-1.709
		c-0.944-0.651-2.279-0.977-4.004-0.977c-3.19,0-6.348,1.123-9.473,3.369s-5.794,5.437-8.008,9.57
		c-2.669,5.013-4.004,10.026-4.004,15.039c0,3.32,0.944,5.949,2.832,7.886c1.888,1.938,4.459,2.905,7.715,2.905
		c2.506,0,4.988-0.626,7.446-1.88c2.457-1.253,5.216-3.523,8.276-6.812L35.889,33.545z"/>
</g>
</svg>
