<?xml version="1.0" encoding="utf-8"?>
<!-- Generator: Adobe Illustrator 14.0.0, SVG Export Plug-In . SVG Version: 6.00 Build 43363)  -->
<!DOCTYPE svg PUBLIC "-//W3C//DTD SVG 1.1//EN" "http://www.w3.org/Graphics/SVG/1.1/DTD/svg11.dtd">
<svg version="1.1" id="图层_1" xmlns="http://www.w3.org/2000/svg" xmlns:xlink="http://www.w3.org/1999/xlink" x="0px" y="0px"
	 width="52.49px" height="58.251px" viewBox="0 0 52.49 58.251" enable-background="new 0 0 52.49 58.251" xml:space="preserve">
<path d="M44.58,31.835c0-8.527-1.677-14.835-5.029-18.92c-3.354-4.085-7.797-6.128-13.33-6.128c-5.534,0-9.97,2.043-13.306,6.128
	C9.578,17,7.91,23.308,7.91,31.835v26.416H0V32.031C0,21.387,2.352,13.387,7.056,8.032C11.759,2.678,18.147,0,26.221,0
	c8.072,0,14.469,2.621,19.189,7.861c4.72,5.241,7.08,12.614,7.08,22.119v28.271h-7.91V31.835z"/>
</svg>
