<?xml version="1.0" encoding="utf-8"?>
<!-- Generator: Adobe Illustrator 14.0.0, SVG Export Plug-In . SVG Version: 6.00 Build 43363)  -->
<!DOCTYPE svg PUBLIC "-//W3C//DTD SVG 1.1//EN" "http://www.w3.org/Graphics/SVG/1.1/DTD/svg11.dtd">
<svg version="1.1" id="图层_1" xmlns="http://www.w3.org/2000/svg" xmlns:xlink="http://www.w3.org/1999/xlink" x="0px" y="0px"
	 width="56.25px" height="65.186px" viewBox="0 0 56.25 65.186" enable-background="new 0 0 56.25 65.186" xml:space="preserve">
<path d="M30.518,34.912c0.195,3.516,0.781,8.017,1.758,13.501s1.889,8.748,2.734,9.79c0.846,1.041,2.115,1.563,3.809,1.563
	c2.994,0,4.639-1.791,4.932-5.371h1.807c-0.229,3.092-1.041,5.664-2.441,7.715s-3.158,3.076-5.273,3.076
	c-2.604,0-4.59-1.408-5.957-4.224c-1.367-2.816-2.539-10.474-3.516-22.974C18.994,51.106,12.793,60.107,9.766,64.99H0
	c2.93-3.418,5.209-6.267,6.836-8.545l20.557-28.369c-0.162-2.864-0.529-6.746-1.098-11.646c-0.57-4.899-1.27-7.967-2.1-9.204
	c-0.83-1.237-1.979-1.855-3.443-1.855s-2.709,0.505-3.734,1.514c-1.025,1.009-1.621,2.36-1.783,4.053h-1.66
	c0.229-3.027,1.123-5.607,2.686-7.739C17.822,1.066,19.662,0,21.777,0c2.148,0,3.891,1.278,5.225,3.833
	c1.334,2.556,2.182,9.644,2.539,21.265L39.746,11.23c2.084-2.832,4.492-6.38,7.227-10.645h9.277
	c-1.596,1.921-3.238,4.053-4.932,6.396L30.518,34.912z"/>
</svg>
