<?xml version="1.0" encoding="utf-8"?>
<!-- Generator: Adobe Illustrator 14.0.0, SVG Export Plug-In . SVG Version: 6.00 Build 43363)  -->
<!DOCTYPE svg PUBLIC "-//W3C//DTD SVG 1.1//EN" "http://www.w3.org/Graphics/SVG/1.1/DTD/svg11.dtd">
<svg version="1.1" id="图层_1" xmlns="http://www.w3.org/2000/svg" xmlns:xlink="http://www.w3.org/1999/xlink" x="0px" y="0px"
	 width="27.246px" height="91.016px" viewBox="0 0 27.246 91.016" enable-background="new 0 0 27.246 91.016" xml:space="preserve">
<path d="M0,1.709V0c5.436,0.716,9.854,2.905,13.257,6.567c3.401,3.662,5.103,7.739,5.103,12.231c0,2.344-0.375,5.062-1.123,8.154
	c-0.749,3.093-1.123,5.501-1.123,7.227c0,2.344,0.984,4.533,2.954,6.567c1.969,2.035,4.695,3.28,8.179,3.735v2.002
	c-3.483,0.456-6.21,1.701-8.179,3.735c-1.97,2.034-2.954,4.224-2.954,6.567c0,1.726,0.374,4.143,1.123,7.251
	c0.748,3.109,1.123,5.835,1.123,8.179c0,4.427-1.701,8.479-5.103,12.158C9.854,88.053,5.436,90.267,0,91.016v-1.709
	c3.809-0.944,6.6-2.441,8.374-4.492c1.773-2.051,2.661-4.33,2.661-6.836c0-1.921-0.375-4.452-1.123-7.593
	c-0.749-3.141-1.123-5.802-1.123-7.983c0-3.32,1.212-6.526,3.638-9.619c2.425-3.092,6.03-5.484,10.815-7.178
	c-4.688-1.725-8.269-4.167-10.742-7.324c-2.475-3.157-3.711-6.38-3.711-9.668c0-2.213,0.374-4.891,1.123-8.032
	c0.748-3.141,1.123-5.672,1.123-7.593c0-2.474-0.888-4.744-2.661-6.812C6.6,4.11,3.809,2.621,0,1.709z"/>
</svg>
