<?xml version="1.0" encoding="utf-8"?>
<!-- Generator: Adobe Illustrator 14.0.0, SVG Export Plug-In . SVG Version: 6.00 Build 43363)  -->
<!DOCTYPE svg PUBLIC "-//W3C//DTD SVG 1.1//EN" "http://www.w3.org/Graphics/SVG/1.1/DTD/svg11.dtd">
<svg version="1.1" id="图层_1" xmlns="http://www.w3.org/2000/svg" xmlns:xlink="http://www.w3.org/1999/xlink" x="0px" y="0px"
	 width="26.953px" height="90.82px" viewBox="0 0 26.953 90.82" enable-background="new 0 0 26.953 90.82" xml:space="preserve">
<path d="M0,2.051V0c4.947,2.441,9.065,5.322,12.354,8.643c4.654,4.753,8.252,10.327,10.791,16.724s3.809,13.062,3.809,19.995
	c0,10.092-2.482,19.296-7.446,27.612C14.542,81.29,8.04,87.239,0,90.82v-1.807c4.004-2.246,7.3-5.282,9.888-9.106
	c2.588-3.825,4.508-8.691,5.762-14.6c1.253-5.908,1.88-12.068,1.88-18.481c0-6.934-0.537-13.265-1.611-18.994
	c-0.814-4.492-1.831-8.089-3.052-10.791c-1.221-2.702-2.841-5.306-4.858-7.813C5.989,6.722,3.32,4.33,0,2.051z"/>
</svg>
