<?xml version="1.0" encoding="utf-8"?>
<!-- Generator: Adobe Illustrator 14.0.0, SVG Export Plug-In . SVG Version: 6.00 Build 43363)  -->
<!DOCTYPE svg PUBLIC "-//W3C//DTD SVG 1.1//EN" "http://www.w3.org/Graphics/SVG/1.1/DTD/svg11.dtd">
<svg version="1.1" id="图层_1" xmlns="http://www.w3.org/2000/svg" xmlns:xlink="http://www.w3.org/1999/xlink" x="0px" y="0px"
	 width="14.551px" height="26.416px" viewBox="0 0 14.551 26.416" enable-background="new 0 0 14.551 26.416" xml:space="preserve">
<path d="M0,26.416v-2.148c3.353-1.107,5.948-2.824,7.788-5.151c1.839-2.328,2.759-4.794,2.759-7.397c0-0.619-0.146-1.14-0.439-1.563
	C9.879,9.863,9.651,9.717,9.424,9.717c-0.358,0-1.14,0.325-2.344,0.977c-0.586,0.293-1.205,0.439-1.855,0.439
	c-1.596,0-2.865-0.473-3.809-1.416C0.472,8.773,0,7.471,0,5.811c0-1.595,0.61-2.962,1.831-4.102C3.052,0.57,4.541,0,6.299,0
	c2.148,0,4.061,0.936,5.737,2.808c1.676,1.872,2.515,4.354,2.515,7.446c0,3.353-1.164,6.47-3.491,9.351
	C8.731,22.485,5.045,24.756,0,26.416z"/>
</svg>
