<?xml version="1.0" encoding="utf-8"?>
<!-- Generator: Adobe Illustrator 14.0.0, SVG Export Plug-In . SVG Version: 6.00 Build 43363)  -->
<!DOCTYPE svg PUBLIC "-//W3C//DTD SVG 1.1//EN" "http://www.w3.org/Graphics/SVG/1.1/DTD/svg11.dtd">
<svg version="1.1" id="图层_1" xmlns="http://www.w3.org/2000/svg" xmlns:xlink="http://www.w3.org/1999/xlink" x="0px" y="0px"
	 width="179.248px" height="70.801px" viewBox="0 0 179.248 70.801" enable-background="new 0 0 179.248 70.801"
	 xml:space="preserve">
<g>
	<path d="M37.695,52.441c-1.205,5.892-3.564,10.425-7.08,13.599s-7.406,4.761-11.67,4.761c-5.078,0-9.505-2.132-13.281-6.396
		C1.888,60.14,0,54.378,0,47.119c0-7.031,2.091-12.744,6.274-17.139c4.183-4.395,9.204-6.592,15.063-6.592
		c4.395,0,8.008,1.164,10.84,3.491c2.832,2.328,4.248,4.745,4.248,7.251c0,1.237-0.399,2.238-1.196,3.003
		c-0.798,0.765-1.913,1.147-3.345,1.147c-1.921,0-3.369-0.618-4.346-1.855c-0.554-0.684-0.92-1.985-1.099-3.906
		c-0.18-1.92-0.839-3.385-1.978-4.395c-1.14-0.977-2.718-1.465-4.736-1.465c-3.255,0-5.876,1.205-7.861,3.613
		C9.229,33.464,7.91,37.679,7.91,42.92c0,5.339,1.31,10.051,3.931,14.136c2.62,4.085,6.16,6.128,10.62,6.128
		c3.189,0,6.055-1.09,8.594-3.271c1.79-1.497,3.531-4.215,5.225-8.154L37.695,52.441z"/>
	<path d="M65.967,23.389c6.771,0,12.207,2.572,16.309,7.715c3.482,4.395,5.225,9.44,5.225,15.137c0,4.004-0.961,8.057-2.881,12.158
		c-1.921,4.102-4.565,7.194-7.935,9.277s-7.121,3.125-11.255,3.125c-6.738,0-12.094-2.686-16.064-8.057
		c-3.354-4.524-5.029-9.603-5.029-15.234c0-4.102,1.017-8.179,3.052-12.231c2.034-4.053,4.712-7.047,8.032-8.984
		C58.74,24.357,62.256,23.389,65.967,23.389z M64.453,26.563c-1.726,0-3.459,0.513-5.2,1.538c-1.742,1.025-3.149,2.824-4.224,5.396
		c-1.074,2.572-1.611,5.876-1.611,9.912c0,6.511,1.294,12.126,3.882,16.846c2.588,4.72,5.997,7.08,10.229,7.08
		c3.157,0,5.762-1.302,7.813-3.906c2.051-2.604,3.076-7.08,3.076-13.428c0-7.942-1.709-14.192-5.127-18.75
		C70.979,28.125,68.033,26.563,64.453,26.563z"/>
	<path d="M122.998,23.389v15.234h-1.611c-1.237-4.785-2.824-8.04-4.761-9.766c-1.938-1.725-4.403-2.588-7.397-2.588
		c-2.279,0-4.118,0.603-5.518,1.807c-1.4,1.205-2.1,2.539-2.1,4.004c0,1.823,0.521,3.386,1.563,4.688
		c1.009,1.335,3.06,2.751,6.152,4.248l7.129,3.467c6.607,3.223,9.912,7.471,9.912,12.744c0,4.069-1.538,7.349-4.614,9.839
		s-6.519,3.735-10.327,3.735c-2.734,0-5.859-0.488-9.375-1.465c-1.074-0.325-1.953-0.488-2.637-0.488
		c-0.749,0-1.335,0.423-1.758,1.27h-1.611V54.15h1.611c0.911,4.558,2.652,7.992,5.225,10.303c2.571,2.312,5.452,3.467,8.643,3.467
		c2.246,0,4.077-0.659,5.493-1.978s2.124-2.905,2.124-4.761c0-2.246-0.79-4.134-2.368-5.664c-1.579-1.53-4.729-3.467-9.448-5.811
		c-4.721-2.344-7.813-4.459-9.277-6.348c-1.465-1.855-2.197-4.199-2.197-7.031c0-3.678,1.261-6.754,3.784-9.229
		c2.522-2.474,5.786-3.711,9.79-3.711c1.758,0,3.89,0.375,6.396,1.123c1.66,0.488,2.767,0.732,3.32,0.732
		c0.521,0,0.928-0.114,1.221-0.342c0.293-0.228,0.635-0.732,1.025-1.514H122.998z"/>
	<path d="M146.143,0v32.715c3.613-3.971,6.478-6.519,8.594-7.642c2.115-1.123,4.231-1.685,6.348-1.685c2.539,0,4.72,0.7,6.543,2.1
		c1.822,1.4,3.174,3.597,4.053,6.592c0.618,2.083,0.928,5.892,0.928,11.426v15.82c0,2.832,0.228,4.769,0.684,5.811
		c0.325,0.781,0.879,1.4,1.66,1.855c0.781,0.456,2.213,0.684,4.297,0.684v1.758h-21.973v-1.758h1.025
		c2.083,0,3.531-0.317,4.346-0.952c0.813-0.635,1.383-1.57,1.709-2.808c0.098-0.521,0.146-2.051,0.146-4.59v-15.82
		c0-4.883-0.253-8.089-0.757-9.619c-0.505-1.53-1.311-2.677-2.417-3.442c-1.107-0.765-2.441-1.147-4.004-1.147
		c-1.596,0-3.256,0.423-4.98,1.27c-1.726,0.847-3.793,2.556-6.201,5.127v23.633c0,3.06,0.171,4.964,0.513,5.713
		c0.342,0.749,0.977,1.375,1.904,1.88c0.928,0.505,2.53,0.757,4.81,0.757v1.758h-22.168v-1.758c1.985,0,3.548-0.309,4.688-0.928
		c0.65-0.325,1.172-0.944,1.563-1.855c0.391-0.911,0.586-2.767,0.586-5.566V18.848c0-5.11-0.122-8.252-0.366-9.424
		s-0.619-1.969-1.123-2.393c-0.505-0.423-1.181-0.635-2.026-0.635c-0.684,0-1.791,0.261-3.32,0.781l-0.684-1.709L143.896,0H146.143z
		"/>
</g>
</svg>
