<?xml version="1.0" encoding="utf-8"?>
<!-- Generator: Adobe Illustrator 14.0.0, SVG Export Plug-In . SVG Version: 6.00 Build 43363)  -->
<!DOCTYPE svg PUBLIC "-//W3C//DTD SVG 1.1//EN" "http://www.w3.org/Graphics/SVG/1.1/DTD/svg11.dtd">
<svg version="1.1" id="图层_1" xmlns="http://www.w3.org/2000/svg" xmlns:xlink="http://www.w3.org/1999/xlink" x="0px" y="0px"
	 width="118.896px" height="60.791px" viewBox="0 0 118.896 60.791" enable-background="new 0 0 118.896 60.791"
	 xml:space="preserve">
<g>
	<path d="M37.695,42.432c-1.205,5.893-3.564,10.425-7.08,13.599s-7.406,4.761-11.67,4.761c-5.078,0-9.506-2.132-13.281-6.396
		C1.888,50.131,0,44.369,0,37.109c0-7.031,2.091-12.744,6.274-17.139c4.183-4.395,9.204-6.592,15.063-6.592
		c4.395,0,8.008,1.164,10.84,3.491c2.832,2.328,4.248,4.745,4.248,7.251c0,1.237-0.399,2.238-1.196,3.003
		c-0.798,0.765-1.913,1.147-3.345,1.147c-1.921,0-3.369-0.618-4.346-1.855c-0.554-0.684-0.92-1.985-1.099-3.906
		c-0.18-1.92-0.839-3.385-1.978-4.395c-1.14-0.977-2.719-1.465-4.736-1.465c-3.256,0-5.876,1.205-7.861,3.613
		C9.229,23.454,7.91,27.669,7.91,32.91c0,5.339,1.31,10.051,3.931,14.136c2.62,4.086,6.16,6.128,10.62,6.128
		c3.189,0,6.055-1.09,8.594-3.271c1.79-1.497,3.531-4.215,5.225-8.154L37.695,42.432z"/>
	<path d="M65.966,13.379c6.771,0,12.207,2.572,16.309,7.715c3.482,4.395,5.225,9.44,5.225,15.137c0,4.004-0.961,8.057-2.881,12.158
		s-4.564,7.194-7.934,9.277s-7.121,3.125-11.256,3.125c-6.738,0-12.094-2.686-16.064-8.057c-3.354-4.524-5.029-9.603-5.029-15.234
		c0-4.102,1.018-8.179,3.053-12.231c2.033-4.053,4.711-7.047,8.031-8.984C58.74,14.348,62.255,13.379,65.966,13.379z M64.453,16.553
		c-1.725,0-3.459,0.513-5.199,1.538c-1.742,1.025-3.15,2.824-4.225,5.396c-1.074,2.572-1.611,5.876-1.611,9.912
		c0,6.511,1.295,12.126,3.883,16.846c2.588,4.721,5.996,7.08,10.229,7.08c3.158,0,5.762-1.302,7.813-3.906
		c2.051-2.604,3.076-7.08,3.076-13.428c0-7.942-1.709-14.192-5.127-18.75C70.98,18.115,68.033,16.553,64.453,16.553z"/>
	<path d="M107.08,0v14.697h10.449v3.418H107.08v29.004c0,2.897,0.416,4.851,1.246,5.859c0.83,1.01,1.895,1.514,3.197,1.514
		c1.074,0,2.115-0.333,3.125-1.001c1.01-0.667,1.791-1.651,2.344-2.954h1.904c-1.139,3.19-2.75,5.591-4.834,7.202
		s-4.232,2.417-6.445,2.417c-1.498,0-2.963-0.415-4.395-1.245s-2.49-2.018-3.174-3.564c-0.684-1.546-1.025-3.931-1.025-7.153V18.115
		h-7.08v-1.611c1.791-0.716,3.621-1.929,5.494-3.638c1.871-1.709,3.539-3.735,5.004-6.079c0.748-1.237,1.791-3.499,3.125-6.787
		H107.08z"/>
</g>
</svg>
