<?xml version="1.0" encoding="utf-8"?>
<!-- Generator: Adobe Illustrator 14.0.0, SVG Export Plug-In . SVG Version: 6.00 Build 43363)  -->
<!DOCTYPE svg PUBLIC "-//W3C//DTD SVG 1.1//EN" "http://www.w3.org/Graphics/SVG/1.1/DTD/svg11.dtd">
<svg version="1.1" id="图层_1" xmlns="http://www.w3.org/2000/svg" xmlns:xlink="http://www.w3.org/1999/xlink" x="0px" y="0px"
	 width="168.116px" height="70.801px" viewBox="0 0 168.116 70.801" enable-background="new 0 0 168.116 70.801"
	 xml:space="preserve">
<g>
	<path d="M37.696,52.441c-1.205,5.893-3.564,10.425-7.08,13.599s-7.406,4.761-11.67,4.761c-5.078,0-9.506-2.132-13.282-6.396
		C1.888,60.141,0,54.378,0,47.119c0-7.031,2.091-12.744,6.274-17.139c4.183-4.395,9.205-6.592,15.064-6.592
		c4.395,0,8.008,1.164,10.84,3.491c2.832,2.328,4.248,4.745,4.248,7.251c0,1.237-0.399,2.238-1.197,3.003
		c-0.798,0.765-1.912,1.147-3.344,1.147c-1.922,0-3.369-0.618-4.346-1.855c-0.555-0.684-0.921-1.985-1.1-3.906
		c-0.179-1.92-0.838-3.385-1.977-4.395c-1.141-0.977-2.719-1.465-4.736-1.465c-3.256,0-5.877,1.205-7.862,3.613
		C9.229,33.464,7.91,37.679,7.91,42.92c0,5.339,1.31,10.051,3.931,14.136c2.62,4.086,6.16,6.128,10.621,6.128
		c3.189,0,6.055-1.09,8.594-3.271c1.789-1.497,3.531-4.215,5.225-8.154L37.696,52.441z"/>
	<path d="M65.967,23.389c6.771,0,12.207,2.572,16.309,7.715c3.482,4.395,5.225,9.44,5.225,15.137c0,4.004-0.961,8.057-2.881,12.158
		c-1.921,4.102-4.565,7.194-7.935,9.277s-7.121,3.125-11.255,3.125c-6.738,0-12.094-2.686-16.064-8.057
		c-3.354-4.524-5.029-9.603-5.029-15.234c0-4.102,1.017-8.179,3.052-12.231c2.034-4.053,4.712-7.047,8.032-8.984
		C58.741,24.357,62.256,23.389,65.967,23.389z M64.454,26.563c-1.726,0-3.459,0.513-5.2,1.538c-1.742,1.025-3.149,2.824-4.224,5.396
		c-1.074,2.572-1.611,5.876-1.611,9.912c0,6.511,1.294,12.126,3.882,16.846c2.588,4.721,5.997,7.08,10.229,7.08
		c3.157,0,5.762-1.302,7.813-3.906c2.051-2.604,3.076-7.08,3.076-13.428c0-7.942-1.709-14.192-5.127-18.75
		C70.98,28.125,68.034,26.563,64.454,26.563z"/>
	<path d="M107.081,10.01v14.697h10.449v3.418h-10.449v29.004c0,2.897,0.415,4.851,1.245,5.859c0.83,1.01,1.896,1.514,3.198,1.514
		c1.074,0,2.115-0.333,3.125-1.001c1.009-0.667,1.79-1.651,2.344-2.954h1.904c-1.14,3.19-2.751,5.591-4.834,7.202
		c-2.084,1.611-4.232,2.417-6.445,2.417c-1.498,0-2.963-0.415-4.395-1.245c-1.433-0.83-2.49-2.018-3.174-3.564
		c-0.684-1.546-1.025-3.931-1.025-7.153V28.125h-7.08v-1.611c1.79-0.716,3.621-1.929,5.493-3.638
		c1.871-1.709,3.54-3.735,5.005-6.079c0.748-1.237,1.79-3.499,3.125-6.787H107.081z"/>
	<path d="M135.01,0v32.715c3.613-3.971,6.478-6.519,8.594-7.642c2.115-1.123,4.231-1.685,6.348-1.685c2.539,0,4.72,0.7,6.543,2.1
		c1.822,1.4,3.174,3.597,4.053,6.592c0.618,2.083,0.928,5.892,0.928,11.426v15.82c0,2.832,0.228,4.77,0.684,5.811
		c0.325,0.781,0.879,1.4,1.66,1.855c0.781,0.456,2.213,0.684,4.297,0.684v1.758h-21.973v-1.758h1.025
		c2.083,0,3.531-0.317,4.346-0.952c0.813-0.635,1.383-1.57,1.709-2.808c0.098-0.521,0.146-2.051,0.146-4.59v-15.82
		c0-4.883-0.253-8.089-0.757-9.619c-0.505-1.53-1.311-2.677-2.417-3.442c-1.107-0.765-2.441-1.147-4.004-1.147
		c-1.596,0-3.256,0.423-4.98,1.27c-1.726,0.847-3.793,2.556-6.201,5.127v23.633c0,3.061,0.171,4.965,0.513,5.713
		c0.342,0.749,0.977,1.376,1.904,1.88c0.928,0.505,2.53,0.757,4.81,0.757v1.758h-22.168v-1.758c1.985,0,3.548-0.309,4.688-0.928
		c0.65-0.325,1.172-0.943,1.563-1.855c0.391-0.911,0.586-2.767,0.586-5.566V18.848c0-5.11-0.122-8.252-0.366-9.424
		s-0.619-1.969-1.123-2.393c-0.505-0.423-1.181-0.635-2.026-0.635c-0.684,0-1.791,0.261-3.32,0.781l-0.684-1.709L132.764,0H135.01z"
		/>
</g>
</svg>
