<?xml version="1.0" encoding="utf-8"?>
<!-- Generator: Adobe Illustrator 14.0.0, SVG Export Plug-In . SVG Version: 6.00 Build 43363)  -->
<!DOCTYPE svg PUBLIC "-//W3C//DTD SVG 1.1//EN" "http://www.w3.org/Graphics/SVG/1.1/DTD/svg11.dtd">
<svg version="1.1" id="图层_1" xmlns="http://www.w3.org/2000/svg" xmlns:xlink="http://www.w3.org/1999/xlink" x="0px" y="0px"
	 width="120.997px" height="47.412px" viewBox="0 0 120.997 47.412" enable-background="new 0 0 120.997 47.412"
	 xml:space="preserve">
<g>
	<path d="M37.696,29.053c-1.205,5.892-3.564,10.425-7.081,13.599c-3.516,3.174-7.406,4.761-11.67,4.761
		c-5.078,0-9.505-2.132-13.281-6.396C1.888,36.751,0,30.99,0,23.73c0-7.031,2.091-12.744,6.274-17.139
		C10.457,2.197,15.479,0,21.338,0c4.395,0,8.008,1.164,10.84,3.491c2.833,2.328,4.249,4.745,4.249,7.251
		c0,1.237-0.399,2.238-1.197,3.003c-0.798,0.765-1.912,1.147-3.344,1.147c-1.921,0-3.369-0.618-4.346-1.855
		c-0.554-0.684-0.92-1.985-1.099-3.906c-0.179-1.92-0.838-3.385-1.978-4.395c-1.14-0.977-2.718-1.465-4.736-1.465
		c-3.255,0-5.876,1.205-7.861,3.613c-2.637,3.19-3.955,7.406-3.955,12.646c0,5.339,1.31,10.051,3.931,14.136
		c2.62,4.085,6.16,6.128,10.62,6.128c3.19,0,6.055-1.09,8.594-3.271c1.79-1.497,3.532-4.215,5.225-8.154L37.696,29.053z"/>
	<path d="M72.999,0v15.234h-1.611c-1.237-4.785-2.824-8.04-4.761-9.766c-1.938-1.725-4.403-2.588-7.397-2.588
		c-2.279,0-4.118,0.603-5.518,1.807c-1.4,1.205-2.1,2.539-2.1,4.004c0,1.823,0.521,3.386,1.563,4.688
		c1.009,1.335,3.06,2.751,6.152,4.248l7.129,3.467c6.607,3.223,9.912,7.471,9.912,12.744c0,4.069-1.538,7.349-4.614,9.839
		s-6.519,3.735-10.327,3.735c-2.734,0-5.859-0.488-9.375-1.465c-1.074-0.325-1.953-0.488-2.637-0.488
		c-0.749,0-1.335,0.424-1.758,1.27h-1.611V30.762h1.611c0.911,4.558,2.652,7.992,5.225,10.303c2.571,2.312,5.452,3.467,8.643,3.467
		c2.246,0,4.077-0.659,5.493-1.978s2.124-2.905,2.124-4.761c0-2.246-0.79-4.134-2.368-5.664c-1.579-1.53-4.729-3.467-9.448-5.811
		c-4.721-2.344-7.813-4.459-9.277-6.348c-1.465-1.855-2.197-4.199-2.197-7.031c0-3.678,1.261-6.754,3.784-9.229
		C52.157,1.237,55.42,0,59.424,0c1.758,0,3.89,0.375,6.396,1.123c1.66,0.488,2.767,0.732,3.32,0.732
		c0.521,0,0.928-0.114,1.221-0.342C70.655,1.286,70.997,0.781,71.387,0H72.999z"/>
	<path d="M120.997,29.053c-1.205,5.892-3.564,10.425-7.08,13.599s-7.406,4.761-11.67,4.761c-5.078,0-9.506-2.132-13.281-6.396
		c-3.776-4.264-5.664-10.026-5.664-17.285c0-7.031,2.091-12.744,6.274-17.139C93.758,2.197,98.78,0,104.639,0
		c4.395,0,8.008,1.164,10.84,3.491c2.832,2.328,4.248,4.745,4.248,7.251c0,1.237-0.399,2.238-1.196,3.003
		c-0.798,0.765-1.913,1.147-3.345,1.147c-1.921,0-3.369-0.618-4.346-1.855c-0.554-0.684-0.92-1.985-1.099-3.906
		c-0.18-1.92-0.839-3.385-1.978-4.395c-1.14-0.977-2.719-1.465-4.736-1.465c-3.256,0-5.876,1.205-7.861,3.613
		c-2.637,3.19-3.955,7.406-3.955,12.646c0,5.339,1.31,10.051,3.931,14.136c2.62,4.085,6.16,6.128,10.62,6.128
		c3.189,0,6.055-1.09,8.594-3.271c1.79-1.497,3.531-4.215,5.225-8.154L120.997,29.053z"/>
</g>
</svg>
