<?xml version="1.0" encoding="utf-8"?>
<!-- Generator: Adobe Illustrator 14.0.0, SVG Export Plug-In . SVG Version: 6.00 Build 43363)  -->
<!DOCTYPE svg PUBLIC "-//W3C//DTD SVG 1.1//EN" "http://www.w3.org/Graphics/SVG/1.1/DTD/svg11.dtd">
<svg version="1.1" id="图层_1" xmlns="http://www.w3.org/2000/svg" xmlns:xlink="http://www.w3.org/1999/xlink" x="0px" y="0px"
	 width="52.49px" height="58.251px" viewBox="0 0 52.49 58.251" enable-background="new 0 0 52.49 58.251" xml:space="preserve">
<path d="M44.58,0h7.91v28.271c0,9.506-2.36,16.879-7.08,22.119c-4.721,5.242-11.117,7.861-19.189,7.861
	c-8.073,0-14.462-2.676-19.165-8.031C2.352,44.865,0,36.865,0,26.22V0h7.91v26.416c0,8.529,1.668,14.836,5.005,18.922
	c3.336,4.086,7.771,6.127,13.306,6.127c5.533,0,9.977-2.041,13.33-6.127c3.353-4.086,5.029-10.393,5.029-18.922V0z"/>
</svg>
