<?xml version="1.0" encoding="utf-8"?>
<!-- Generator: Adobe Illustrator 14.0.0, SVG Export Plug-In . SVG Version: 6.00 Build 43363)  -->
<!DOCTYPE svg PUBLIC "-//W3C//DTD SVG 1.1//EN" "http://www.w3.org/Graphics/SVG/1.1/DTD/svg11.dtd">
<svg version="1.1" id="图层_1" xmlns="http://www.w3.org/2000/svg" xmlns:xlink="http://www.w3.org/1999/xlink" x="0px" y="0px"
	 width="52.197px" height="70.605px" viewBox="0 0 52.197 70.605" enable-background="new 0 0 52.197 70.605" xml:space="preserve">
<g>
	<path d="M52.197,0L35.4,57.617c-0.912,3.125-1.367,5.176-1.367,6.152c0,0.326,0.138,0.635,0.415,0.928
		c0.276,0.293,0.562,0.439,0.854,0.439c0.423,0,0.928-0.211,1.514-0.635c1.106-0.781,2.962-2.734,5.566-5.859l1.66,1.025
		c-2.344,3.256-4.712,5.893-7.104,7.91s-4.631,3.027-6.714,3.027c-1.107,0-2.019-0.391-2.734-1.172
		c-0.717-0.781-1.074-1.888-1.074-3.32c0-1.855,0.488-4.346,1.465-7.471l1.904-6.055c-4.721,7.292-9.017,12.338-12.891,15.137
		c-2.669,1.92-5.225,2.881-7.666,2.881c-2.474,0-4.631-1.099-6.47-3.296C0.919,65.112,0,62.126,0,58.35
		c0-4.85,1.546-10.025,4.639-15.527c3.092-5.501,7.178-9.977,12.256-13.428c4.004-2.767,7.682-4.15,11.035-4.15
		c1.758,0,3.271,0.358,4.541,1.074c1.27,0.717,2.522,1.904,3.76,3.564l4.785-16.992c0.357-1.204,0.65-2.164,0.879-2.881
		c0.391-1.302,0.586-2.376,0.586-3.223c0-0.684-0.244-1.253-0.732-1.709c-0.684-0.553-1.563-0.83-2.637-0.83
		c-0.749,0-1.986,0.114-3.711,0.342V2.783L52.197,0z M34.082,34.668c0-2.083-0.603-3.76-1.807-5.029
		c-1.205-1.27-2.734-1.904-4.59-1.904c-4.102,0-8.374,3.386-12.817,10.156c-4.443,6.771-6.665,13.249-6.665,19.434
		c0,2.441,0.537,4.306,1.611,5.591c1.074,1.286,2.36,1.929,3.857,1.929c3.385,0,7.633-3.662,12.744-10.986
		C31.526,46.533,34.082,40.137,34.082,34.668z"/>
</g>
</svg>
