<?xml version="1.0" encoding="utf-8"?>
<!-- Generator: Adobe Illustrator 14.0.0, SVG Export Plug-In . SVG Version: 6.00 Build 43363)  -->
<!DOCTYPE svg PUBLIC "-//W3C//DTD SVG 1.1//EN" "http://www.w3.org/Graphics/SVG/1.1/DTD/svg11.dtd">
<svg version="1.1" id="图层_1" xmlns="http://www.w3.org/2000/svg" xmlns:xlink="http://www.w3.org/1999/xlink" x="0px" y="0px"
	 width="139.258px" height="91.016px" viewBox="0 0 139.258 91.016" enable-background="new 0 0 139.258 91.016"
	 xml:space="preserve">
<g>
	<path d="M31.396,64.404c-2.181,2.279-4.313,3.915-6.396,4.907c-2.083,0.992-4.33,1.489-6.738,1.489
		c-4.883,0-9.147-2.042-12.793-6.128C1.823,60.588,0,55.339,0,48.926c0-6.413,2.018-12.28,6.055-17.603
		c4.036-5.322,9.229-7.983,15.576-7.983c3.938,0,7.194,1.253,9.766,3.76v-8.252c0-5.11-0.122-8.252-0.366-9.424
		s-0.627-1.969-1.147-2.393c-0.521-0.423-1.172-0.635-1.953-0.635c-0.847,0-1.97,0.261-3.369,0.781l-0.635-1.709L37.256,0h2.197
		v51.709c0,5.241,0.122,8.439,0.366,9.595c0.244,1.156,0.635,1.962,1.172,2.417c0.537,0.456,1.163,0.684,1.88,0.684
		c0.879,0,2.051-0.276,3.516-0.83l0.537,1.709l-13.281,5.518h-2.246V64.404z M31.396,60.986V37.939
		c-0.195-2.213-0.781-4.231-1.758-6.055c-0.977-1.823-2.271-3.198-3.882-4.126s-3.182-1.392-4.712-1.392
		c-2.865,0-5.42,1.286-7.666,3.857c-2.962,3.386-4.443,8.333-4.443,14.844c0,6.576,1.432,11.613,4.297,15.112
		c2.864,3.5,6.055,5.249,9.57,5.249C25.765,65.43,28.629,63.949,31.396,60.986z"/>
	<path d="M57.324,41.553c-0.033,6.641,1.578,11.849,4.834,15.625c3.255,3.776,7.08,5.664,11.475,5.664
		c2.93,0,5.477-0.806,7.642-2.417c2.164-1.611,3.979-4.37,5.444-8.276l1.514,0.977c-0.684,4.46-2.67,8.521-5.957,12.183
		c-3.288,3.662-7.406,5.493-12.354,5.493c-5.371,0-9.97-2.091-13.794-6.274c-3.825-4.183-5.737-9.806-5.737-16.87
		c0-7.649,1.961-13.615,5.884-17.896c3.922-4.28,8.846-6.421,14.771-6.421c5.013,0,9.131,1.652,12.354,4.956
		c3.223,3.304,4.834,7.723,4.834,13.257H57.324z M57.324,38.721h20.703c-0.163-2.864-0.505-4.883-1.025-6.055
		c-0.814-1.823-2.026-3.255-3.638-4.297c-1.611-1.042-3.296-1.563-5.054-1.563c-2.702,0-5.119,1.05-7.251,3.149
		C58.927,32.056,57.682,34.978,57.324,38.721z"/>
	<path d="M106.152,53.125c-2.734-1.334-4.834-3.198-6.299-5.591s-2.197-5.037-2.197-7.935c0-4.427,1.668-8.235,5.005-11.426
		c3.336-3.19,7.608-4.785,12.817-4.785c4.264,0,7.959,1.042,11.084,3.125h9.473c1.399,0,2.213,0.041,2.441,0.122
		c0.228,0.082,0.391,0.22,0.488,0.415c0.195,0.293,0.293,0.814,0.293,1.563c0,0.847-0.082,1.433-0.244,1.758
		c-0.098,0.163-0.269,0.293-0.513,0.391s-1.066,0.146-2.466,0.146h-5.811c1.822,2.344,2.734,5.339,2.734,8.984
		c0,4.167-1.596,7.731-4.785,10.693c-3.19,2.962-7.471,4.443-12.842,4.443c-2.214,0-4.477-0.325-6.787-0.977
		c-1.433,1.237-2.401,2.319-2.905,3.247c-0.505,0.928-0.757,1.717-0.757,2.368c0,0.554,0.269,1.091,0.806,1.611
		c0.537,0.521,1.587,0.896,3.149,1.123c0.911,0.13,3.189,0.244,6.836,0.342c6.705,0.163,11.051,0.391,13.037,0.684
		c3.027,0.424,5.444,1.547,7.251,3.369c1.807,1.823,2.71,4.068,2.71,6.738c0,3.678-1.726,7.129-5.176,10.352
		c-5.078,4.752-11.703,7.129-19.873,7.129c-6.283,0-11.589-1.416-15.918-4.248c-2.441-1.628-3.662-3.32-3.662-5.078
		c0-0.781,0.179-1.563,0.537-2.344c0.553-1.205,1.692-2.881,3.418-5.029c0.228-0.293,1.888-2.051,4.98-5.273
		c-1.693-1.009-2.89-1.912-3.589-2.71c-0.7-0.797-1.05-1.7-1.05-2.71c0-1.139,0.464-2.474,1.392-4.004
		C100.659,58.089,102.799,55.925,106.152,53.125z M105.664,69.434c-1.53,1.66-2.686,3.206-3.467,4.639
		c-0.781,1.432-1.172,2.75-1.172,3.955c0,1.563,0.943,2.93,2.832,4.102c3.255,2.018,7.959,3.027,14.111,3.027
		c5.859,0,10.181-1.034,12.964-3.101c2.783-2.067,4.175-4.272,4.175-6.616c0-1.693-0.83-2.897-2.49-3.613
		c-1.693-0.717-5.046-1.14-10.059-1.27C115.234,70.361,109.603,69.986,105.664,69.434z M114.648,25.732
		c-2.409,0-4.428,0.96-6.055,2.881c-1.628,1.921-2.441,4.867-2.441,8.838c0,5.144,1.106,9.131,3.32,11.963
		c1.692,2.148,3.841,3.223,6.445,3.223c2.474,0,4.508-0.928,6.104-2.783c1.595-1.855,2.393-4.769,2.393-8.74
		c0-5.176-1.123-9.229-3.369-12.158C119.385,26.807,117.252,25.732,114.648,25.732z"/>
</g>
</svg>
