<?xml version="1.0" encoding="utf-8"?>
<!-- Generator: Adobe Illustrator 14.0.0, SVG Export Plug-In . SVG Version: 6.00 Build 43363)  -->
<!DOCTYPE svg PUBLIC "-//W3C//DTD SVG 1.1//EN" "http://www.w3.org/Graphics/SVG/1.1/DTD/svg11.dtd">
<svg version="1.1" id="图层_1" xmlns="http://www.w3.org/2000/svg" xmlns:xlink="http://www.w3.org/1999/xlink" x="0px" y="0px"
	 width="43.896px" height="70.605px" viewBox="0 0 43.896 70.605" enable-background="new 0 0 43.896 70.605" xml:space="preserve">
<path d="M29.737,27.734c-0.652-1.009-2.148-2.864-4.492-5.566c-4.07-4.655-6.104-8.643-6.104-11.963c0-3.19,1.057-5.688,3.174-7.495
	C24.431,0.903,27.36,0,31.104,0c3.32,0,6.281,0.716,8.887,2.148c2.604,1.433,3.906,3.125,3.906,5.078
	c0,1.074-0.383,1.945-1.148,2.612c-0.766,0.667-1.668,1.001-2.709,1.001c-1.563,0-2.979-0.993-4.248-2.979
	c-1.629-2.539-2.963-4.085-4.004-4.639c-1.043-0.553-2.133-0.83-3.271-0.83c-1.791,0-3.264,0.562-4.42,1.685
	s-1.732,2.547-1.732,4.272c0,1.4,0.455,2.759,1.367,4.077c0.91,1.318,3.027,3.426,6.348,6.323c3.678,3.223,6.42,6.413,8.227,9.57
	c1.807,3.158,2.711,7.016,2.711,11.572c0,7.487-2.793,14.478-8.375,20.972s-11.742,9.741-18.481,9.741
	c-4.492,0-7.976-1.375-10.449-4.126C1.236,63.729,0,60.124,0,55.664c0-6.348,2.457-12.076,7.373-17.188
	C12.288,33.366,19.743,29.785,29.737,27.734z M30.714,29.59c-5.438,1.042-9.783,3.149-13.037,6.323
	c-3.257,3.174-5.714,6.868-7.374,11.084s-2.49,8.244-2.49,12.085c0,6.12,2.376,9.18,7.129,9.18c5.013,0,9.245-3.58,12.696-10.742
	c3.449-7.161,5.176-13.655,5.176-19.482C32.813,34.88,32.112,32.064,30.714,29.59z"/>
</svg>
