<?xml version="1.0" encoding="utf-8"?>
<!-- Generator: Adobe Illustrator 14.0.0, SVG Export Plug-In . SVG Version: 6.00 Build 43363)  -->
<!DOCTYPE svg PUBLIC "-//W3C//DTD SVG 1.1//EN" "http://www.w3.org/Graphics/SVG/1.1/DTD/svg11.dtd">
<svg version="1.1" id="图层_1" xmlns="http://www.w3.org/2000/svg" xmlns:xlink="http://www.w3.org/1999/xlink" x="0px" y="0px"
	 width="118.994px" height="70.801px" viewBox="0 0 118.994 70.801" enable-background="new 0 0 118.994 70.801"
	 xml:space="preserve">
<g>
	<path d="M31.396,64.404c-2.182,2.279-4.313,3.915-6.396,4.907c-2.084,0.992-4.33,1.489-6.738,1.489
		c-4.883,0-9.147-2.042-12.793-6.128C1.823,60.588,0,55.339,0,48.926s2.018-12.28,6.055-17.603
		c4.036-5.322,9.229-7.983,15.576-7.983c3.938,0,7.193,1.253,9.765,3.76v-8.252c0-5.11-0.121-8.252-0.365-9.424
		s-0.627-1.969-1.148-2.393c-0.521-0.423-1.172-0.635-1.953-0.635c-0.846,0-1.969,0.261-3.369,0.781l-0.635-1.709L37.255,0h2.197
		v51.709c0,5.241,0.123,8.439,0.367,9.595c0.244,1.156,0.635,1.962,1.172,2.417c0.537,0.456,1.162,0.684,1.879,0.684
		c0.879,0,2.051-0.276,3.516-0.83l0.537,1.709l-13.281,5.518h-2.246V64.404z M31.396,60.986V37.939
		c-0.195-2.213-0.781-4.231-1.758-6.055c-0.977-1.823-2.27-3.198-3.881-4.126c-1.611-0.928-3.183-1.392-4.712-1.392
		c-2.865,0-5.42,1.286-7.666,3.857c-2.963,3.386-4.443,8.333-4.443,14.844c0,6.575,1.432,11.613,4.297,15.112
		c2.864,3.5,6.055,5.249,9.57,5.249C25.765,65.43,28.628,63.949,31.396,60.986z"/>
	<path d="M57.324,41.553c-0.033,6.641,1.578,11.849,4.834,15.625s7.08,5.664,11.475,5.664c2.93,0,5.477-0.806,7.643-2.417
		c2.164-1.611,3.979-4.37,5.443-8.276l1.514,0.977c-0.684,4.46-2.67,8.521-5.957,12.183s-7.406,5.493-12.354,5.493
		c-5.371,0-9.969-2.091-13.793-6.274c-3.826-4.183-5.738-9.807-5.738-16.87c0-7.649,1.961-13.615,5.885-17.896
		c3.922-4.28,8.846-6.421,14.77-6.421c5.014,0,9.131,1.652,12.354,4.956c3.223,3.304,4.834,7.723,4.834,13.257H57.324z
		 M57.324,38.721h20.703c-0.162-2.864-0.504-4.883-1.025-6.055c-0.814-1.823-2.025-3.255-3.637-4.297
		c-1.611-1.042-3.297-1.563-5.055-1.563c-2.701,0-5.119,1.05-7.25,3.149C58.927,32.056,57.681,34.978,57.324,38.721z"/>
	<path d="M107.177,10.01v14.697h10.449v3.418h-10.449v29.004c0,2.897,0.416,4.851,1.246,5.859c0.83,1.01,1.895,1.514,3.197,1.514
		c1.074,0,2.115-0.333,3.125-1.001c1.01-0.667,1.791-1.651,2.344-2.954h1.904c-1.139,3.19-2.75,5.591-4.834,7.202
		s-4.232,2.417-6.445,2.417c-1.498,0-2.963-0.415-4.395-1.245s-2.49-2.018-3.174-3.564c-0.684-1.546-1.025-3.931-1.025-7.153V28.125
		h-7.08v-1.611c1.791-0.716,3.621-1.929,5.494-3.638c1.871-1.709,3.539-3.735,5.004-6.079c0.748-1.237,1.791-3.499,3.125-6.787
		H107.177z"/>
</g>
</svg>
