<?xml version="1.0" encoding="utf-8"?>
<!-- Generator: Adobe Illustrator 14.0.0, SVG Export Plug-In . SVG Version: 6.00 Build 43363)  -->
<!DOCTYPE svg PUBLIC "-//W3C//DTD SVG 1.1//EN" "http://www.w3.org/Graphics/SVG/1.1/DTD/svg11.dtd">
<svg version="1.1" id="图层_1" xmlns="http://www.w3.org/2000/svg" xmlns:xlink="http://www.w3.org/1999/xlink" x="0px" y="0px"
	 width="151.807px" height="70.8px" viewBox="0 0 151.807 70.8" enable-background="new 0 0 151.807 70.8" xml:space="preserve">
<g>
	<path d="M31.396,64.404c-2.181,2.279-4.313,3.916-6.396,4.908c-2.083,0.992-4.33,1.488-6.738,1.488
		c-4.883,0-9.147-2.041-12.793-6.127C1.823,60.587,0,55.339,0,48.925c0-6.412,2.018-12.28,6.055-17.602
		c4.036-5.322,9.229-7.983,15.576-7.983c3.938,0,7.194,1.253,9.766,3.76v-8.252c0-5.11-0.122-8.252-0.366-9.424
		s-0.627-1.969-1.147-2.393c-0.521-0.423-1.172-0.635-1.953-0.635c-0.847,0-1.97,0.261-3.369,0.781l-0.635-1.709L37.256,0h2.197
		v51.708c0,5.242,0.122,8.439,0.366,9.596c0.244,1.155,0.635,1.961,1.172,2.416c0.537,0.457,1.163,0.684,1.88,0.684
		c0.879,0,2.051-0.275,3.516-0.83l0.537,1.709L33.643,70.8h-2.246V64.404z M31.396,60.986V37.939
		c-0.195-2.213-0.781-4.231-1.758-6.055c-0.977-1.823-2.271-3.198-3.882-4.126s-3.182-1.392-4.712-1.392
		c-2.865,0-5.42,1.286-7.666,3.857c-2.962,3.386-4.443,8.333-4.443,14.844c0,6.576,1.432,11.613,4.297,15.113
		c2.864,3.499,6.055,5.248,9.57,5.248C25.765,65.429,28.629,63.949,31.396,60.986z"/>
	<path d="M65.235,23.389v35.937c0,2.801,0.203,4.664,0.609,5.592s1.01,1.619,1.807,2.074c0.797,0.457,2.254,0.684,4.371,0.684v1.758
		H50.293v-1.758c2.18,0,3.645-0.211,4.395-0.635c0.748-0.422,1.342-1.123,1.781-2.1s0.66-2.848,0.66-5.615V42.09
		c0-4.85-0.146-7.991-0.439-9.424c-0.229-1.042-0.586-1.766-1.074-2.173c-0.488-0.407-1.156-0.61-2.002-0.61
		c-0.912,0-2.02,0.244-3.32,0.732l-0.684-1.758l13.477-5.469H65.235z M61.182,0c1.367,0,2.529,0.48,3.49,1.44
		c0.961,0.96,1.441,2.124,1.441,3.491s-0.48,2.539-1.441,3.516s-2.123,1.465-3.49,1.465s-2.539-0.488-3.516-1.465
		s-1.465-2.148-1.465-3.516s0.479-2.531,1.439-3.491C58.602,0.48,59.782,0,61.182,0z"/>
	<path d="M90.87,32.91c3.254-3.255,5.176-5.127,5.762-5.615c1.465-1.237,3.043-2.197,4.736-2.881
		c1.691-0.684,3.369-1.025,5.029-1.025c2.799,0,5.207,0.814,7.227,2.441c2.018,1.628,3.369,3.988,4.053,7.08
		c3.352-3.906,6.184-6.47,8.496-7.69c2.311-1.221,4.688-1.831,7.129-1.831c2.375,0,4.482,0.61,6.322,1.831s3.297,3.215,4.371,5.981
		c0.715,1.888,1.074,4.851,1.074,8.887v19.238c0,2.801,0.211,4.721,0.635,5.762c0.324,0.717,0.928,1.327,1.807,1.832
		c0.879,0.504,2.311,0.756,4.297,0.756v1.758h-22.07v-1.758h0.928c1.92,0,3.418-0.373,4.492-1.123c0.748-0.52,1.285-1.35,1.611-2.49
		c0.129-0.553,0.195-2.131,0.195-4.736V40.088c0-3.646-0.439-6.217-1.318-7.715c-1.27-2.083-3.305-3.125-6.104-3.125
		c-1.727,0-3.459,0.432-5.201,1.294c-1.742,0.863-3.85,2.466-6.322,4.81l-0.098,0.537l0.098,2.1v21.337
		c0,3.061,0.17,4.965,0.512,5.713c0.342,0.75,0.984,1.376,1.93,1.881c0.943,0.504,2.555,0.756,4.834,0.756v1.758h-22.607v-1.758
		c2.473,0,4.174-0.293,5.102-0.879s1.57-1.465,1.93-2.637c0.162-0.553,0.244-2.164,0.244-4.834V40.088
		c0-3.646-0.537-6.266-1.611-7.861c-1.434-2.083-3.436-3.125-6.006-3.125c-1.758,0-3.5,0.472-5.225,1.416
		c-2.703,1.433-4.785,3.044-6.25,4.834v23.974c0,2.93,0.203,4.834,0.609,5.713s1.01,1.539,1.807,1.979s2.418,0.658,4.859,0.658
		v1.758H76.026v-1.758c2.051,0,3.482-0.219,4.297-0.658c0.813-0.439,1.432-1.14,1.855-2.1c0.422-0.961,0.635-2.824,0.635-5.592
		V42.236c0-4.915-0.146-8.089-0.439-9.521c-0.229-1.074-0.586-1.814-1.074-2.222c-0.488-0.407-1.156-0.61-2.002-0.61
		c-0.912,0-2.002,0.244-3.271,0.732l-0.732-1.758l13.477-5.469h2.1V32.91z"/>
</g>
</svg>
