<?xml version="1.0" encoding="utf-8"?>
<!-- Generator: Adobe Illustrator 14.0.0, SVG Export Plug-In . SVG Version: 6.00 Build 43363)  -->
<!DOCTYPE svg PUBLIC "-//W3C//DTD SVG 1.1//EN" "http://www.w3.org/Graphics/SVG/1.1/DTD/svg11.dtd">
<svg version="1.1" id="图层_1" xmlns="http://www.w3.org/2000/svg" xmlns:xlink="http://www.w3.org/1999/xlink" x="0px" y="0px"
	 width="52.637px" height="38.867px" viewBox="0 0 52.637 38.867" enable-background="new 0 0 52.637 38.867" xml:space="preserve">
<path d="M52.637,21.24H0v-4.004h52.637V21.24z M26.318,0c1.172,0,2.173,0.415,3.003,1.245s1.245,1.831,1.245,3.003
	s-0.415,2.173-1.245,3.003s-1.848,1.245-3.052,1.245c-1.172,0-2.173-0.415-3.003-1.245s-1.245-1.831-1.245-3.003
	s0.415-2.173,1.245-3.003S25.113,0,26.318,0z M26.318,30.273c1.204,0,2.222,0.424,3.052,1.27c0.83,0.847,1.245,1.855,1.245,3.027
	s-0.424,2.182-1.27,3.027c-0.847,0.847-1.855,1.27-3.027,1.27s-2.182-0.423-3.027-1.27c-0.847-0.846-1.27-1.855-1.27-3.027
	s0.415-2.181,1.245-3.027C24.097,30.697,25.113,30.273,26.318,30.273z"/>
</svg>
