<?xml version="1.0" encoding="utf-8"?>
<!-- Generator: Adobe Illustrator 14.0.0, SVG Export Plug-In . SVG Version: 6.00 Build 43363)  -->
<!DOCTYPE svg PUBLIC "-//W3C//DTD SVG 1.1//EN" "http://www.w3.org/Graphics/SVG/1.1/DTD/svg11.dtd">
<svg version="1.1" id="图层_1" xmlns="http://www.w3.org/2000/svg" xmlns:xlink="http://www.w3.org/1999/xlink" x="0px" y="0px"
	 width="39.697px" height="79.395px" viewBox="0 0 39.697 79.395" enable-background="new 0 0 39.697 79.395" xml:space="preserve">
<path d="M0,55.469h2.148c0.357,4.46,1.758,7.878,4.199,10.254c2.441,2.377,6.087,3.793,10.938,4.248V41.455
	C9.961,36.931,5.078,32.927,2.637,29.443c-1.726-2.474-2.588-5.485-2.588-9.033c0-4.004,1.489-7.503,4.468-10.498
	c2.979-2.995,7.234-4.801,12.769-5.42V0h3.125v4.492c2.669,0.163,4.915,0.472,6.738,0.928c0.943,0.228,4.068,1.351,9.375,3.369v14.6
	h-1.904c-0.424-5.176-1.767-8.96-4.028-11.353C28.328,9.644,24.935,8.22,20.41,7.764v24.805c8.203,5.729,13.468,9.953,15.796,12.671
	c2.327,2.718,3.491,6.096,3.491,10.132c0,4.492-1.701,8.447-5.103,11.865c-3.402,3.418-8.13,5.387-14.185,5.908v6.25h-3.125v-6.25
	c-3.061-0.131-5.908-0.48-8.545-1.05S3.189,70.59,0,69.287V55.469z M17.285,30.518V7.813c-3.256,0.391-5.673,1.424-7.251,3.101
	c-1.579,1.677-2.368,3.784-2.368,6.323c0,2.376,0.716,4.598,2.148,6.665C11.246,25.969,13.736,28.174,17.285,30.518z M20.41,69.971
	c2.441-0.423,4.313-1.025,5.615-1.807c1.822-1.139,3.263-2.628,4.321-4.468c1.058-1.839,1.587-3.8,1.587-5.884
	c0-2.148-0.644-4.183-1.929-6.104c-1.286-1.92-4.484-4.639-9.595-8.154V69.971z"/>
</svg>
