<?xml version="1.0" encoding="utf-8"?>
<!-- Generator: Adobe Illustrator 14.0.0, SVG Export Plug-In . SVG Version: 6.00 Build 43363)  -->
<!DOCTYPE svg PUBLIC "-//W3C//DTD SVG 1.1//EN" "http://www.w3.org/Graphics/SVG/1.1/DTD/svg11.dtd">
<svg version="1.1" id="图层_1" xmlns="http://www.w3.org/2000/svg" xmlns:xlink="http://www.w3.org/1999/xlink" x="0px" y="0px"
	 width="27.686px" height="28.516px" viewBox="0 0 27.686 28.516" enable-background="new 0 0 27.686 28.516" xml:space="preserve">
<path d="M3.76,28.516L1.074,14.063C0.357,10.091,0,7.39,0,5.957C0,3.874,0.431,2.36,1.294,1.416C2.156,0.472,3.32,0,4.785,0
	c1.432,0,2.62,0.48,3.564,1.44c0.943,0.96,1.416,2.238,1.416,3.833c0,1.27-0.424,4.216-1.27,8.838L5.859,28.516H3.76z
	 M21.631,28.516l-2.637-14.258L17.92,8.35c-0.065-0.813-0.098-1.627-0.098-2.441c0-2.051,0.455-3.548,1.367-4.492
	C20.101,0.472,21.305,0,22.803,0c1.399,0,2.563,0.472,3.491,1.416c0.928,0.944,1.392,2.214,1.392,3.809
	c0,2.767-0.31,5.762-0.928,8.984l-2.783,14.307H21.631z"/>
</svg>
