<?xml version="1.0" encoding="utf-8"?>
<!-- Generator: Adobe Illustrator 14.0.0, SVG Export Plug-In . SVG Version: 6.00 Build 43363)  -->
<!DOCTYPE svg PUBLIC "-//W3C//DTD SVG 1.1//EN" "http://www.w3.org/Graphics/SVG/1.1/DTD/svg11.dtd">
<svg version="1.1" id="图层_1" xmlns="http://www.w3.org/2000/svg" xmlns:xlink="http://www.w3.org/1999/xlink" x="0px" y="0px"
	 width="39.893px" height="45.361px" viewBox="0 0 39.893 45.361" enable-background="new 0 0 39.893 45.361" xml:space="preserve">
<g>
	<path d="M8.789,25.781c-0.228,1.628-0.342,2.979-0.342,4.053c0,2.897,1.025,5.363,3.076,7.397c2.051,2.035,4.541,3.052,7.471,3.052
		c2.344,0,4.598-0.479,6.763-1.44c2.164-0.96,5.379-3.084,9.644-6.372l1.025,1.416c-7.715,7.65-15.072,11.475-22.07,11.475
		c-4.753,0-8.333-1.497-10.742-4.492C1.204,37.875,0,34.57,0,30.957c0-4.851,1.497-9.814,4.492-14.893
		c2.995-5.078,6.754-9.024,11.279-11.841C20.296,1.408,24.951,0,29.736,0c3.45,0,6.006,0.7,7.666,2.1s2.49,3.06,2.49,4.98
		c0,2.702-1.074,5.29-3.223,7.764c-2.832,3.223-6.999,5.827-12.5,7.813C20.524,23.991,15.397,25.032,8.789,25.781z M9.131,23.389
		c4.817-0.554,8.74-1.497,11.768-2.832c4.004-1.79,7.007-3.931,9.009-6.421s3.003-4.858,3.003-7.104c0-1.367-0.432-2.474-1.294-3.32
		c-0.863-0.847-2.092-1.27-3.687-1.27c-3.32,0-6.844,1.767-10.571,5.298C13.631,11.271,10.889,16.487,9.131,23.389z"/>
</g>
</svg>
