<?xml version="1.0" encoding="utf-8"?>
<!-- Generator: Adobe Illustrator 14.0.0, SVG Export Plug-In . SVG Version: 6.00 Build 43363)  -->
<!DOCTYPE svg PUBLIC "-//W3C//DTD SVG 1.1//EN" "http://www.w3.org/Graphics/SVG/1.1/DTD/svg11.dtd">
<svg version="1.1" id="图层_1" xmlns="http://www.w3.org/2000/svg" xmlns:xlink="http://www.w3.org/1999/xlink" x="0px" y="0px"
	 width="50.879px" height="79.443px" viewBox="0 0 50.879 79.443" enable-background="new 0 0 50.879 79.443" xml:space="preserve">
<path d="M44.043,0l-4.639,11.621c3.743,2.441,6.592,6.071,8.545,10.889c1.953,4.818,2.93,10.563,2.93,17.236
	c0,6.512-0.969,12.166-2.905,16.969c-1.938,4.801-4.834,8.488-8.691,11.059c-3.857,2.572-8.554,3.857-14.087,3.857
	c-3.32,0-6.332-0.473-9.033-1.416L12.5,79.443H6.836l4.59-11.523c-3.711-2.441-6.543-6.055-8.496-10.84S0,46.517,0,39.746
	c0-6.51,0.968-12.166,2.905-16.967c1.937-4.801,4.834-8.488,8.691-11.06c3.857-2.571,8.553-3.857,14.087-3.857
	c3.353,0,6.348,0.472,8.984,1.416L38.379,0H44.043z M14.355,60.498l17.676-44.531c-2.116-0.879-4.395-1.318-6.836-1.318
	c-5.6,0-9.831,2.116-12.695,6.348c-2.865,4.232-4.297,10.482-4.297,18.75C8.203,49.349,10.254,56.267,14.355,60.498z M36.475,19.043
	L18.799,63.525c2.018,0.879,4.297,1.318,6.836,1.318c5.599,0,9.839-2.123,12.72-6.371s4.321-10.49,4.321-18.727
	C42.676,30.208,40.608,23.308,36.475,19.043z"/>
</svg>
