<?xml version="1.0" encoding="utf-8"?>
<!-- Generator: Adobe Illustrator 14.0.0, SVG Export Plug-In . SVG Version: 6.00 Build 43363)  -->
<!DOCTYPE svg PUBLIC "-//W3C//DTD SVG 1.1//EN" "http://www.w3.org/Graphics/SVG/1.1/DTD/svg11.dtd">
<svg version="1.1" id="图层_1" xmlns="http://www.w3.org/2000/svg" xmlns:xlink="http://www.w3.org/1999/xlink" x="0px" y="0px"
	 width="41.309px" height="44.189px" viewBox="0 0 41.309 44.189" enable-background="new 0 0 41.309 44.189" xml:space="preserve">
<path d="M41.31,0l-0.537,2.441h-9.863c-4.754,0-9.229,2.051-13.428,6.152c-3.613,3.548-6.104,7.503-7.471,11.865h16.016L25.343,22.9
	H9.229c-0.684,2.246-1.025,4.477-1.025,6.689c0,8.105,3.336,12.158,10.01,12.158h11.182l-0.732,2.441H15.382
	c-10.254,0-15.381-4.378-15.381-13.135c0-8.365,2.969-15.633,8.91-21.802C14.853,3.084,22.005,0,30.372,0H41.31z"/>
</svg>
