<?xml version="1.0" encoding="utf-8"?>
<!-- Generator: Adobe Illustrator 14.0.0, SVG Export Plug-In . SVG Version: 6.00 Build 43363)  -->
<!DOCTYPE svg PUBLIC "-//W3C//DTD SVG 1.1//EN" "http://www.w3.org/Graphics/SVG/1.1/DTD/svg11.dtd">
<svg version="1.1" id="图层_1" xmlns="http://www.w3.org/2000/svg" xmlns:xlink="http://www.w3.org/1999/xlink" x="0px" y="0px"
	 width="42.578px" height="65.576px" viewBox="0 0 42.578 65.576" enable-background="new 0 0 42.578 65.576" xml:space="preserve">
<path d="M1.856,11.328L0.685,9.912C6.575,3.304,11.036,0,14.063,0c2.896,0,4.346,1.611,4.346,4.834c0,0.944-0.424,2.816-1.27,5.615
	l-3.516,12.109c5.533-8.333,10.049-14.176,13.549-17.529C30.671,1.677,33.935,0,36.962,0c3.744,0,5.615,2.1,5.615,6.299
	c0,1.433-0.357,3.467-1.074,6.104l-8.838,32.08c-2.115,7.682-3.174,13.77-3.174,18.262c0,0.911,0.049,1.855,0.146,2.832h-7.225
	c-0.195-1.303-0.293-2.507-0.293-3.613c0-4.297,1.041-10.173,3.125-17.627l8.738-31.445c0.553-1.985,0.83-3.483,0.83-4.492
	c0-1.855-0.748-2.783-2.246-2.783c-2.115,0-5.467,2.759-10.057,8.276s-8.74,12.622-12.451,21.313l-2.783,8.984H0.001l10.156-34.57
	c0.324-1.074,0.488-1.872,0.488-2.393c0-1.302-0.488-1.953-1.465-1.953C7.976,5.273,5.534,7.292,1.856,11.328z"/>
</svg>
