<?xml version="1.0" encoding="utf-8"?>
<!-- Generator: Adobe Illustrator 14.0.0, SVG Export Plug-In . SVG Version: 6.00 Build 43363)  -->
<!DOCTYPE svg PUBLIC "-//W3C//DTD SVG 1.1//EN" "http://www.w3.org/Graphics/SVG/1.1/DTD/svg11.dtd">
<svg version="1.1" id="图层_1" xmlns="http://www.w3.org/2000/svg" xmlns:xlink="http://www.w3.org/1999/xlink" x="0px" y="0px"
	 width="11.035px" height="69.092px" viewBox="0 0 11.035 69.092" enable-background="new 0 0 11.035 69.092" xml:space="preserve">
<path d="M6.445,50.195H4.59L0.293,10.645C0.098,8.919,0,7.634,0,6.787c0-2.051,0.545-3.694,1.636-4.932C2.726,0.619,4.036,0,5.566,0
	C7.096,0,8.39,0.619,9.448,1.855c1.058,1.237,1.587,3.076,1.587,5.518c0,0.781-0.065,1.872-0.195,3.271L6.445,50.195z M5.469,58.301
	c1.497,0,2.774,0.529,3.833,1.587c1.058,1.059,1.587,2.319,1.587,3.784c0,1.498-0.529,2.775-1.587,3.833
	c-1.059,1.058-2.336,1.587-3.833,1.587c-1.498,0-2.775-0.529-3.833-1.587c-1.059-1.058-1.587-2.335-1.587-3.833
	c0-1.465,0.528-2.726,1.587-3.784C2.693,58.83,3.971,58.301,5.469,58.301z"/>
</svg>
