<?xml version="1.0" encoding="utf-8"?>
<!-- Generator: Adobe Illustrator 14.0.0, SVG Export Plug-In . SVG Version: 6.00 Build 43363)  -->
<!DOCTYPE svg PUBLIC "-//W3C//DTD SVG 1.1//EN" "http://www.w3.org/Graphics/SVG/1.1/DTD/svg11.dtd">
<svg version="1.1" id="图层_1" xmlns="http://www.w3.org/2000/svg" xmlns:xlink="http://www.w3.org/1999/xlink" x="0px" y="0px"
	 width="137.256px" height="67.48px" viewBox="0 0 137.256 67.48" enable-background="new 0 0 137.256 67.48" xml:space="preserve">
<g>
	<path d="M6.934,18.213c-0.033,6.641,1.579,11.85,4.834,15.625c3.255,3.776,7.081,5.664,11.475,5.664
		c2.93,0,5.476-0.806,7.641-2.417s3.98-4.37,5.445-8.276l1.514,0.977c-0.684,4.46-2.67,8.521-5.957,12.183
		c-3.289,3.662-7.406,5.493-12.354,5.493c-5.372,0-9.97-2.091-13.794-6.274C1.912,37.004,0,31.381,0,24.316
		c0-7.649,1.961-13.615,5.884-17.896C9.806,2.141,14.729,0,20.655,0c5.012,0,9.131,1.652,12.354,4.956
		c3.223,3.304,4.834,7.723,4.834,13.257H6.934z M6.934,15.381h20.704c-0.164-2.864-0.506-4.883-1.025-6.055
		c-0.814-1.823-2.027-3.255-3.639-4.297c-1.611-1.042-3.295-1.563-5.053-1.563c-2.703,0-5.12,1.05-7.251,3.149
		C8.537,8.716,7.292,11.638,6.934,15.381z"/>
	<path d="M41.993,1.367h21.045v1.807c-1.335,0-2.271,0.228-2.808,0.684c-0.537,0.456-0.806,1.058-0.806,1.807
		c0,0.781,0.569,1.986,1.709,3.613c0.357,0.521,0.895,1.335,1.611,2.441l3.174,5.078l3.662-5.078
		c2.344-3.223,3.516-5.257,3.516-6.104c0-0.684-0.277-1.261-0.83-1.733c-0.554-0.472-1.449-0.708-2.686-0.708V1.367h15.137v1.807
		c-1.596,0.098-2.979,0.537-4.15,1.318c-1.596,1.107-3.776,3.516-6.543,7.227l-6.104,8.154l11.133,16.016
		c2.734,3.939,4.688,6.308,5.859,7.104c1.172,0.798,2.686,1.245,4.541,1.343v1.758H68.36v-1.758c1.465,0,2.604-0.325,3.418-0.977
		c0.618-0.455,0.928-1.058,0.928-1.807c0-0.748-1.042-2.637-3.125-5.664l-6.543-9.57l-7.178,9.57
		c-2.214,2.963-3.32,4.721-3.32,5.273c0,0.781,0.366,1.489,1.099,2.124s1.831,0.985,3.296,1.05v1.758h-14.6v-1.758
		c1.172-0.162,2.197-0.569,3.076-1.221c1.236-0.943,3.32-3.353,6.25-7.227l9.375-12.451L52.54,11.133
		c-2.409-3.516-4.272-5.721-5.591-6.616c-1.318-0.895-2.971-1.343-4.956-1.343V1.367z"/>
	<path d="M90.577,5.811l13.77-5.566h1.855v10.449c2.311-3.938,4.63-6.697,6.958-8.276c2.327-1.579,4.776-2.368,7.349-2.368
		c4.492,0,8.235,1.758,11.23,5.273c3.678,4.297,5.518,9.896,5.518,16.797c0,7.715-2.214,14.096-6.641,19.141
		c-3.646,4.135-8.236,6.201-13.77,6.201c-2.409,0-4.492-0.342-6.25-1.025c-1.303-0.488-2.768-1.465-4.395-2.93v13.623
		c0,3.06,0.187,5.005,0.562,5.835c0.374,0.83,1.025,1.489,1.953,1.978s2.612,0.732,5.054,0.732v1.807H90.333v-1.807h1.221
		c1.79,0.032,3.32-0.31,4.59-1.025c0.618-0.358,1.099-0.937,1.44-1.733c0.342-0.798,0.513-2.824,0.513-6.079V14.551
		c0-2.897-0.131-4.736-0.391-5.518c-0.261-0.781-0.676-1.367-1.245-1.758c-0.57-0.391-1.343-0.586-2.319-0.586
		c-0.781,0-1.774,0.228-2.979,0.684L90.577,5.811z M106.202,13.574v16.699c0,3.613,0.146,5.99,0.439,7.129
		c0.455,1.889,1.57,3.549,3.345,4.98c1.773,1.433,4.012,2.148,6.714,2.148c3.255,0,5.892-1.27,7.91-3.809
		c2.637-3.32,3.955-7.991,3.955-14.014c0-6.836-1.498-12.093-4.492-15.771c-2.084-2.539-4.558-3.809-7.422-3.809
		c-1.563,0-3.109,0.391-4.639,1.172C110.84,8.887,108.903,10.645,106.202,13.574z"/>
</g>
</svg>
