<?xml version="1.0" encoding="utf-8"?>
<!-- Generator: Adobe Illustrator 14.0.0, SVG Export Plug-In . SVG Version: 6.00 Build 43363)  -->
<!DOCTYPE svg PUBLIC "-//W3C//DTD SVG 1.1//EN" "http://www.w3.org/Graphics/SVG/1.1/DTD/svg11.dtd">
<svg version="1.1" id="图层_1" xmlns="http://www.w3.org/2000/svg" xmlns:xlink="http://www.w3.org/1999/xlink" x="0px" y="0px"
	 width="64.551px" height="91.016px" viewBox="-32.275 50 64.551 91.016" enable-background="new -32.275 50 64.551 91.016"
	 xml:space="preserve">
<g>
	<path d="M14.795,76.416l-0.879,3.223H6.787l-5.371,21.338c-2.376,9.408-4.77,16.685-7.179,21.826
		c-3.418,7.259-7.097,12.271-11.034,15.039c-2.995,2.115-5.989,3.174-8.984,3.174c-1.953,0-3.613-0.586-4.98-1.758
		c-1.009-0.814-1.514-1.872-1.514-3.174c0-1.042,0.415-1.945,1.245-2.71c0.83-0.767,1.848-1.147,3.052-1.147
		c0.879,0,1.62,0.276,2.223,0.83c0.603,0.553,0.902,1.188,0.902,1.904s-0.342,1.383-1.024,2.002
		c-0.521,0.455-0.781,0.797-0.781,1.024c0,0.294,0.114,0.521,0.342,0.685c0.293,0.228,0.749,0.342,1.367,0.342
		c1.4,0,2.873-0.438,4.419-1.318c1.546-0.879,2.922-2.188,4.126-3.931c1.205-1.742,2.344-4.257,3.418-7.544
		c0.456-1.367,1.676-5.876,3.662-13.525l8.496-33.057h-8.496l0.684-3.223c2.702,0,4.591-0.188,5.664-0.563
		c1.074-0.374,2.06-1.091,2.954-2.147c0.896-1.059,2.06-3.035,3.491-5.934c1.921-3.905,3.761-6.934,5.519-9.082
		c2.408-2.896,4.938-5.069,7.593-6.519C19.229,50.725,21.729,50,24.072,50c2.474,0,4.459,0.627,5.957,1.88
		c1.496,1.253,2.246,2.612,2.246,4.077c0,1.14-0.375,2.1-1.123,2.881c-0.75,0.781-1.709,1.172-2.881,1.172
		c-1.01,0-1.832-0.293-2.467-0.879s-0.951-1.285-0.951-2.1c0-0.521,0.211-1.164,0.635-1.93c0.423-0.765,0.635-1.276,0.635-1.538
		c0-0.455-0.146-0.797-0.439-1.024c-0.424-0.325-1.041-0.488-1.854-0.488c-2.052,0-3.892,0.651-5.519,1.953
		c-2.182,1.726-4.135,4.428-5.858,8.104c-0.879,1.921-2.49,6.689-4.834,14.308H14.795z"/>
</g>
</svg>
