<?xml version="1.0" encoding="utf-8"?>
<!-- Generator: Adobe Illustrator 14.0.0, SVG Export Plug-In . SVG Version: 6.00 Build 43363)  -->
<!DOCTYPE svg PUBLIC "-//W3C//DTD SVG 1.1//EN" "http://www.w3.org/Graphics/SVG/1.1/DTD/svg11.dtd">
<svg version="1.1" id="图层_1" xmlns="http://www.w3.org/2000/svg" xmlns:xlink="http://www.w3.org/1999/xlink" x="0px" y="0px"
	 width="141.65px" height="91.015px" viewBox="0 0 141.65 91.015" enable-background="new 0 0 141.65 91.015" xml:space="preserve">
<g>
	<path d="M12.109,53.125c-2.734-1.334-4.834-3.198-6.299-5.591S3.613,42.497,3.613,39.6c0-4.427,1.668-8.235,5.005-11.426
		c3.336-3.19,7.609-4.785,12.817-4.785c4.264,0,7.959,1.042,11.084,3.125h9.473c1.399,0,2.213,0.041,2.441,0.122
		c0.228,0.082,0.391,0.22,0.488,0.415c0.195,0.293,0.293,0.814,0.293,1.563c0,0.847-0.082,1.433-0.244,1.758
		c-0.098,0.163-0.269,0.293-0.513,0.391s-1.066,0.146-2.466,0.146h-5.811c1.822,2.344,2.734,5.339,2.734,8.984
		c0,4.167-1.596,7.731-4.785,10.693c-3.19,2.962-7.471,4.443-12.842,4.443c-2.214,0-4.476-0.325-6.787-0.977
		c-1.433,1.237-2.401,2.319-2.905,3.247c-0.505,0.928-0.757,1.717-0.757,2.368c0,0.554,0.269,1.091,0.806,1.611
		c0.537,0.521,1.587,0.896,3.149,1.123c0.911,0.13,3.19,0.244,6.836,0.342c6.705,0.163,11.051,0.391,13.037,0.684
		c3.027,0.423,5.444,1.546,7.251,3.369c1.807,1.823,2.71,4.069,2.71,6.738c0,3.679-1.726,7.129-5.176,10.352
		c-5.078,4.753-11.703,7.129-19.873,7.129c-6.283,0-11.589-1.416-15.918-4.248C1.221,85.139,0,83.447,0,81.689
		c0-0.781,0.179-1.563,0.537-2.344c0.553-1.204,1.692-2.881,3.418-5.029c0.228-0.293,1.888-2.051,4.98-5.273
		c-1.693-1.009-2.889-1.912-3.589-2.71c-0.7-0.797-1.05-1.701-1.05-2.71c0-1.139,0.464-2.474,1.392-4.004
		C6.616,58.089,8.756,55.925,12.109,53.125z M11.621,69.434c-1.53,1.66-2.686,3.206-3.467,4.638s-1.172,2.751-1.172,3.955
		c0,1.563,0.944,2.93,2.832,4.102c3.255,2.019,7.959,3.027,14.111,3.027c5.859,0,10.181-1.033,12.964-3.1
		c2.783-2.068,4.175-4.273,4.175-6.617c0-1.692-0.83-2.897-2.49-3.613c-1.693-0.716-5.046-1.139-10.059-1.269
		C21.191,70.361,15.56,69.987,11.621,69.434z M20.605,25.732c-2.409,0-4.427,0.96-6.055,2.881c-1.628,1.921-2.441,4.867-2.441,8.838
		c0,5.144,1.106,9.131,3.32,11.963c1.692,2.148,3.841,3.223,6.445,3.223c2.474,0,4.508-0.928,6.104-2.783
		c1.595-1.855,2.393-4.769,2.393-8.74c0-5.176-1.123-9.229-3.369-12.158C25.342,26.807,23.209,25.732,20.605,25.732z"/>
	<path d="M88.135,52.441c-1.205,5.892-3.564,10.425-7.08,13.599s-7.406,4.761-11.67,4.761c-5.078,0-9.506-2.132-13.281-6.396
		c-3.776-4.264-5.664-10.026-5.664-17.285c0-7.031,2.091-12.744,6.274-17.139c4.183-4.395,9.204-6.592,15.063-6.592
		c4.395,0,8.008,1.164,10.84,3.491c2.832,2.328,4.248,4.745,4.248,7.251c0,1.237-0.399,2.238-1.196,3.003
		c-0.798,0.765-1.913,1.147-3.345,1.147c-1.921,0-3.369-0.618-4.346-1.855c-0.554-0.684-0.92-1.985-1.099-3.906
		c-0.18-1.92-0.839-3.385-1.978-4.395c-1.14-0.977-2.719-1.465-4.736-1.465c-3.256,0-5.876,1.205-7.861,3.613
		c-2.637,3.19-3.955,7.406-3.955,12.646c0,5.339,1.31,10.051,3.931,14.136c2.62,4.085,6.16,6.128,10.62,6.128
		c3.189,0,6.055-1.09,8.594-3.271c1.79-1.497,3.531-4.215,5.225-8.154L88.135,52.441z"/>
	<path d="M126.123,64.404c-2.182,2.279-4.313,3.915-6.396,4.907c-2.084,0.993-4.33,1.489-6.738,1.489
		c-4.883,0-9.147-2.042-12.793-6.128c-3.646-4.085-5.469-9.334-5.469-15.747c0-6.413,2.018-12.28,6.055-17.603
		c4.036-5.322,9.229-7.983,15.576-7.983c3.938,0,7.193,1.253,9.766,3.76v-8.252c0-5.11-0.122-8.252-0.366-9.424
		s-0.627-1.969-1.147-2.393c-0.521-0.423-1.172-0.635-1.953-0.635c-0.847,0-1.97,0.261-3.369,0.781l-0.635-1.709L131.982,0h2.197
		v51.709c0,5.241,0.122,8.439,0.366,9.595c0.244,1.156,0.635,1.961,1.172,2.417c0.537,0.456,1.163,0.684,1.88,0.684
		c0.879,0,2.051-0.276,3.516-0.83l0.537,1.709l-13.281,5.518h-2.246V64.404z M126.123,60.986V37.939
		c-0.195-2.213-0.781-4.231-1.758-6.055c-0.977-1.823-2.271-3.198-3.882-4.126s-3.183-1.392-4.712-1.392
		c-2.865,0-5.42,1.286-7.666,3.857c-2.963,3.386-4.443,8.333-4.443,14.844c0,6.576,1.432,11.613,4.297,15.112
		c2.864,3.5,6.055,5.249,9.57,5.249C120.491,65.43,123.355,63.949,126.123,60.986z"/>
</g>
</svg>
