<?xml version="1.0" encoding="utf-8"?>
<!-- Generator: Adobe Illustrator 14.0.0, SVG Export Plug-In . SVG Version: 6.00 Build 43363)  -->
<!DOCTYPE svg PUBLIC "-//W3C//DTD SVG 1.1//EN" "http://www.w3.org/Graphics/SVG/1.1/DTD/svg11.dtd">
<svg version="1.1" id="图层_1" xmlns="http://www.w3.org/2000/svg" xmlns:xlink="http://www.w3.org/1999/xlink" x="0px" y="0px"
	 width="43.896px" height="70.605px" viewBox="0 0 43.896 70.605" enable-background="new 0 0 43.896 70.605" xml:space="preserve">
<g>
	<path d="M27.343,0L13.623,47.412c5.924-8.919,10.547-14.844,13.867-17.773s6.494-4.395,9.521-4.395
		c1.563,0,2.864,0.537,3.906,1.611c1.041,1.074,1.563,2.507,1.563,4.297c0,2.148-0.456,4.753-1.367,7.813l-5.957,20.459
		c-0.749,2.475-1.123,3.842-1.123,4.102c0,0.456,0.138,0.83,0.415,1.123c0.276,0.293,0.594,0.439,0.952,0.439
		c0.423,0,0.911-0.211,1.465-0.635c1.855-1.432,3.694-3.418,5.518-5.957l1.514,0.928c-1.107,1.726-2.646,3.622-4.614,5.688
		c-1.97,2.067-3.662,3.5-5.078,4.297s-2.678,1.196-3.784,1.196c-1.205,0-2.189-0.383-2.954-1.147
		c-0.766-0.765-1.147-1.749-1.147-2.954c0-1.432,0.569-4.102,1.709-8.008l5.615-19.531c0.716-2.441,1.074-4.361,1.074-5.762
		c0-0.65-0.204-1.172-0.61-1.563c-0.407-0.391-0.937-0.586-1.587-0.586c-0.944,0-2.019,0.358-3.223,1.074
		c-2.214,1.367-4.77,3.906-7.666,7.617c-0.781,1.01-3.386,5.078-7.813,12.207c-1.367,2.279-2.49,4.77-3.369,7.471l-3.125,10.01H0
		l16.064-55.859l1.709-6.055c0-0.846-0.35-1.595-1.05-2.246c-0.7-0.65-1.555-0.977-2.563-0.977c-0.586,0-1.481,0.098-2.686,0.293
		l-1.025,0.146V2.832L27.343,0z"/>
</g>
</svg>
