<?xml version="1.0" encoding="utf-8"?>
<!-- Generator: Adobe Illustrator 14.0.0, SVG Export Plug-In . SVG Version: 6.00 Build 43363)  -->
<!DOCTYPE svg PUBLIC "-//W3C//DTD SVG 1.1//EN" "http://www.w3.org/Graphics/SVG/1.1/DTD/svg11.dtd">
<svg version="1.1" id="图层_1" xmlns="http://www.w3.org/2000/svg" xmlns:xlink="http://www.w3.org/1999/xlink" x="0px" y="0px"
	 width="43.897px" height="70.605px" viewBox="0 0 43.897 70.605" enable-background="new 0 0 43.897 70.605" xml:space="preserve">
<g>
	<path d="M23.584,12.988h14.844l-1.074,4.004H22.413l-8.79,30.42c6.25-9.505,11.059-15.576,14.428-18.213s6.275-3.955,8.717-3.955
		c1.758,0,3.148,0.554,4.174,1.66c1.025,1.107,1.539,2.637,1.539,4.59c0,1.921-0.457,4.411-1.367,7.471l-5.957,20.459
		c-0.717,2.441-1.074,3.842-1.074,4.199c0,0.977,0.406,1.465,1.221,1.465c1.563,0,3.922-2.197,7.08-6.592l1.514,0.928
		c-5.176,7.455-9.668,11.182-13.477,11.182c-1.367,0-2.393-0.439-3.076-1.318s-1.025-1.871-1.025-2.979
		c0-1.334,0.568-3.938,1.709-7.813l5.615-19.531c0.715-2.441,1.074-4.313,1.074-5.615c0-1.53-0.732-2.295-2.197-2.295
		c-2.996,0-7.031,3.508-12.109,10.522c-5.079,7.015-8.48,13.273-10.206,18.774l-2.881,9.082H0l15.137-52.441H6.885l1.074-4.004
		h8.301c0.977-3.418,1.465-5.485,1.465-6.201c0-1.627-1.042-2.441-3.125-2.441c-0.651,0-2.035,0.13-4.15,0.391V2.832L25.879,0h1.465
		L23.584,12.988z"/>
</g>
</svg>
