<?xml version="1.0" encoding="utf-8"?>
<!-- Generator: Adobe Illustrator 14.0.0, SVG Export Plug-In . SVG Version: 6.00 Build 43363)  -->
<!DOCTYPE svg PUBLIC "-//W3C//DTD SVG 1.1//EN" "http://www.w3.org/Graphics/SVG/1.1/DTD/svg11.dtd">
<svg version="1.1" id="图层_1" xmlns="http://www.w3.org/2000/svg" xmlns:xlink="http://www.w3.org/1999/xlink" x="0px" y="0px"
	 width="50px" height="70.605px" viewBox="0 0 50 70.605" enable-background="new 0 0 50 70.605" xml:space="preserve">
<path d="M2.49,20.117l9.57-3.906l0.781-3.467c0.586-2.832,0.879-4.817,0.879-5.957c0-1.367-0.415-2.327-1.245-2.881
	c-0.83-0.553-2.319-0.862-4.468-0.928l0.586-2.539L20.947,0h2.832l-3.125,12.598l12.354-5.322l1.758,3.955l-15.381,6.445
	l-4.004,16.162l0.586,0.195c3.06-4.068,5.973-7.031,8.74-8.886c2.767-1.855,5.582-2.783,8.447-2.783c3.06,0,5.411,0.863,7.056,2.588
	c1.644,1.726,2.466,4.15,2.466,7.275c0,2.051-0.473,4.965-1.416,8.74l-3.174,12.793c-0.879,3.549-1.318,6.055-1.318,7.52
	c0,1.303,0.211,2.246,0.635,2.832c0.423,0.586,1.09,0.879,2.002,0.879c0.977,0,2.018-0.398,3.125-1.195
	c1.106-0.797,2.669-2.32,4.688-4.566L50,61.962c-2.637,2.734-4.655,4.639-6.055,5.713c-1.4,1.074-2.743,1.832-4.028,2.271
	c-1.286,0.439-2.743,0.658-4.37,0.658c-2.116,0-3.809-0.756-5.078-2.27s-1.904-3.443-1.904-5.787c0-2.115,0.537-5.225,1.611-9.326
	l2.148-8.447c0.781-3.059,1.294-5.322,1.538-6.787s0.366-2.652,0.366-3.564c0-2.277-0.383-3.906-1.147-4.883
	c-0.766-0.976-2.011-1.464-3.735-1.464c-1.367,0-2.873,0.554-4.517,1.66c-1.645,1.107-3.361,2.792-5.151,5.055
	c-1.791,2.262-3.215,4.427-4.272,6.494c-1.059,2.066-1.896,4.533-2.515,7.396L8.447,69.824H0l10.938-48.632l-6.689,2.881
	L2.49,20.117z"/>
</svg>
