<?xml version="1.0" encoding="utf-8"?>
<!-- Generator: Adobe Illustrator 14.0.0, SVG Export Plug-In . SVG Version: 6.00 Build 43363)  -->
<!DOCTYPE svg PUBLIC "-//W3C//DTD SVG 1.1//EN" "http://www.w3.org/Graphics/SVG/1.1/DTD/svg11.dtd">
<svg version="1.1" id="图层_1" xmlns="http://www.w3.org/2000/svg" xmlns:xlink="http://www.w3.org/1999/xlink" x="0px" y="0px"
	 width="63.508px" height="65.584px" viewBox="0 0 63.508 65.584" enable-background="new 0 0 63.508 65.584" xml:space="preserve">
<path d="M16.797,58.201c-0.781,3.906-2.734,6.25-5.859,7.031s-5.731,0.263-7.813-1.563C1.037,61.852,0,59.508,0,56.639
	c0-2.862,1.367-5.334,4.102-7.422c2.734-2.081,5.725-2.081,8.984,0C16.339,51.305,17.578,54.295,16.797,58.201z M39.844,10.545
	c-0.781,3.906-2.734,6.25-5.859,7.031s-5.731,0.263-7.813-1.563c-2.088-1.819-3.125-4.163-3.125-7.031
	c0-2.862,1.367-5.334,4.102-7.422c2.734-2.081,5.725-2.081,8.984,0C39.386,3.648,40.625,6.639,39.844,10.545z M63.281,58.201
	c-0.781,3.906-2.734,6.25-5.859,7.031s-5.731,0.263-7.813-1.563c-2.088-1.818-3.125-4.162-3.125-7.031
	c0-2.862,1.367-5.334,4.102-7.422c2.734-2.081,5.725-2.081,8.984,0C62.823,51.305,64.063,54.295,63.281,58.201z"/>
</svg>
