<?xml version="1.0" encoding="utf-8"?>
<!-- Generator: Adobe Illustrator 14.0.0, SVG Export Plug-In . SVG Version: 6.00 Build 43363)  -->
<!DOCTYPE svg PUBLIC "-//W3C//DTD SVG 1.1//EN" "http://www.w3.org/Graphics/SVG/1.1/DTD/svg11.dtd">
<svg version="1.1" id="图层_1" xmlns="http://www.w3.org/2000/svg" xmlns:xlink="http://www.w3.org/1999/xlink" x="0px" y="0px"
	 width="176.709px" height="70.801px" viewBox="0 0 176.709 70.801" enable-background="new 0 0 176.709 70.801"
	 xml:space="preserve">
<g>
	<path d="M15.625,0v32.715c3.613-3.971,6.478-6.519,8.594-7.642c2.115-1.123,4.231-1.685,6.348-1.685c2.539,0,4.72,0.7,6.543,2.1
		c1.822,1.4,3.174,3.597,4.053,6.592c0.618,2.083,0.928,5.892,0.928,11.426v15.82c0,2.832,0.228,4.77,0.684,5.811
		c0.325,0.781,0.879,1.4,1.66,1.855c0.781,0.456,2.213,0.684,4.297,0.684v1.758H26.758v-1.758h1.025
		c2.083,0,3.531-0.317,4.346-0.952c0.813-0.635,1.383-1.57,1.709-2.808c0.098-0.521,0.146-2.051,0.146-4.59v-15.82
		c0-4.883-0.253-8.089-0.757-9.619c-0.505-1.53-1.311-2.677-2.417-3.442c-1.107-0.765-2.441-1.147-4.004-1.147
		c-1.595,0-3.255,0.423-4.98,1.27c-1.726,0.847-3.792,2.556-6.201,5.127v23.633c0,3.06,0.171,4.965,0.513,5.713
		c0.342,0.749,0.977,1.376,1.904,1.88c0.928,0.505,2.531,0.757,4.81,0.757v1.758H0.684v-1.758c1.985,0,3.548-0.309,4.688-0.928
		c0.651-0.325,1.172-0.943,1.563-1.855c0.391-0.911,0.586-2.767,0.586-5.566V18.848c0-5.11-0.122-8.252-0.366-9.424
		S6.535,7.455,6.03,7.031C5.525,6.608,4.85,6.396,4.004,6.396c-0.684,0-1.791,0.261-3.32,0.781L0,5.469L13.379,0H15.625z"/>
	<path d="M74.365,23.389c6.771,0,12.207,2.572,16.309,7.715c3.482,4.395,5.225,9.44,5.225,15.137c0,4.004-0.961,8.057-2.881,12.158
		c-1.921,4.102-4.565,7.194-7.935,9.277s-7.121,3.125-11.255,3.125c-6.738,0-12.094-2.686-16.064-8.057
		c-3.354-4.524-5.029-9.603-5.029-15.234c0-4.102,1.017-8.179,3.052-12.231c2.034-4.053,4.712-7.047,8.032-8.984
		C67.139,24.357,70.654,23.389,74.365,23.389z M72.852,26.563c-1.726,0-3.459,0.513-5.2,1.538c-1.742,1.025-3.149,2.824-4.224,5.396
		c-1.074,2.572-1.611,5.876-1.611,9.912c0,6.511,1.294,12.126,3.882,16.846c2.588,4.721,5.997,7.08,10.229,7.08
		c3.157,0,5.762-1.302,7.813-3.906c2.051-2.604,3.076-7.08,3.076-13.428c0-7.942-1.709-14.192-5.127-18.75
		C79.378,28.125,76.432,26.563,72.852,26.563z"/>
	<path d="M115.771,32.91c3.255-3.255,5.176-5.127,5.762-5.615c1.465-1.237,3.043-2.197,4.736-2.881
		c1.692-0.684,3.369-1.025,5.029-1.025c2.799,0,5.208,0.814,7.227,2.441c2.018,1.628,3.369,3.988,4.053,7.08
		c3.353-3.906,6.185-6.47,8.496-7.69c2.311-1.221,4.688-1.831,7.129-1.831c2.376,0,4.483,0.61,6.323,1.831
		c1.839,1.221,3.296,3.215,4.37,5.981c0.716,1.888,1.074,4.851,1.074,8.887v19.238c0,2.8,0.211,4.721,0.635,5.762
		c0.325,0.717,0.928,1.327,1.807,1.831c0.879,0.505,2.311,0.757,4.297,0.757v1.758h-22.07v-1.758h0.928
		c1.92,0,3.418-0.374,4.492-1.123c0.748-0.521,1.285-1.351,1.611-2.49c0.13-0.553,0.195-2.132,0.195-4.736V40.088
		c0-3.646-0.439-6.217-1.318-7.715c-1.27-2.083-3.305-3.125-6.104-3.125c-1.726,0-3.459,0.432-5.2,1.294
		c-1.742,0.863-3.85,2.466-6.323,4.81l-0.098,0.537l0.098,2.1v21.338c0,3.06,0.171,4.965,0.513,5.713
		c0.342,0.749,0.984,1.376,1.929,1.88c0.943,0.505,2.555,0.757,4.834,0.757v1.758h-22.607v-1.758c2.474,0,4.175-0.293,5.103-0.879
		s1.57-1.465,1.929-2.637c0.162-0.553,0.244-2.165,0.244-4.834V40.088c0-3.646-0.537-6.266-1.611-7.861
		c-1.433-2.083-3.435-3.125-6.006-3.125c-1.758,0-3.5,0.472-5.225,1.416c-2.702,1.433-4.785,3.044-6.25,4.834v23.975
		c0,2.93,0.203,4.834,0.61,5.713c0.406,0.879,1.009,1.538,1.807,1.978c0.797,0.439,2.417,0.659,4.858,0.659v1.758h-22.119v-1.758
		c2.051,0,3.482-0.22,4.297-0.659c0.813-0.439,1.432-1.139,1.855-2.1c0.423-0.96,0.635-2.824,0.635-5.591v-17.09
		c0-4.915-0.146-8.089-0.439-9.521c-0.229-1.074-0.586-1.814-1.074-2.222c-0.488-0.407-1.156-0.61-2.002-0.61
		c-0.912,0-2.002,0.244-3.271,0.732l-0.732-1.758l13.477-5.469h2.1V32.91z"/>
</g>
</svg>
