<?xml version="1.0" encoding="utf-8"?>
<!-- Generator: Adobe Illustrator 14.0.0, SVG Export Plug-In . SVG Version: 6.00 Build 43363)  -->
<!DOCTYPE svg PUBLIC "-//W3C//DTD SVG 1.1//EN" "http://www.w3.org/Graphics/SVG/1.1/DTD/svg11.dtd">
<svg version="1.1" id="图层_1" xmlns="http://www.w3.org/2000/svg" xmlns:xlink="http://www.w3.org/1999/xlink" x="0px" y="0px"
	 width="22.949px" height="64.746px" viewBox="0 0 22.949 64.746" enable-background="new 0 0 22.949 64.746" xml:space="preserve">
<g>
	<path d="M18.701,19.385L9.033,53.613c-0.651,2.312-0.977,3.695-0.977,4.15c0,0.521,0.154,0.944,0.464,1.27
		c0.309,0.326,0.675,0.488,1.099,0.488c0.488,0,1.074-0.26,1.758-0.781c1.855-1.465,3.727-3.548,5.615-6.25l1.709,1.123
		c-2.214,3.386-4.818,6.234-7.813,8.545c-2.214,1.725-4.33,2.588-6.348,2.588c-1.335,0-2.425-0.399-3.271-1.196
		C0.423,62.753,0,61.752,0,60.547c0-1.204,0.407-3.206,1.221-6.006l6.348-21.875c1.042-3.58,1.563-5.826,1.563-6.738
		c0-0.716-0.252-1.302-0.757-1.758c-0.505-0.455-1.196-0.684-2.075-0.684c-0.716,0-2.197,0.18-4.443,0.537v-1.904L18.701,19.385z
		 M18.066,0c1.367,0,2.522,0.473,3.467,1.416c0.943,0.944,1.416,2.1,1.416,3.467c0,1.335-0.48,2.482-1.44,3.442
		c-0.96,0.96-2.108,1.44-3.442,1.44c-1.335,0-2.482-0.48-3.442-1.44c-0.96-0.96-1.44-2.107-1.44-3.442
		c0-1.367,0.472-2.522,1.416-3.467C15.543,0.473,16.699,0,18.066,0z"/>
</g>
</svg>
