<?xml version="1.0" encoding="utf-8"?>
<!-- Generator: Adobe Illustrator 14.0.0, SVG Export Plug-In . SVG Version: 6.00 Build 43363)  -->
<!DOCTYPE svg PUBLIC "-//W3C//DTD SVG 1.1//EN" "http://www.w3.org/Graphics/SVG/1.1/DTD/svg11.dtd">
<svg version="1.1" id="图层_1" xmlns="http://www.w3.org/2000/svg" xmlns:xlink="http://www.w3.org/1999/xlink" x="0px" y="0px"
	 width="48.046px" height="57.519px" viewBox="0 0 48.046 57.519" enable-background="new 0 0 48.046 57.519" xml:space="preserve">
<path d="M48.046,25.097v6.787H7.715c0.162,3.027,0.602,5.713,1.318,8.057c0.715,2.344,1.798,4.338,3.246,5.982
	c1.449,1.645,3.32,2.855,5.615,3.637s5.461,1.172,9.497,1.172h20.654v6.787h-20.85c-3.19,0-5.956-0.195-8.3-0.586
	s-4.461-1.025-6.348-1.904c-1.889-0.879-3.671-2.205-5.348-3.979c-1.676-1.773-3.035-3.736-4.076-5.885
	c-1.043-2.148-1.824-4.572-2.344-7.275C0.26,35.189,0,32.259,0,29.101c0-5.143,0.504-9.399,1.514-12.768
	c1.008-3.369,2.701-6.364,5.078-8.984c2.375-2.62,5.225-4.5,8.545-5.64C18.457,0.57,22.754,0,28.026,0h20.02v6.787H27.978
	c-3.222,0-5.835,0.179-7.837,0.537c-2.002,0.358-3.67,0.936-5.004,1.733c-1.336,0.798-2.548,1.929-3.639,3.394
	c-1.09,1.465-1.945,3.264-2.563,5.396c-0.619,2.132-1.01,4.549-1.172,7.25H48.046z"/>
</svg>
