<?xml version="1.0" encoding="utf-8"?>
<!-- Generator: Adobe Illustrator 14.0.0, SVG Export Plug-In . SVG Version: 6.00 Build 43363)  -->
<!DOCTYPE svg PUBLIC "-//W3C//DTD SVG 1.1//EN" "http://www.w3.org/Graphics/SVG/1.1/DTD/svg11.dtd">
<svg version="1.1" id="图层_1" xmlns="http://www.w3.org/2000/svg" xmlns:xlink="http://www.w3.org/1999/xlink" x="0px" y="0px"
	 width="118.31px" height="69.434px" viewBox="0 0 118.31 69.434" enable-background="new 0 0 118.31 69.434" xml:space="preserve">
<g>
	<path d="M15.625,23.389v35.938c0,2.8,0.203,4.663,0.61,5.591c0.407,0.928,1.009,1.62,1.807,2.075
		c0.797,0.456,2.254,0.684,4.37,0.684v1.758H0.684v-1.758c2.181,0,3.646-0.211,4.395-0.635c0.749-0.423,1.343-1.123,1.782-2.1
		s0.659-2.848,0.659-5.615V42.09c0-4.85-0.146-7.991-0.439-9.424c-0.228-1.042-0.586-1.766-1.074-2.173
		c-0.488-0.407-1.156-0.61-2.002-0.61c-0.912,0-2.019,0.244-3.32,0.732L0,28.857l13.477-5.469H15.625z M11.572,0
		c1.367,0,2.531,0.48,3.491,1.44c0.96,0.96,1.44,2.124,1.44,3.491s-0.48,2.539-1.44,3.516c-0.96,0.977-2.124,1.465-3.491,1.465
		S9.033,9.424,8.057,8.447S6.592,6.299,6.592,4.932s0.48-2.531,1.44-3.491C8.992,0.48,10.172,0,11.572,0z"/>
	<path d="M41.015,32.861c5.241-6.315,10.237-9.473,14.99-9.473c2.441,0,4.541,0.61,6.299,1.831s3.157,3.231,4.199,6.03
		c0.716,1.953,1.074,4.948,1.074,8.984v19.092c0,2.832,0.228,4.753,0.684,5.762c0.358,0.814,0.936,1.449,1.734,1.904
		c0.797,0.456,2.27,0.684,4.418,0.684v1.758H52.294v-1.758h0.928c2.083,0,3.541-0.317,4.371-0.952s1.407-1.57,1.732-2.808
		c0.13-0.488,0.195-2.018,0.195-4.59V41.016c0-4.069-0.529-7.023-1.586-8.862c-1.059-1.839-2.841-2.759-5.348-2.759
		c-3.874,0-7.731,2.116-11.572,6.348v23.584c0,3.027,0.179,4.899,0.537,5.615c0.456,0.944,1.082,1.636,1.881,2.075
		c0.797,0.439,2.416,0.659,4.857,0.659v1.758H26.171v-1.758h0.977c2.278,0,3.816-0.578,4.615-1.733
		c0.797-1.155,1.195-3.361,1.195-6.616V42.725c0-5.371-0.121-8.643-0.365-9.814s-0.619-1.969-1.123-2.393
		c-0.506-0.423-1.181-0.635-2.027-0.635c-0.911,0-2.002,0.244-3.271,0.732l-0.732-1.758l13.477-5.469h2.1V32.861z"/>
	<path d="M95.458,28.223v29.395c0,4.167,0.455,6.804,1.367,7.91c1.204,1.433,2.815,2.148,4.834,2.148h4.053v1.758H79.003v-1.758
		h2.002c1.302,0,2.49-0.325,3.564-0.977c1.074-0.651,1.814-1.53,2.222-2.637c0.406-1.106,0.61-3.255,0.61-6.445V28.223H78.71v-3.516
		h8.691v-2.93c0-4.459,0.716-8.235,2.148-11.328c1.432-3.092,3.621-5.591,6.567-7.495c2.945-1.904,6.258-2.856,9.937-2.856
		c3.418,0,6.559,1.107,9.424,3.32c1.888,1.465,2.832,3.109,2.832,4.932c0,0.977-0.424,1.896-1.27,2.759
		c-0.847,0.863-1.758,1.294-2.734,1.294c-0.749,0-1.538-0.269-2.368-0.806s-1.848-1.692-3.052-3.467
		c-1.205-1.774-2.312-2.97-3.32-3.589c-1.01-0.618-2.133-0.928-3.369-0.928c-1.498,0-2.768,0.399-3.809,1.196
		c-1.042,0.798-1.791,2.035-2.246,3.711c-0.456,1.677-0.684,5.998-0.684,12.964v3.223h11.523v3.516H95.458z"/>
</g>
</svg>
