<?xml version="1.0" encoding="utf-8"?>
<!-- Generator: Adobe Illustrator 14.0.0, SVG Export Plug-In . SVG Version: 6.00 Build 43363)  -->
<!DOCTYPE svg PUBLIC "-//W3C//DTD SVG 1.1//EN" "http://www.w3.org/Graphics/SVG/1.1/DTD/svg11.dtd">
<svg version="1.1" id="图层_1" xmlns="http://www.w3.org/2000/svg" xmlns:xlink="http://www.w3.org/1999/xlink" x="0px" y="0px"
	 width="66.064px" height="40.869px" viewBox="0 0 66.064 40.869" enable-background="new 0 0 66.064 40.869" xml:space="preserve">
<path d="M29.297,13.525c2.213-5.078,4.639-8.602,7.275-10.571C39.209,0.985,42.806,0,47.363,0c5.24,0,9.668,1.888,13.281,5.664
	c3.613,3.776,5.42,8.675,5.42,14.697c0,5.957-1.758,10.864-5.273,14.722s-7.438,5.786-11.768,5.786
	c-3.223,0-6.218-1.188-8.984-3.564c-1.823-1.563-4.313-5.029-7.471-10.4c-2.084,4.037-4.362,6.941-6.836,8.716
	c-2.475,1.774-5.469,2.661-8.984,2.661c-4.688,0-8.651-1.676-11.89-5.029C1.619,29.899,0,25.57,0,20.264
	c0-5.371,1.497-9.7,4.492-12.988c2.994-3.288,6.494-4.932,10.498-4.932c2.799,0,5.273,0.725,7.422,2.173
	C24.561,5.965,26.855,8.968,29.297,13.525z M27.881,17.285c-1.596-3.581-3.418-6.217-5.469-7.91
	c-2.051-1.692-4.574-2.539-7.568-2.539c-3.451,0-6.34,1.213-8.667,3.638c-2.328,2.425-3.491,5.672-3.491,9.741
	c0,4.33,1.147,7.788,3.442,10.376s4.891,3.882,7.788,3.882c3.092,0,5.826-1.383,8.203-4.15C23.648,28.5,25.569,24.154,27.881,17.285
	z M33.984,23.438c2.441,5.078,4.85,8.488,7.227,10.229c2.376,1.741,5.045,2.612,8.008,2.612c4.004,0,7.349-1.44,10.034-4.321
	s4.028-6.746,4.028-11.597c0-4.785-1.416-8.74-4.248-11.865s-6.006-4.688-9.521-4.688c-2.246,0-4.208,0.57-5.884,1.709
	c-1.677,1.14-3.198,2.962-4.565,5.469C38.281,12.451,36.588,16.602,33.984,23.438z"/>
</svg>
