<?xml version="1.0" encoding="utf-8"?>
<!-- Generator: Adobe Illustrator 14.0.0, SVG Export Plug-In . SVG Version: 6.00 Build 43363)  -->
<!DOCTYPE svg PUBLIC "-//W3C//DTD SVG 1.1//EN" "http://www.w3.org/Graphics/SVG/1.1/DTD/svg11.dtd">
<svg version="1.1" id="图层_1" xmlns="http://www.w3.org/2000/svg" xmlns:xlink="http://www.w3.org/1999/xlink" x="0px" y="0px"
	 width="47.217px" height="108.252px" viewBox="-9.637 -2.677 47.217 108.252"
	 enable-background="new -9.637 -2.677 47.217 108.252" xml:space="preserve">
<path fill="#231F20" d="M36.994,8.407h-5.029c-0.262-1.432-0.781-2.612-1.563-3.54s-1.824-1.392-3.125-1.392
	c-3.484,0-5.771,2.824-6.861,8.472c-1.09,5.648-1.635,18.596-1.635,38.843c0,16.797-1.539,30.127-4.615,39.99
	s-8.504,14.795-16.283,14.795c-1.563,0-2.93-0.131-4.102-0.391c-1.172-0.261-2.313-0.684-3.418-1.27l0.635-9.619h4.59
	c0.422,1.563,1.049,2.848,1.879,3.857c0.83,1.009,2.01,1.514,3.541,1.514c3.418,0,5.566-3.54,6.445-10.62S8.771,71.64,8.771,58.065
	c0-21.159,1.602-36.572,4.809-46.24S22.346-2.677,30.256-2.677c1.139,0,2.4,0.155,3.783,0.464c1.383,0.31,2.564,0.692,3.541,1.147
	L36.994,8.407z"/>
</svg>
