<?xml version="1.0" encoding="utf-8"?>
<!-- Generator: Adobe Illustrator 14.0.0, SVG Export Plug-In . SVG Version: 6.00 Build 43363)  -->
<!DOCTYPE svg PUBLIC "-//W3C//DTD SVG 1.1//EN" "http://www.w3.org/Graphics/SVG/1.1/DTD/svg11.dtd">
<svg version="1.1" id="图层_1" xmlns="http://www.w3.org/2000/svg" xmlns:xlink="http://www.w3.org/1999/xlink" x="0px" y="0px"
	 width="18.701px" height="45.361px" viewBox="0 0 18.701 45.361" enable-background="new 0 0 18.701 45.361" xml:space="preserve">
<path d="M18.7,0L9.032,34.229c-0.65,2.312-0.977,3.695-0.977,4.15c0,0.521,0.154,0.944,0.465,1.27
	c0.309,0.326,0.674,0.488,1.098,0.488c0.488,0,1.074-0.26,1.758-0.781c1.855-1.465,3.727-3.548,5.615-6.25l1.709,1.123
	c-2.213,3.386-4.818,6.234-7.813,8.545c-2.213,1.725-4.33,2.588-6.348,2.588c-1.334,0-2.426-0.399-3.271-1.196
	s-1.27-1.798-1.27-3.003c0-1.204,0.406-3.206,1.221-6.006l6.348-21.875C8.608,9.701,9.13,7.455,9.13,6.543
	c0-0.716-0.252-1.302-0.756-1.758C7.868,4.33,7.177,4.102,6.298,4.102c-0.717,0-2.197,0.179-4.443,0.537V2.734L18.7,0z"/>
</svg>
