<?xml version="1.0" encoding="utf-8"?>
<!-- Generator: Adobe Illustrator 14.0.0, SVG Export Plug-In . SVG Version: 6.00 Build 43363)  -->
<!DOCTYPE svg PUBLIC "-//W3C//DTD SVG 1.1//EN" "http://www.w3.org/Graphics/SVG/1.1/DTD/svg11.dtd">
<svg version="1.1" id="图层_1" xmlns="http://www.w3.org/2000/svg" xmlns:xlink="http://www.w3.org/1999/xlink" x="0px" y="0px"
	 width="45.02px" height="85.107px" viewBox="0 0 45.02 85.107" enable-background="new 0 0 45.02 85.107" xml:space="preserve">
<g>
	<path d="M40.87,19.336L28.223,63.037c-2.246,7.813-5.331,13.443-9.253,16.895c-3.922,3.45-8.162,5.176-12.72,5.176
		c-2.051,0-3.605-0.473-4.663-1.416C0.53,82.747,0,81.624,0,80.322c0-1.01,0.399-1.896,1.196-2.661
		c0.798-0.766,1.717-1.147,2.759-1.147c0.944,0,1.774,0.309,2.49,0.928c0.586,0.488,0.879,1.041,0.879,1.66
		c0,0.846-0.407,1.578-1.221,2.197c-0.456,0.357-0.684,0.65-0.684,0.879l0.098,0.244c0.098,0.13,0.244,0.228,0.439,0.293
		c0.195,0.064,0.488,0.098,0.879,0.098c2.637,0,4.891-0.839,6.763-2.515c1.872-1.677,3.54-5.021,5.005-10.034l10.938-37.5
		c1.074-3.679,1.611-5.713,1.611-6.104c0-0.781-0.35-1.481-1.05-2.1c-0.7-0.618-1.587-0.928-2.661-0.928
		c-0.423,0-0.912,0.049-1.465,0.146c-0.423,0.065-1.042,0.163-1.855,0.293v-1.709L40.87,19.336z M40.088,0
		c1.367,0,2.531,0.48,3.491,1.44c0.96,0.961,1.44,2.124,1.44,3.491s-0.48,2.531-1.44,3.491c-0.96,0.961-2.124,1.44-3.491,1.44
		s-2.531-0.479-3.491-1.44c-0.96-0.96-1.44-2.124-1.44-3.491s0.48-2.53,1.44-3.491C37.557,0.48,38.721,0,40.088,0z"/>
</g>
</svg>
