<?xml version="1.0" encoding="utf-8"?>
<!-- Generator: Adobe Illustrator 14.0.0, SVG Export Plug-In . SVG Version: 6.00 Build 43363)  -->
<!DOCTYPE svg PUBLIC "-//W3C//DTD SVG 1.1//EN" "http://www.w3.org/Graphics/SVG/1.1/DTD/svg11.dtd">
<svg version="1.1" id="图层_1" xmlns="http://www.w3.org/2000/svg" xmlns:xlink="http://www.w3.org/1999/xlink" x="0px" y="0px"
	 width="47.803px" height="70.605px" viewBox="0 0 47.803 70.605" enable-background="new 0 0 47.803 70.605" xml:space="preserve">
<g>
	<path d="M27.637,0L13.77,47.998l5.566-4.736c6.087-5.143,10.042-8.951,11.865-11.426c0.586-0.813,0.879-1.432,0.879-1.855
		c0-0.293-0.098-0.569-0.293-0.83c-0.195-0.26-0.578-0.472-1.147-0.635c-0.57-0.162-1.571-0.244-3.003-0.244h-1.709l0.537-1.855
		h21.338l-0.488,1.855c-2.441,0.131-4.55,0.513-6.323,1.147c-1.774,0.635-3.491,1.571-5.151,2.808
		c-3.288,2.441-5.453,4.135-6.494,5.078l-4.199,3.711c0.716,2.344,1.595,5.615,2.637,9.814c1.758,6.967,2.945,11.101,3.564,12.402
		c0.618,1.303,1.253,1.953,1.904,1.953c0.553,0,1.204-0.276,1.953-0.83c1.692-1.236,3.499-3.206,5.42-5.908l1.709,1.221
		c-3.549,4.46-6.267,7.397-8.154,8.813c-1.889,1.416-3.613,2.124-5.176,2.124c-1.367,0-2.426-0.537-3.174-1.611
		c-1.302-1.92-3.467-9.488-6.494-22.705L12.647,52.1L7.618,69.434H0l16.211-55.713l1.367-4.736c0.163-0.813,0.244-1.529,0.244-2.148
		c0-0.781-0.301-1.432-0.903-1.953c-0.603-0.521-1.473-0.781-2.612-0.781c-0.749,0-1.937,0.163-3.564,0.488V2.881L27.637,0z"/>
</g>
</svg>
