<?xml version="1.0" encoding="utf-8"?>
<!-- Generator: Adobe Illustrator 14.0.0, SVG Export Plug-In . SVG Version: 6.00 Build 43363)  -->
<!DOCTYPE svg PUBLIC "-//W3C//DTD SVG 1.1//EN" "http://www.w3.org/Graphics/SVG/1.1/DTD/svg11.dtd">
<svg version="1.1" id="图层_1" xmlns="http://www.w3.org/2000/svg" xmlns:xlink="http://www.w3.org/1999/xlink" x="0px" y="0px"
	 width="47.852px" height="44.775px" viewBox="0 0 47.852 44.775" enable-background="new 0 0 47.852 44.775" xml:space="preserve">
<path d="M20.702,0l-6.836,22.998L29.394,9.424c4.785-4.199,7.943-6.779,9.473-7.739c1.529-0.96,3.141-1.44,4.834-1.44
	c2.768,0,4.15,1.302,4.15,3.906c0,1.27-0.424,2.254-1.27,2.954c-0.846,0.7-1.742,1.05-2.686,1.05c-0.586,0-1.383-0.195-2.393-0.586
	c-1.172-0.456-2.066-0.684-2.686-0.684c-1.205,0-3.174,1.188-5.908,3.564l-7.666,6.689l5.811,18.164
	c0.814,2.539,2.018,3.809,3.613,3.809c2.246,0,4.801-2.051,7.666-6.152l1.611,1.221c-4.199,7.064-8.773,10.596-13.721,10.596
	c-1.367,0-2.588-0.464-3.662-1.392s-2.148-3.23-3.223-6.909l-4.102-14.258l-7.031,5.664L7.323,44.189h-7.324l10.107-33.008
	c0.65-2.148,0.977-3.646,0.977-4.492c0-1.725-1.01-2.588-3.027-2.588c-0.717,0-2.148,0.179-4.297,0.537V2.734L19.237,0H20.702z"/>
</svg>
