<?xml version="1.0" encoding="utf-8"?>
<!-- Generator: Adobe Illustrator 14.0.0, SVG Export Plug-In . SVG Version: 6.00 Build 43363)  -->
<!DOCTYPE svg PUBLIC "-//W3C//DTD SVG 1.1//EN" "http://www.w3.org/Graphics/SVG/1.1/DTD/svg11.dtd">
<svg version="1.1" id="图层_1" xmlns="http://www.w3.org/2000/svg" xmlns:xlink="http://www.w3.org/1999/xlink" x="0px" y="0px"
	 width="127.49px" height="70.8px" viewBox="0 0 127.49 70.8" enable-background="new 0 0 127.49 70.8" xml:space="preserve">
<g>
	<path d="M15.527,0v44.482l11.377-10.352c2.408-2.213,3.809-3.613,4.199-4.199c0.26-0.391,0.391-0.781,0.391-1.172
		c0-0.651-0.269-1.212-0.806-1.685c-0.537-0.472-1.425-0.74-2.661-0.806v-1.563h19.434v1.563c-2.67,0.065-4.892,0.472-6.665,1.221
		c-1.774,0.749-3.72,2.083-5.835,4.004L23.486,42.09l11.475,14.502c3.189,4.004,5.338,6.543,6.445,7.617
		c1.563,1.53,2.93,2.523,4.102,2.978c0.813,0.326,2.229,0.488,4.248,0.488v1.758H28.027v-1.758c1.236-0.031,2.075-0.219,2.515-0.561
		s0.659-0.822,0.659-1.441c0-0.749-0.651-1.953-1.953-3.613L15.527,44.531v14.844c0,2.897,0.203,4.802,0.61,5.713
		c0.407,0.912,0.984,1.562,1.733,1.953c0.749,0.391,2.376,0.604,4.883,0.635v1.758H0v-1.758c2.278,0,3.987-0.275,5.127-0.83
		c0.684-0.357,1.204-0.91,1.563-1.66c0.488-1.074,0.732-2.93,0.732-5.566V18.896c0-5.176-0.114-8.341-0.342-9.497
		C6.852,8.244,6.478,7.446,5.957,7.007C5.436,6.567,4.752,6.348,3.906,6.348c-0.684,0-1.709,0.277-3.076,0.83L0,5.469L13.281,0
		H15.527z"/>
	<path d="M59.814,41.553c-0.033,6.641,1.578,11.849,4.834,15.625c3.255,3.776,7.08,5.664,11.475,5.664
		c2.93,0,5.477-0.806,7.642-2.417c2.164-1.611,3.979-4.37,5.444-8.276l1.514,0.977c-0.684,4.46-2.67,8.521-5.957,12.183
		C81.478,68.97,77.359,70.8,72.412,70.8c-5.371,0-9.97-2.09-13.794-6.274c-3.825-4.183-5.737-9.806-5.737-16.87
		c0-7.649,1.961-13.615,5.884-17.896c3.922-4.28,8.846-6.421,14.771-6.421c5.013,0,9.131,1.652,12.354,4.956
		c3.223,3.304,4.834,7.723,4.834,13.257H59.814z M59.814,38.721h20.703c-0.163-2.864-0.505-4.883-1.025-6.055
		c-0.814-1.823-2.026-3.255-3.638-4.297c-1.611-1.042-3.296-1.563-5.054-1.563c-2.702,0-5.119,1.05-7.251,3.149
		C61.417,32.056,60.172,34.978,59.814,38.721z"/>
	<path d="M109.766,23.389v10.059c3.743-6.706,7.584-10.059,11.523-10.059c1.79,0,3.271,0.545,4.443,1.636
		c1.172,1.091,1.758,2.352,1.758,3.784c0,1.27-0.424,2.344-1.27,3.223c-0.847,0.879-1.855,1.318-3.027,1.318
		c-1.14,0-2.417-0.562-3.833-1.685s-2.466-1.685-3.149-1.685c-0.586,0-1.221,0.326-1.904,0.977
		c-1.465,1.335-2.979,3.532-4.541,6.592v21.436c0,2.474,0.309,4.346,0.928,5.615c0.423,0.879,1.172,1.611,2.246,2.197
		s2.62,0.879,4.639,0.879v1.758h-22.9v-1.758c2.278,0,3.971-0.357,5.078-1.074c0.813-0.52,1.383-1.35,1.709-2.49
		c0.162-0.553,0.244-2.132,0.244-4.736V42.041c0-5.208-0.106-8.309-0.317-9.302c-0.212-0.993-0.603-1.717-1.172-2.173
		c-0.57-0.456-1.278-0.684-2.124-0.684c-1.01,0-2.148,0.244-3.418,0.732l-0.488-1.758l13.525-5.469H109.766z"/>
</g>
</svg>
