<?xml version="1.0" encoding="utf-8"?>
<!-- Generator: Adobe Illustrator 14.0.0, SVG Export Plug-In . SVG Version: 6.00 Build 43363)  -->
<!DOCTYPE svg PUBLIC "-//W3C//DTD SVG 1.1//EN" "http://www.w3.org/Graphics/SVG/1.1/DTD/svg11.dtd">
<svg version="1.1" id="图层_1" xmlns="http://www.w3.org/2000/svg" xmlns:xlink="http://www.w3.org/1999/xlink" x="0px" y="0px"
	 width="25.879px" height="70.605px" viewBox="0 0 25.879 70.605" enable-background="new 0 0 25.879 70.605" xml:space="preserve">
<g>
	<path d="M25.879,0L9.18,58.105c-0.814,2.897-1.221,4.672-1.221,5.322c0,0.488,0.154,0.896,0.464,1.221
		c0.309,0.326,0.691,0.488,1.147,0.488c0.618,0,1.286-0.276,2.002-0.83c1.692-1.334,3.467-3.401,5.322-6.201l1.465,1.514
		c-3.093,4.362-5.941,7.406-8.545,9.131c-1.921,1.236-3.744,1.855-5.469,1.855c-1.237,0-2.271-0.424-3.101-1.27S0,67.514,0,66.406
		c0-1.172,0.521-3.58,1.563-7.227l13.232-45.801c1.074-3.743,1.611-5.892,1.611-6.445c0-0.781-0.31-1.424-0.928-1.929
		C14.86,4.5,13.899,4.248,12.598,4.248c-0.749,0-1.888,0.114-3.418,0.342V2.783L25.879,0z"/>
</g>
</svg>
