<?xml version="1.0" encoding="utf-8"?>
<!-- Generator: Adobe Illustrator 14.0.0, SVG Export Plug-In . SVG Version: 6.00 Build 43363)  -->
<!DOCTYPE svg PUBLIC "-//W3C//DTD SVG 1.1//EN" "http://www.w3.org/Graphics/SVG/1.1/DTD/svg11.dtd">
<svg version="1.1" id="图层_1" xmlns="http://www.w3.org/2000/svg" xmlns:xlink="http://www.w3.org/1999/xlink" x="0px" y="0px"
	 width="43.896px" height="70.02px" viewBox="0 0 43.896 70.02" enable-background="new 0 0 43.896 70.02" xml:space="preserve">
<path d="M8.642,69.434h-8.643l30.42-43.75l0.146-8.252c0-4.98-0.496-8.195-1.488-9.644c-0.994-1.448-2.256-2.173-3.785-2.173
	c-2.93,0-4.867,2.474-5.811,7.422h-1.758c0.424-3.841,1.49-6.974,3.199-9.399C22.632,1.213,24.642,0,26.952,0
	c2.051,0,3.572,0.838,4.566,2.515c0.992,1.677,1.488,4.631,1.488,8.862c0,0.488-0.016,1.156-0.049,2.002L31.64,54.59
	c-0.033,0.488-0.049,0.928-0.049,1.318c0,5.6,1.758,8.398,5.273,8.398c2.994,0,4.752-1.937,5.273-5.811h1.758
	c-0.033,3.288-0.789,6.03-2.27,8.228c-1.482,2.197-3.459,3.296-5.934,3.296c-4.395,0-6.592-2.896-6.592-8.691
	c0-0.325,0.033-1.416,0.098-3.271l0.732-19.58L8.642,69.434z"/>
</svg>
