<?xml version="1.0" encoding="utf-8"?>
<!-- Generator: Adobe Illustrator 14.0.0, SVG Export Plug-In . SVG Version: 6.00 Build 43363)  -->
<!DOCTYPE svg PUBLIC "-//W3C//DTD SVG 1.1//EN" "http://www.w3.org/Graphics/SVG/1.1/DTD/svg11.dtd">
<svg version="1.1" id="图层_1" xmlns="http://www.w3.org/2000/svg" xmlns:xlink="http://www.w3.org/1999/xlink" x="0px" y="0px"
	 width="72.998px" height="91.016px" viewBox="0 0 72.998 91.016" enable-background="new 0 0 72.998 91.016" xml:space="preserve">
<g>
	<path d="M15.527,0v59.326c0,2.8,0.203,4.655,0.61,5.566c0.406,0.912,1.033,1.604,1.88,2.075c0.846,0.472,2.425,0.708,4.736,0.708
		v1.758H0.83v-1.758c2.051,0,3.45-0.211,4.199-0.635c0.749-0.423,1.334-1.123,1.758-2.1c0.423-0.977,0.635-2.848,0.635-5.615V18.701
		c0-5.045-0.114-8.146-0.342-9.302C6.852,8.244,6.486,7.455,5.981,7.031C5.477,6.608,4.834,6.396,4.053,6.396
		c-0.847,0-1.921,0.261-3.223,0.781L0,5.469L13.33,0H15.527z"/>
	<path d="M39.893,53.125c-2.734-1.334-4.834-3.198-6.299-5.591s-2.197-5.037-2.197-7.935c0-4.427,1.668-8.235,5.005-11.426
		c3.336-3.19,7.608-4.785,12.817-4.785c4.264,0,7.959,1.042,11.084,3.125h9.473c1.399,0,2.213,0.041,2.441,0.122
		c0.228,0.082,0.391,0.22,0.488,0.415c0.195,0.293,0.293,0.814,0.293,1.563c0,0.847-0.082,1.433-0.244,1.758
		c-0.098,0.163-0.269,0.293-0.513,0.391s-1.066,0.146-2.466,0.146h-5.811c1.822,2.344,2.734,5.339,2.734,8.984
		c0,4.167-1.596,7.731-4.785,10.693c-3.19,2.962-7.471,4.443-12.842,4.443c-2.214,0-4.477-0.325-6.787-0.977
		c-1.433,1.237-2.401,2.319-2.905,3.247c-0.505,0.928-0.757,1.717-0.757,2.368c0,0.554,0.269,1.091,0.806,1.611
		c0.537,0.521,1.587,0.896,3.149,1.123c0.911,0.13,3.189,0.244,6.836,0.342c6.705,0.163,11.051,0.391,13.037,0.684
		c3.027,0.423,5.444,1.546,7.251,3.369c1.807,1.823,2.71,4.069,2.71,6.738c0,3.678-1.726,7.129-5.176,10.352
		c-5.078,4.752-11.703,7.129-19.873,7.129c-6.283,0-11.589-1.416-15.918-4.248c-2.441-1.628-3.662-3.32-3.662-5.078
		c0-0.781,0.179-1.563,0.537-2.344c0.553-1.205,1.692-2.881,3.418-5.029c0.228-0.293,1.888-2.051,4.98-5.273
		c-1.693-1.009-2.89-1.912-3.589-2.71c-0.7-0.797-1.05-1.701-1.05-2.71c0-1.139,0.464-2.474,1.392-4.004
		C34.399,58.089,36.539,55.925,39.893,53.125z M39.404,69.434c-1.53,1.66-2.686,3.206-3.467,4.639
		c-0.781,1.432-1.172,2.75-1.172,3.955c0,1.563,0.943,2.93,2.832,4.102c3.255,2.018,7.959,3.027,14.111,3.027
		c5.859,0,10.181-1.034,12.964-3.101c2.783-2.067,4.175-4.272,4.175-6.616c0-1.693-0.83-2.897-2.49-3.613
		c-1.693-0.717-5.046-1.14-10.059-1.27C48.975,70.361,43.343,69.987,39.404,69.434z M48.389,25.732c-2.409,0-4.428,0.96-6.055,2.881
		c-1.628,1.921-2.441,4.867-2.441,8.838c0,5.144,1.106,9.131,3.32,11.963c1.692,2.148,3.841,3.223,6.445,3.223
		c2.474,0,4.508-0.928,6.104-2.783c1.595-1.855,2.393-4.769,2.393-8.74c0-5.176-1.123-9.229-3.369-12.158
		C53.125,26.807,50.992,25.732,48.389,25.732z"/>
</g>
</svg>
