<?xml version="1.0" encoding="utf-8"?>
<!-- Generator: Adobe Illustrator 14.0.0, SVG Export Plug-In . SVG Version: 6.00 Build 43363)  -->
<!DOCTYPE svg PUBLIC "-//W3C//DTD SVG 1.1//EN" "http://www.w3.org/Graphics/SVG/1.1/DTD/svg11.dtd">
<svg version="1.1" id="图层_1" xmlns="http://www.w3.org/2000/svg" xmlns:xlink="http://www.w3.org/1999/xlink" x="0px" y="0px"
	 width="129.932px" height="69.434px" viewBox="0 0 129.932 69.434" enable-background="new 0 0 129.932 69.434"
	 xml:space="preserve">
<g>
	<path d="M15.527,0v59.326c0,2.8,0.203,4.655,0.61,5.566c0.406,0.912,1.033,1.604,1.88,2.075c0.846,0.473,2.425,0.708,4.736,0.708
		v1.758H0.83v-1.758c2.051,0,3.45-0.211,4.199-0.635c0.749-0.423,1.334-1.123,1.758-2.1c0.423-0.977,0.635-2.848,0.635-5.615V18.701
		c0-5.045-0.114-8.146-0.342-9.302C6.852,8.244,6.486,7.455,5.981,7.031C5.477,6.608,4.834,6.396,4.053,6.396
		c-0.847,0-1.921,0.261-3.223,0.781L0,5.469L13.33,0H15.527z"/>
	<path d="M43.359,23.389v35.938c0,2.8,0.203,4.663,0.61,5.591c0.406,0.928,1.009,1.62,1.807,2.075
		c0.797,0.456,2.254,0.684,4.37,0.684v1.758H28.418v-1.758c2.181,0,3.646-0.211,4.395-0.635c0.748-0.423,1.343-1.123,1.782-2.1
		s0.659-2.848,0.659-5.615V42.09c0-4.85-0.146-7.991-0.439-9.424c-0.229-1.042-0.586-1.766-1.074-2.173
		c-0.488-0.407-1.156-0.61-2.002-0.61c-0.912,0-2.019,0.244-3.32,0.732l-0.684-1.758l13.477-5.469H43.359z M39.307,0
		c1.367,0,2.53,0.48,3.491,1.44c0.96,0.96,1.44,2.124,1.44,3.491s-0.48,2.539-1.44,3.516c-0.961,0.977-2.124,1.465-3.491,1.465
		s-2.539-0.488-3.516-1.465s-1.465-2.148-1.465-3.516s0.479-2.531,1.44-3.491C36.727,0.48,37.906,0,39.307,0z"/>
	<path d="M68.994,32.91c3.255-3.255,5.176-5.127,5.762-5.615c1.465-1.237,3.043-2.197,4.736-2.881
		c1.692-0.684,3.369-1.025,5.029-1.025c2.799,0,5.208,0.814,7.227,2.441c2.018,1.628,3.369,3.988,4.053,7.08
		c3.353-3.906,6.185-6.47,8.496-7.69c2.311-1.221,4.688-1.831,7.129-1.831c2.376,0,4.483,0.61,6.323,1.831
		c1.839,1.221,3.296,3.215,4.37,5.981c0.716,1.888,1.074,4.851,1.074,8.887v19.238c0,2.8,0.211,4.72,0.635,5.762
		c0.325,0.717,0.928,1.327,1.807,1.831c0.879,0.505,2.311,0.757,4.297,0.757v1.758h-22.07v-1.758h0.928
		c1.92,0,3.418-0.374,4.492-1.123c0.748-0.521,1.285-1.351,1.611-2.49c0.13-0.553,0.195-2.132,0.195-4.736V40.088
		c0-3.646-0.439-6.217-1.318-7.715c-1.27-2.083-3.305-3.125-6.104-3.125c-1.726,0-3.459,0.432-5.2,1.294
		c-1.742,0.863-3.85,2.466-6.323,4.81l-0.098,0.537l0.098,2.1v21.338c0,3.06,0.171,4.964,0.513,5.713
		c0.342,0.749,0.984,1.376,1.929,1.88c0.943,0.505,2.555,0.757,4.834,0.757v1.758H80.811v-1.758c2.474,0,4.175-0.293,5.103-0.879
		s1.57-1.465,1.929-2.637c0.162-0.553,0.244-2.165,0.244-4.834V40.088c0-3.646-0.537-6.266-1.611-7.861
		c-1.433-2.083-3.435-3.125-6.006-3.125c-1.758,0-3.5,0.472-5.225,1.416c-2.702,1.433-4.785,3.044-6.25,4.834v23.975
		c0,2.93,0.203,4.834,0.61,5.713c0.406,0.879,1.009,1.538,1.807,1.978c0.797,0.439,2.417,0.659,4.858,0.659v1.758H54.15v-1.758
		c2.051,0,3.482-0.22,4.297-0.659c0.813-0.439,1.432-1.139,1.855-2.1c0.423-0.96,0.635-2.824,0.635-5.591v-17.09
		c0-4.915-0.146-8.089-0.439-9.521c-0.229-1.074-0.586-1.814-1.074-2.222c-0.488-0.407-1.156-0.61-2.002-0.61
		c-0.912,0-2.002,0.244-3.271,0.732l-0.732-1.758l13.477-5.469h2.1V32.91z"/>
</g>
</svg>
