<?xml version="1.0" encoding="utf-8"?>
<!-- Generator: Adobe Illustrator 14.0.0, SVG Export Plug-In . SVG Version: 6.00 Build 43363)  -->
<!DOCTYPE svg PUBLIC "-//W3C//DTD SVG 1.1//EN" "http://www.w3.org/Graphics/SVG/1.1/DTD/svg11.dtd">
<svg version="1.1" id="图层_1" xmlns="http://www.w3.org/2000/svg" xmlns:xlink="http://www.w3.org/1999/xlink" x="0px" y="0px"
	 width="74.365px" height="69.434px" viewBox="0 0 74.365 69.434" enable-background="new 0 0 74.365 69.434" xml:space="preserve">
<g>
	<path d="M15.527,0v59.326c0,2.8,0.203,4.655,0.61,5.566c0.407,0.912,1.033,1.604,1.88,2.075c0.846,0.473,2.425,0.708,4.736,0.708
		v1.758H0.83v-1.758c2.051,0,3.45-0.211,4.199-0.635c0.749-0.423,1.334-1.123,1.758-2.1c0.423-0.977,0.635-2.848,0.635-5.615V18.701
		c0-5.045-0.114-8.146-0.342-9.302C6.852,8.244,6.486,7.455,5.981,7.031C5.477,6.608,4.834,6.396,4.053,6.396
		c-0.847,0-1.921,0.261-3.223,0.781L0,5.469L13.33,0H15.527z"/>
	<path d="M40.966,32.861c5.241-6.315,10.237-9.473,14.99-9.473c2.441,0,4.541,0.61,6.299,1.831s3.157,3.231,4.199,6.03
		c0.716,1.953,1.074,4.948,1.074,8.984v19.092c0,2.832,0.228,4.753,0.684,5.762c0.358,0.814,0.936,1.449,1.734,1.904
		c0.797,0.456,2.27,0.684,4.418,0.684v1.758H52.246v-1.758h0.928c2.083,0,3.541-0.317,4.371-0.952s1.407-1.57,1.732-2.808
		c0.13-0.488,0.195-2.018,0.195-4.59V41.016c0-4.069-0.529-7.023-1.586-8.862c-1.059-1.839-2.841-2.759-5.348-2.759
		c-3.874,0-7.731,2.116-11.572,6.348v23.584c0,3.027,0.179,4.899,0.537,5.615c0.456,0.944,1.082,1.636,1.881,2.075
		c0.797,0.439,2.416,0.659,4.857,0.659v1.758H26.123v-1.758H27.1c2.278,0,3.816-0.577,4.614-1.733
		c0.797-1.155,1.196-3.361,1.196-6.616V42.725c0-5.371-0.122-8.643-0.366-9.814s-0.619-1.969-1.123-2.393
		c-0.505-0.423-1.18-0.635-2.026-0.635c-0.912,0-2.002,0.244-3.271,0.732l-0.732-1.758l13.476-5.469h2.1V32.861z"/>
</g>
</svg>
