<?xml version="1.0" encoding="utf-8"?>
<!-- Generator: Adobe Illustrator 14.0.0, SVG Export Plug-In . SVG Version: 6.00 Build 43363)  -->
<!DOCTYPE svg PUBLIC "-//W3C//DTD SVG 1.1//EN" "http://www.w3.org/Graphics/SVG/1.1/DTD/svg11.dtd">
<svg version="1.1" id="图层_1" xmlns="http://www.w3.org/2000/svg" xmlns:xlink="http://www.w3.org/1999/xlink" x="0px" y="0px"
	 width="122.999px" height="91.016px" viewBox="0 0 122.999 91.016" enable-background="new 0 0 122.999 91.016"
	 xml:space="preserve">
<g>
	<path d="M15.527,0v59.326c0,2.8,0.203,4.655,0.61,5.566c0.407,0.912,1.033,1.604,1.88,2.075c0.846,0.473,2.425,0.708,4.736,0.708
		v1.758H0.83v-1.758c2.051,0,3.45-0.211,4.199-0.635c0.749-0.423,1.334-1.123,1.758-2.1c0.423-0.977,0.635-2.848,0.635-5.615V18.701
		c0-5.045-0.114-8.146-0.342-9.302C6.852,8.244,6.486,7.455,5.981,7.031C5.477,6.608,4.834,6.396,4.053,6.396
		c-0.847,0-1.921,0.261-3.223,0.781L0,5.469L13.33,0H15.527z"/>
	<path d="M49.805,23.389c6.771,0,12.207,2.572,16.309,7.715c3.482,4.395,5.225,9.44,5.225,15.137c0,4.004-0.961,8.057-2.881,12.158
		c-1.921,4.102-4.565,7.194-7.935,9.277s-7.121,3.125-11.255,3.125c-6.738,0-12.094-2.686-16.064-8.057
		c-3.354-4.524-5.029-9.603-5.029-15.234c0-4.102,1.017-8.179,3.052-12.231c2.034-4.053,4.712-7.047,8.032-8.984
		C42.579,24.357,46.094,23.389,49.805,23.389z M48.292,26.563c-1.726,0-3.459,0.513-5.2,1.538c-1.742,1.025-3.149,2.824-4.224,5.396
		c-1.074,2.572-1.611,5.876-1.611,9.912c0,6.511,1.294,12.126,3.882,16.846c2.588,4.721,5.997,7.08,10.229,7.08
		c3.157,0,5.762-1.302,7.813-3.906c2.051-2.604,3.076-7.08,3.076-13.428c0-7.942-1.709-14.192-5.127-18.75
		C54.818,28.125,51.872,26.563,48.292,26.563z"/>
	<path d="M89.893,53.125c-2.734-1.334-4.834-3.198-6.299-5.591s-2.197-5.037-2.197-7.935c0-4.427,1.668-8.235,5.005-11.426
		c3.336-3.19,7.608-4.785,12.817-4.785c4.264,0,7.959,1.042,11.084,3.125h9.473c1.399,0,2.213,0.041,2.441,0.122
		c0.228,0.082,0.391,0.22,0.488,0.415c0.195,0.293,0.293,0.814,0.293,1.563c0,0.847-0.082,1.433-0.244,1.758
		c-0.098,0.163-0.269,0.293-0.513,0.391s-1.066,0.146-2.466,0.146h-5.811c1.822,2.344,2.734,5.339,2.734,8.984
		c0,4.167-1.596,7.731-4.785,10.693c-3.19,2.962-7.471,4.443-12.842,4.443c-2.214,0-4.477-0.325-6.787-0.977
		c-1.433,1.237-2.401,2.319-2.905,3.247c-0.505,0.928-0.757,1.717-0.757,2.368c0,0.554,0.269,1.091,0.806,1.611
		c0.537,0.521,1.587,0.896,3.149,1.123c0.911,0.13,3.189,0.244,6.836,0.342c6.705,0.163,11.051,0.391,13.037,0.684
		c3.027,0.423,5.444,1.547,7.251,3.369c1.807,1.823,2.71,4.068,2.71,6.738c0,3.678-1.726,7.129-5.176,10.352
		c-5.078,4.752-11.703,7.129-19.873,7.129c-6.283,0-11.589-1.416-15.918-4.248c-2.441-1.628-3.662-3.32-3.662-5.078
		c0-0.781,0.179-1.563,0.537-2.344c0.553-1.205,1.692-2.881,3.418-5.029c0.228-0.293,1.888-2.051,4.98-5.273
		c-1.693-1.009-2.89-1.912-3.589-2.71c-0.7-0.797-1.05-1.7-1.05-2.71c0-1.139,0.464-2.474,1.392-4.004
		C84.4,58.089,86.54,55.925,89.893,53.125z M89.405,69.434c-1.53,1.66-2.686,3.206-3.467,4.639c-0.781,1.432-1.172,2.75-1.172,3.955
		c0,1.563,0.943,2.93,2.832,4.102c3.255,2.018,7.959,3.027,14.111,3.027c5.859,0,10.181-1.034,12.964-3.101
		c2.783-2.067,4.175-4.272,4.175-6.616c0-1.693-0.83-2.897-2.49-3.613c-1.693-0.717-5.046-1.14-10.059-1.27
		C98.975,70.361,93.343,69.986,89.405,69.434z M98.389,25.732c-2.409,0-4.428,0.96-6.055,2.881
		c-1.628,1.921-2.441,4.867-2.441,8.838c0,5.144,1.106,9.131,3.32,11.963c1.692,2.148,3.841,3.223,6.445,3.223
		c2.474,0,4.508-0.928,6.104-2.783c1.595-1.855,2.393-4.769,2.393-8.74c0-5.176-1.123-9.229-3.369-12.158
		C103.125,26.807,100.993,25.732,98.389,25.732z"/>
</g>
</svg>
