<?xml version="1.0" encoding="utf-8"?>
<!-- Generator: Adobe Illustrator 14.0.0, SVG Export Plug-In . SVG Version: 6.00 Build 43363)  -->
<!DOCTYPE svg PUBLIC "-//W3C//DTD SVG 1.1//EN" "http://www.w3.org/Graphics/SVG/1.1/DTD/svg11.dtd">
<svg version="1.1" id="图层_1" xmlns="http://www.w3.org/2000/svg" xmlns:xlink="http://www.w3.org/1999/xlink" x="0px" y="0px"
	 width="66.162px" height="45.361px" viewBox="0 0 66.162 45.361" enable-background="new 0 0 66.162 45.361" xml:space="preserve">
<g>
	<path d="M19.971,0l-6.348,22.021c2.832-5.176,5.241-9.065,7.227-11.67c3.092-4.036,6.104-6.966,9.033-8.789
		C31.607,0.521,33.414,0,35.303,0c1.627,0,2.979,0.521,4.053,1.563s1.611,2.376,1.611,4.004c0,1.595-0.375,3.679-1.123,6.25
		l-3.467,12.402C41.683,14.29,46.712,7.324,51.465,3.32C54.102,1.106,56.705,0,59.277,0c1.497,0,2.726,0.513,3.687,1.538
		c0.96,1.025,1.44,2.612,1.44,4.761c0,1.888-0.293,3.89-0.879,6.006l-5.371,18.994c-1.172,4.135-1.758,6.43-1.758,6.885
		c0,0.456,0.146,0.847,0.439,1.172c0.195,0.229,0.455,0.342,0.781,0.342c0.325,0,0.895-0.309,1.709-0.928
		c1.855-1.432,3.597-3.32,5.225-5.664l1.611,1.025c-0.814,1.303-2.255,3.093-4.321,5.371c-2.067,2.279-3.833,3.825-5.298,4.639
		s-2.816,1.221-4.053,1.221c-1.14,0-2.092-0.391-2.856-1.172c-0.766-0.781-1.147-1.741-1.147-2.881c0-1.563,0.667-4.703,2.002-9.424
		l4.443-15.674c1.009-3.613,1.546-5.615,1.611-6.006c0.098-0.618,0.146-1.221,0.146-1.807c0-0.813-0.18-1.448-0.537-1.904
		c-0.391-0.456-0.83-0.684-1.318-0.684c-1.367,0-2.816,0.7-4.346,2.1c-4.492,4.134-8.691,9.929-12.598,17.383
		c-2.572,4.916-4.98,11.215-7.227,18.896h-7.373l8.35-29.541c0.911-3.19,1.367-5.322,1.367-6.396c0-0.879-0.18-1.53-0.537-1.953
		c-0.358-0.423-0.798-0.635-1.318-0.635c-1.074,0-2.214,0.391-3.418,1.172c-1.953,1.27-4.468,3.987-7.544,8.154
		s-5.461,8.154-7.153,11.963c-0.814,1.791-2.751,7.536-5.811,17.236H0l9.033-31.641l1.172-4.102
		c0.228-0.618,0.342-1.074,0.342-1.367c0-0.716-0.326-1.358-0.977-1.929C8.919,4.582,8.089,4.297,7.08,4.297
		c-0.423,0-1.595,0.195-3.516,0.586L3.125,3.076L19.971,0z"/>
</g>
</svg>
