<?xml version="1.0" encoding="utf-8"?>
<!-- Generator: Adobe Illustrator 14.0.0, SVG Export Plug-In . SVG Version: 6.00 Build 43363)  -->
<!DOCTYPE svg PUBLIC "-//W3C//DTD SVG 1.1//EN" "http://www.w3.org/Graphics/SVG/1.1/DTD/svg11.dtd">
<svg version="1.1" id="图层_1" xmlns="http://www.w3.org/2000/svg" xmlns:xlink="http://www.w3.org/1999/xlink" x="0px" y="0px"
	 width="170.117px" height="46.973px" viewBox="0 0 170.117 46.973" enable-background="new 0 0 170.117 46.973"
	 xml:space="preserve">
<g>
	<path d="M15.576,9.521c3.255-3.255,5.176-5.127,5.762-5.615c1.465-1.237,3.043-2.197,4.736-2.881C27.767,0.342,29.443,0,31.104,0
		c2.799,0,5.208,0.814,7.226,2.441c2.019,1.628,3.369,3.988,4.053,7.08c3.353-3.906,6.185-6.47,8.496-7.69S55.566,0,58.007,0
		c2.376,0,4.484,0.61,6.324,1.831c1.838,1.221,3.295,3.215,4.369,5.981c0.716,1.888,1.074,4.851,1.074,8.887v19.238
		c0,2.8,0.212,4.721,0.635,5.762c0.325,0.717,0.928,1.327,1.807,1.831c0.879,0.505,2.312,0.757,4.297,0.757v1.758h-22.07v-1.758
		h0.928c1.921,0,3.418-0.374,4.492-1.123c0.749-0.521,1.286-1.351,1.611-2.49c0.13-0.553,0.195-2.132,0.195-4.736V16.699
		c0-3.646-0.439-6.217-1.318-7.715c-1.27-2.083-3.304-3.125-6.104-3.125c-1.726,0-3.459,0.432-5.199,1.294
		c-1.742,0.863-3.851,2.466-6.324,4.81L42.626,12.5l0.098,2.1v21.338c0,3.061,0.172,4.965,0.514,5.713
		c0.342,0.749,0.983,1.376,1.928,1.88c0.944,0.505,2.556,0.757,4.834,0.757v1.758H27.393v-1.758c2.474,0,4.175-0.293,5.103-0.879
		s1.569-1.465,1.928-2.637c0.163-0.553,0.244-2.164,0.244-4.834V16.699c0-3.646-0.537-6.266-1.611-7.861
		c-1.433-2.083-3.434-3.125-6.005-3.125c-1.758,0-3.5,0.472-5.225,1.416c-2.702,1.433-4.785,3.044-6.25,4.834v23.975
		c0,2.93,0.203,4.834,0.61,5.713c0.407,0.879,1.009,1.538,1.807,1.978c0.797,0.439,2.417,0.659,4.858,0.659v1.758H0.732v-1.758
		c2.051,0,3.483-0.22,4.297-0.659c0.813-0.439,1.432-1.139,1.855-2.1c0.423-0.96,0.635-2.823,0.635-5.591v-17.09
		c0-4.915-0.146-8.089-0.439-9.521C6.852,8.252,6.494,7.512,6.006,7.104c-0.488-0.407-1.156-0.61-2.002-0.61
		c-0.912,0-2.002,0.244-3.271,0.732L0,5.469L13.477,0h2.1V9.521z"/>
	<path d="M105.419,39.6c-4.59,3.549-7.471,5.6-8.643,6.152c-1.758,0.813-3.63,1.221-5.615,1.221c-3.093,0-5.64-1.058-7.642-3.174
		c-2.002-2.115-3.003-4.898-3.003-8.35c0-2.181,0.488-4.069,1.465-5.664c1.334-2.213,3.653-4.297,6.958-6.25
		c3.304-1.953,8.797-4.329,16.479-7.129v-1.758c0-4.459-0.708-7.52-2.124-9.18s-3.476-2.49-6.177-2.49
		c-2.051,0-3.679,0.554-4.883,1.66c-1.237,1.107-1.855,2.376-1.855,3.809l0.098,2.832c0,1.498-0.383,2.653-1.147,3.467
		c-0.766,0.814-1.767,1.221-3.003,1.221c-1.205,0-2.189-0.423-2.954-1.27c-0.766-0.846-1.147-2.002-1.147-3.467
		c0-2.799,1.432-5.371,4.297-7.715C89.387,1.172,93.408,0,98.583,0c3.971,0,7.227,0.667,9.766,2.002
		c1.92,1.009,3.336,2.588,4.248,4.736c0.586,1.4,0.879,4.265,0.879,8.594v15.186c0,4.265,0.081,6.877,0.244,7.837
		c0.162,0.961,0.431,1.604,0.806,1.929c0.374,0.326,0.806,0.488,1.294,0.488c0.521,0,0.977-0.113,1.367-0.342
		c0.684-0.423,2.002-1.611,3.955-3.564V39.6c-3.646,4.883-7.129,7.324-10.449,7.324c-1.596,0-2.865-0.554-3.809-1.66
		C105.94,44.157,105.452,42.27,105.419,39.6z M105.419,36.426V19.385c-4.916,1.953-8.09,3.337-9.521,4.15
		c-2.572,1.433-4.411,2.93-5.518,4.492c-1.107,1.563-1.66,3.271-1.66,5.127c0,2.344,0.699,4.289,2.1,5.835
		c1.399,1.547,3.011,2.319,4.834,2.319C98.127,41.309,101.382,39.682,105.419,36.426z"/>
	<path d="M122.656,1.318h21.045v1.807c-1.335,0-2.271,0.228-2.808,0.684c-0.537,0.456-0.806,1.058-0.806,1.807
		c0,0.781,0.569,1.986,1.709,3.613c0.357,0.521,0.895,1.335,1.611,2.441l3.174,5.078l3.662-5.078
		c2.344-3.223,3.516-5.257,3.516-6.104c0-0.684-0.277-1.261-0.83-1.733c-0.554-0.472-1.449-0.708-2.686-0.708V1.318h15.137v1.807
		c-1.596,0.098-2.979,0.537-4.15,1.318c-1.596,1.107-3.776,3.516-6.543,7.227l-6.104,8.154l11.133,16.016
		c2.734,3.939,4.688,6.308,5.859,7.104c1.172,0.798,2.686,1.245,4.541,1.343v1.758h-21.094v-1.758c1.465,0,2.604-0.325,3.418-0.977
		c0.618-0.455,0.928-1.058,0.928-1.807c0-0.748-1.042-2.637-3.125-5.664l-6.543-9.57l-7.178,9.57
		c-2.214,2.963-3.32,4.721-3.32,5.273c0,0.781,0.366,1.489,1.099,2.124s1.831,0.985,3.296,1.05v1.758h-14.6v-1.758
		c1.172-0.162,2.197-0.569,3.076-1.221c1.236-0.943,3.32-3.353,6.25-7.227l9.375-12.451l-8.496-12.305
		c-2.409-3.516-4.272-5.721-5.591-6.616c-1.318-0.895-2.971-1.343-4.956-1.343V1.318z"/>
</g>
</svg>
