<?xml version="1.0" encoding="utf-8"?>
<!-- Generator: Adobe Illustrator 14.0.0, SVG Export Plug-In . SVG Version: 6.00 Build 43363)  -->
<!DOCTYPE svg PUBLIC "-//W3C//DTD SVG 1.1//EN" "http://www.w3.org/Graphics/SVG/1.1/DTD/svg11.dtd">
<svg version="1.1" id="图层_1" xmlns="http://www.w3.org/2000/svg" xmlns:xlink="http://www.w3.org/1999/xlink" x="0px" y="0px"
	 width="154.297px" height="69.434px" viewBox="0 0 154.297 69.434" enable-background="new 0 0 154.297 69.434"
	 xml:space="preserve">
<g>
	<path d="M15.576,32.91c3.255-3.255,5.176-5.127,5.762-5.615c1.465-1.237,3.043-2.197,4.736-2.881
		c1.692-0.684,3.369-1.025,5.029-1.025c2.799,0,5.208,0.814,7.227,2.441c2.018,1.628,3.369,3.988,4.053,7.08
		c3.353-3.906,6.185-6.47,8.496-7.69c2.311-1.221,4.688-1.831,7.129-1.831c2.376,0,4.483,0.61,6.323,1.831
		c1.839,1.221,3.296,3.215,4.37,5.981c0.716,1.888,1.074,4.851,1.074,8.887v19.238c0,2.8,0.211,4.721,0.635,5.762
		c0.325,0.717,0.928,1.327,1.807,1.831c0.879,0.505,2.311,0.757,4.297,0.757v1.758h-22.07v-1.758h0.928
		c1.92,0,3.418-0.374,4.492-1.123c0.748-0.521,1.285-1.351,1.611-2.49c0.13-0.553,0.195-2.132,0.195-4.736V40.088
		c0-3.646-0.439-6.217-1.318-7.715c-1.27-2.083-3.305-3.125-6.104-3.125c-1.726,0-3.459,0.432-5.2,1.294
		c-1.742,0.863-3.85,2.466-6.323,4.81l-0.098,0.537l0.098,2.1v21.338c0,3.061,0.171,4.965,0.513,5.713
		c0.342,0.749,0.984,1.376,1.929,1.88c0.943,0.505,2.555,0.757,4.834,0.757v1.758H27.393v-1.758c2.474,0,4.175-0.293,5.103-0.879
		s1.57-1.465,1.929-2.637c0.162-0.553,0.244-2.164,0.244-4.834V40.088c0-3.646-0.537-6.266-1.611-7.861
		c-1.433-2.083-3.435-3.125-6.006-3.125c-1.758,0-3.5,0.472-5.225,1.416c-2.702,1.433-4.785,3.044-6.25,4.834v23.975
		c0,2.93,0.203,4.834,0.61,5.713c0.407,0.879,1.009,1.538,1.807,1.978c0.797,0.439,2.417,0.659,4.858,0.659v1.758H0.732v-1.758
		c2.051,0,3.483-0.22,4.297-0.659c0.813-0.439,1.432-1.139,1.855-2.1c0.423-0.96,0.635-2.823,0.635-5.591v-17.09
		c0-4.915-0.146-8.089-0.439-9.521c-0.228-1.074-0.586-1.814-1.074-2.222c-0.488-0.407-1.156-0.61-2.002-0.61
		c-0.912,0-2.002,0.244-3.271,0.732L0,28.857l13.477-5.469h2.1V32.91z"/>
	<path d="M95.508,23.389v35.938c0,2.8,0.203,4.663,0.61,5.591c0.406,0.928,1.009,1.62,1.807,2.075
		c0.797,0.456,2.254,0.684,4.37,0.684v1.758H80.566v-1.758c2.181,0,3.646-0.211,4.395-0.635c0.748-0.423,1.343-1.123,1.782-2.1
		s0.659-2.848,0.659-5.615V42.09c0-4.85-0.146-7.991-0.439-9.424c-0.229-1.042-0.586-1.766-1.074-2.173
		c-0.488-0.407-1.156-0.61-2.002-0.61c-0.912,0-2.019,0.244-3.32,0.732l-0.684-1.758l13.477-5.469H95.508z M91.455,0
		c1.367,0,2.53,0.48,3.491,1.44c0.96,0.96,1.44,2.124,1.44,3.491s-0.48,2.539-1.44,3.516c-0.961,0.977-2.124,1.465-3.491,1.465
		s-2.539-0.488-3.516-1.465s-1.465-2.148-1.465-3.516s0.479-2.531,1.44-3.491C88.875,0.48,90.055,0,91.455,0z"/>
	<path d="M120.898,32.861c5.24-6.315,10.237-9.473,14.99-9.473c2.441,0,4.541,0.61,6.299,1.831s3.157,3.231,4.199,6.03
		c0.716,1.953,1.074,4.948,1.074,8.984v19.092c0,2.832,0.228,4.753,0.684,5.762c0.357,0.814,0.936,1.449,1.733,1.904
		c0.797,0.456,2.271,0.684,4.419,0.684v1.758h-22.119v-1.758h0.928c2.083,0,3.54-0.317,4.37-0.952s1.407-1.57,1.733-2.808
		c0.13-0.488,0.195-2.018,0.195-4.59V41.016c0-4.069-0.529-7.023-1.587-8.862c-1.059-1.839-2.841-2.759-5.347-2.759
		c-3.874,0-7.731,2.116-11.572,6.348v23.584c0,3.027,0.179,4.899,0.537,5.615c0.455,0.944,1.082,1.636,1.88,2.075
		c0.797,0.439,2.417,0.659,4.858,0.659v1.758h-22.119v-1.758h0.977c2.278,0,3.816-0.577,4.614-1.733
		c0.797-1.155,1.196-3.36,1.196-6.616V42.725c0-5.371-0.122-8.643-0.366-9.814s-0.619-1.969-1.123-2.393
		c-0.505-0.423-1.181-0.635-2.026-0.635c-0.912,0-2.002,0.244-3.271,0.732l-0.732-1.758l13.477-5.469h2.1V32.861z"/>
</g>
</svg>
