<?xml version="1.0" encoding="utf-8"?>
<!-- Generator: Adobe Illustrator 14.0.0, SVG Export Plug-In . SVG Version: 6.00 Build 43363)  -->
<!DOCTYPE svg PUBLIC "-//W3C//DTD SVG 1.1//EN" "http://www.w3.org/Graphics/SVG/1.1/DTD/svg11.dtd">
<svg version="1.1" id="图层_1" xmlns="http://www.w3.org/2000/svg" xmlns:xlink="http://www.w3.org/1999/xlink" x="0px" y="0px"
	 width="52.734px" height="64.6px" viewBox="0 0 52.734 64.6" enable-background="new 0 0 52.734 64.6" xml:space="preserve">
<path d="M19.384,0h7.275L17.87,29.834c-0.684,2.279-1.025,4.021-1.025,5.225c0,1.433,0.48,2.67,1.441,3.711
	c0.959,1.042,2.205,1.563,3.734,1.563c2.604,0,5.525-1.611,8.766-4.834c3.238-3.223,5.541-7.161,6.908-11.816L44.726,0h7.227
	l-8.74,29.688c-0.748,2.572-1.123,4.59-1.123,6.055c0,2.572,1.09,3.857,3.271,3.857c2.377,0,4.248-2.213,5.615-6.641h1.758
	c-1.889,7.487-5.307,11.23-10.254,11.23c-2.148,0-3.881-0.781-5.199-2.344s-1.979-3.58-1.979-6.055c0-0.618,0.064-1.514,0.195-2.686
	c-6.25,7.39-11.752,11.084-16.504,11.084c-3.678,0-6.186-1.627-7.52-4.883C9.716,46.24,8.626,52.148,8.202,57.031
	c-0.293,3.06-0.707,5.086-1.244,6.079C6.421,64.103,5.354,64.6,3.759,64.6c-1.27,0-2.213-0.399-2.832-1.196
	c-0.617-0.798-0.928-1.685-0.928-2.661c0-1.27,0.781-3.549,2.344-6.836c1.922-3.939,3.354-7.536,4.297-10.791L19.384,0z"/>
</svg>
