<?xml version="1.0" encoding="utf-8"?>
<!-- Generator: Adobe Illustrator 14.0.0, SVG Export Plug-In . SVG Version: 6.00 Build 43363)  -->
<!DOCTYPE svg PUBLIC "-//W3C//DTD SVG 1.1//EN" "http://www.w3.org/Graphics/SVG/1.1/DTD/svg11.dtd">
<svg version="1.1" id="图层_1" xmlns="http://www.w3.org/2000/svg" xmlns:xlink="http://www.w3.org/1999/xlink" x="0px" y="0px"
	 width="44.043px" height="45.361px" viewBox="0 0 44.043 45.361" enable-background="new 0 0 44.043 45.361" xml:space="preserve">
<g>
	<path d="M20.166,0l-6.494,22.217c6.087-9.082,10.75-15.056,13.989-17.92C30.899,1.433,34.017,0,37.012,0
		c1.627,0,2.97,0.537,4.028,1.611c1.058,1.074,1.587,2.474,1.587,4.199c0,1.953-0.473,4.558-1.416,7.813L35.254,34.18
		c-0.684,2.377-1.025,3.825-1.025,4.346c0,0.456,0.13,0.839,0.391,1.147c0.26,0.31,0.537,0.464,0.83,0.464
		c0.391,0,0.862-0.211,1.416-0.635c1.725-1.367,3.613-3.45,5.664-6.25l1.514,0.928c-3.027,4.33-5.893,7.422-8.594,9.277
		c-1.889,1.27-3.581,1.904-5.078,1.904c-1.205,0-2.165-0.366-2.881-1.099c-0.717-0.732-1.074-1.717-1.074-2.954
		c0-1.563,0.553-4.248,1.66-8.057l5.664-19.629c0.716-2.441,1.074-4.346,1.074-5.713c0-0.651-0.212-1.18-0.635-1.587
		c-0.424-0.406-0.944-0.61-1.563-0.61c-0.912,0-2.002,0.391-3.271,1.172c-2.409,1.465-4.916,3.882-7.52,7.251
		c-2.604,3.369-5.355,7.674-8.252,12.915c-1.53,2.768-2.8,5.795-3.809,9.082l-2.441,8.057H0l8.887-30.566
		c1.042-3.679,1.563-5.892,1.563-6.641c0-0.716-0.285-1.343-0.854-1.88c-0.57-0.537-1.278-0.806-2.124-0.806
		c-0.391,0-1.074,0.065-2.051,0.195L3.564,4.785L3.271,3.027L20.166,0z"/>
</g>
</svg>
