<?xml version="1.0" encoding="utf-8"?>
<!-- Generator: Adobe Illustrator 14.0.0, SVG Export Plug-In . SVG Version: 6.00 Build 43363)  -->
<!DOCTYPE svg PUBLIC "-//W3C//DTD SVG 1.1//EN" "http://www.w3.org/Graphics/SVG/1.1/DTD/svg11.dtd">
<svg version="1.1" id="图层_1" xmlns="http://www.w3.org/2000/svg" xmlns:xlink="http://www.w3.org/1999/xlink" x="0px" y="0px"
	 width="49.756px" height="74.707px" viewBox="0 0 49.756 74.707" enable-background="new 0 0 49.756 74.707" xml:space="preserve">
<path d="M45.557,0l-3.418,8.594h7.617v6.787H39.453l-7.275,18.31h17.578v6.787H29.443L22.07,59.082
	c1.236,0.164,3.011,0.244,5.322,0.244h22.363v6.787H27.197c-3.19,0-5.762-0.162-7.715-0.488l-3.613,9.082h-5.664l4.102-10.352
	c-1.498-0.52-2.816-1.172-3.955-1.953c-1.14-0.781-2.23-1.74-3.271-2.881c-1.042-1.139-1.978-2.359-2.808-3.662
	c-0.83-1.301-1.571-2.84-2.222-4.613c-0.651-1.775-1.156-3.809-1.514-6.104C0.179,42.847,0,40.365,0,37.695
	c0-5.143,0.504-9.399,1.514-12.768c1.009-3.369,2.701-6.364,5.078-8.984c2.376-2.62,5.225-4.5,8.545-5.64
	c3.32-1.139,7.617-1.709,12.891-1.709h8.447L39.893,0H45.557z M16.943,57.812l6.836-17.334H7.715
	c0.26,4.818,1.155,8.619,2.686,11.402C11.93,54.664,14.111,56.64,16.943,57.812z M7.764,33.691h18.701l7.275-18.31h-5.762
	c-3.223,0-5.835,0.179-7.837,0.537c-2.002,0.358-3.671,0.936-5.005,1.733c-1.335,0.798-2.548,1.929-3.638,3.394
	c-1.091,1.465-1.945,3.264-2.563,5.396C8.316,28.573,7.926,30.99,7.764,33.691z"/>
</svg>
