<?xml version="1.0" encoding="utf-8"?>
<!-- Generator: Adobe Illustrator 14.0.0, SVG Export Plug-In . SVG Version: 6.00 Build 43363)  -->
<!DOCTYPE svg PUBLIC "-//W3C//DTD SVG 1.1//EN" "http://www.w3.org/Graphics/SVG/1.1/DTD/svg11.dtd">
<svg version="1.1" id="图层_1" xmlns="http://www.w3.org/2000/svg" xmlns:xlink="http://www.w3.org/1999/xlink" x="0px" y="0px"
	 width="43.311px" height="45.361px" viewBox="0 0 43.311 45.361" enable-background="new 0 0 43.311 45.361" xml:space="preserve">
<g>
	<path d="M43.311,15.283c0,4.883-1.294,9.717-3.882,14.502s-6.193,8.578-10.815,11.377c-4.623,2.8-9.115,4.199-13.477,4.199
		c-4.46,0-8.098-1.424-10.913-4.272C1.408,38.241,0,34.555,0,30.029c0-4.785,1.375-9.587,4.126-14.404
		c2.75-4.817,6.429-8.626,11.035-11.426C19.767,1.399,24.219,0,28.516,0s7.837,1.416,10.62,4.248S43.311,10.759,43.311,15.283z
		 M35.205,11.914c0-3.027-0.741-5.347-2.222-6.958c-1.481-1.611-3.394-2.417-5.737-2.417c-4.785,0-9.188,3.427-13.208,10.278
		c-4.021,6.853-6.03,13.664-6.03,20.435c0,3.093,0.781,5.478,2.344,7.153c1.563,1.677,3.532,2.515,5.908,2.515
		c4.59,0,8.895-3.409,12.915-10.229C33.194,25.871,35.205,18.945,35.205,11.914z"/>
</g>
</svg>
