<?xml version="1.0" encoding="utf-8"?>
<!-- Generator: Adobe Illustrator 14.0.0, SVG Export Plug-In . SVG Version: 6.00 Build 43363)  -->
<!DOCTYPE svg PUBLIC "-//W3C//DTD SVG 1.1//EN" "http://www.w3.org/Graphics/SVG/1.1/DTD/svg11.dtd">
<svg version="1.1" id="图层_1" xmlns="http://www.w3.org/2000/svg" xmlns:xlink="http://www.w3.org/1999/xlink" x="0px" y="0px"
	 width="48.78px" height="108.252px" viewBox="-5.665 -13.516 48.78 108.252" enable-background="new -5.665 -13.516 48.78 108.252"
	 xml:space="preserve">
<path fill="#231F20" d="M41.894-2.432h-5.029c-0.262-1.432-0.781-2.612-1.563-3.54s-1.824-1.392-3.125-1.392
	c-3.484,0-5.779,2.832-6.885,8.496c-0.586,3.027-1.01,8.171-1.27,15.43c3.449,0.879,6.25,2.051,8.398,3.516
	c2.18,1.465,4.068,3.239,5.664,5.322c1.594,2.083,2.832,4.419,3.711,7.007s1.318,5.314,1.318,8.179c0,3.386-0.547,6.479-1.637,9.277
	c-1.09,2.8-2.596,5.233-4.516,7.3c-1.922,2.067-4.199,3.752-6.836,5.054c-2.441,1.205-5.063,2.002-7.861,2.393
	c-0.75,5.795-1.824,10.904-3.223,15.332c-3.061,9.863-8.48,14.795-16.26,14.795c-1.563,0-2.93-0.131-4.102-0.391
	c-1.172-0.261-2.312-0.684-3.418-1.27l0.635-9.619h4.59c0.423,1.563,1.05,2.848,1.88,3.857c0.83,1.009,2.01,1.514,3.54,1.514
	c3.418,0,5.567-3.549,6.446-10.645c0.455-3.711,0.797-8.35,1.025-13.916c-3.484-0.748-6.316-1.871-8.497-3.369
	c-2.246-1.529-4.143-3.32-5.688-5.371c-1.547-2.051-2.743-4.338-3.589-6.86c-0.847-2.522-1.27-5.2-1.27-8.032
	c0-3.223,0.521-6.233,1.563-9.033c1.041-2.799,2.506-5.273,4.395-7.422c1.888-2.148,4.166-3.906,6.836-5.273
	c2.442-1.237,5.143-2.067,8.106-2.49c0.781-6.185,1.855-11.328,3.223-15.43c3.223-9.668,8.789-14.502,16.699-14.502
	c1.139,0,2.4,0.155,3.783,0.464c1.383,0.31,2.564,0.692,3.541,1.147L41.894-2.432z M9.326,24.081
	c-1.824,1.042-3.403,2.376-4.737,4.004c-1.335,1.628-2.377,3.5-3.125,5.615c-0.749,2.116-1.123,4.428-1.123,6.934
	c0,2.051,0.284,4.012,0.854,5.884c0.569,1.872,1.367,3.589,2.393,5.151s2.303,2.979,3.833,4.248
	c1.497,1.205,3.532,2.133,6.104,2.783c0.098-3.516,0.146-7.34,0.146-11.475c0-9.57,0.324-17.969,0.977-25.195
	C12.726,22.454,10.953,23.137,9.326,24.081z M28.32,56.894c1.855-1.074,3.434-2.433,4.736-4.077
	c1.301-1.644,2.303-3.532,3.002-5.664s1.051-4.468,1.051-7.007c0-2.148-0.311-4.158-0.928-6.03
	c-0.619-1.872-1.465-3.564-2.539-5.078s-2.354-2.824-3.834-3.931c-1.48-1.106-3.475-2.1-5.98-2.979
	c-0.098,5.111-0.146,11.052-0.146,17.822c0,6.934-0.262,13.281-0.781,19.043C24.885,58.571,26.691,57.87,28.32,56.894z"/>
</svg>
