<?xml version="1.0" encoding="utf-8"?>
<!-- Generator: Adobe Illustrator 14.0.0, SVG Export Plug-In . SVG Version: 6.00 Build 43363)  -->
<!DOCTYPE svg PUBLIC "-//W3C//DTD SVG 1.1//EN" "http://www.w3.org/Graphics/SVG/1.1/DTD/svg11.dtd">
<svg version="1.1" id="图层_1" xmlns="http://www.w3.org/2000/svg" xmlns:xlink="http://www.w3.org/1999/xlink" x="0px" y="0px"
	 width="62.597px" height="45.361px" viewBox="0 0 62.597 45.361" enable-background="new 0 0 62.597 45.361" xml:space="preserve">
<path d="M29.443,0l-0.732,2.49C21.582,2.751,16.316,6.511,12.915,13.77c-3.402,7.259-5.103,13.933-5.103,20.02
	c0,2.702,0.594,4.785,1.782,6.25c1.188,1.465,2.774,2.197,4.761,2.197c4.72,0,9.212-3.727,13.477-11.182
	c-0.163-2.344-0.244-4.167-0.244-5.469c0-5.078,0.748-9.399,2.246-12.964c1.497-3.564,3.369-5.347,5.615-5.347
	c2.213,0,3.32,1.14,3.32,3.418c0,4.525-2.93,11.458-8.789,20.801c0.716,6.901,3.531,10.352,8.447,10.352
	c4.883,0,8.863-3.418,11.939-10.254s4.613-13.249,4.613-19.238c0-5.762-3.092-9.049-9.277-9.863l0.537-2.002
	c5.697,0.488,9.848,2.319,12.451,5.493s3.906,6.909,3.906,11.206c0,6.315-2.141,12.59-6.42,18.823
	c-4.281,6.234-9.727,9.351-16.334,9.351c-6.966,0-10.856-3.694-11.669-11.084c-4.46,7.39-9.44,11.084-14.941,11.084
	c-3.874,0-7.048-1.392-9.521-4.175C1.236,38.403,0,34.489,0,29.443c0-4.297,0.895-8.528,2.686-12.695
	c1.79-4.167,4.272-7.584,7.446-10.254c3.174-2.669,6.128-4.402,8.862-5.2C21.729,0.497,25.211,0.065,29.443,0z"/>
</svg>
