<?xml version="1.0" encoding="utf-8"?>
<!-- Generator: Adobe Illustrator 14.0.0, SVG Export Plug-In . SVG Version: 6.00 Build 43363)  -->
<!DOCTYPE svg PUBLIC "-//W3C//DTD SVG 1.1//EN" "http://www.w3.org/Graphics/SVG/1.1/DTD/svg11.dtd">
<svg version="1.1" id="图层_1" xmlns="http://www.w3.org/2000/svg" xmlns:xlink="http://www.w3.org/1999/xlink" x="0px" y="0px"
	 width="43.311px" height="45.361px" viewBox="0 0 43.311 45.361" enable-background="new 0 0 43.311 45.361" xml:space="preserve">
<path d="M43.31,15.283c0,4.883-1.293,9.717-3.881,14.502s-6.193,8.578-10.816,11.377c-4.623,2.8-9.115,4.199-13.477,4.199
	c-4.459,0-8.098-1.424-10.912-4.272c-2.816-2.849-4.225-6.534-4.225-11.06c0-4.785,1.375-9.586,4.127-14.404
	c2.75-4.817,6.428-8.626,11.035-11.426C19.767,1.4,24.218,0,28.515,0s7.838,1.416,10.621,4.248S43.31,10.759,43.31,15.283z
	 M35.204,11.914c0-3.027-0.74-5.347-2.221-6.958c-1.482-1.611-3.395-2.417-5.738-2.417c-4.785,0-9.188,3.426-13.207,10.278
	c-4.021,6.853-6.031,13.664-6.031,20.435c0,3.093,0.781,5.477,2.344,7.153s3.531,2.515,5.908,2.515c4.59,0,8.895-3.41,12.916-10.229
	C33.194,25.871,35.204,18.945,35.204,11.914z"/>
</svg>
