<?xml version="1.0" encoding="utf-8"?>
<!-- Generator: Adobe Illustrator 14.0.0, SVG Export Plug-In . SVG Version: 6.00 Build 43363)  -->
<!DOCTYPE svg PUBLIC "-//W3C//DTD SVG 1.1//EN" "http://www.w3.org/Graphics/SVG/1.1/DTD/svg11.dtd">
<svg version="1.1" id="图层_1" xmlns="http://www.w3.org/2000/svg" xmlns:xlink="http://www.w3.org/1999/xlink" x="0px" y="0px"
	 width="26.953px" height="90.82px" viewBox="0 0 26.953 90.82" enable-background="new 0 0 26.953 90.82" xml:space="preserve">
<path d="M26.953,89.014v1.807c-4.916-2.475-9.018-5.371-12.305-8.691C9.961,77.408,6.348,71.842,3.809,65.43S0,52.36,0,45.459
	c0-10.091,2.49-19.295,7.471-27.612C12.451,9.53,18.945,3.581,26.953,0v2.051c-4.004,2.214-7.292,5.241-9.863,9.082
	c-2.572,3.841-4.492,8.708-5.762,14.6c-1.27,5.892-1.904,12.044-1.904,18.457c0,6.967,0.537,13.298,1.611,18.994
	c0.846,4.492,1.871,8.097,3.076,10.815c1.204,2.718,2.823,5.33,4.858,7.837C21.004,84.342,23.665,86.734,26.953,89.014z"/>
</svg>
