<?xml version="1.0" encoding="utf-8"?>
<!-- Generator: Adobe Illustrator 14.0.0, SVG Export Plug-In . SVG Version: 6.00 Build 43363)  -->
<!DOCTYPE svg PUBLIC "-//W3C//DTD SVG 1.1//EN" "http://www.w3.org/Graphics/SVG/1.1/DTD/svg11.dtd">
<svg version="1.1" id="图层_1" xmlns="http://www.w3.org/2000/svg" xmlns:xlink="http://www.w3.org/1999/xlink" x="0px" y="0px"
	 width="58.301px" height="65.576px" viewBox="0 0 58.301 65.576" enable-background="new 0 0 58.301 65.576" xml:space="preserve">
<g>
	<path d="M33.155,0l-3.369,11.23c3.548-4.167,6.714-7.08,9.497-8.74S44.906,0,47.803,0c2.896,0,5.371,1.147,7.422,3.442
		s3.076,5.281,3.076,8.96c0,7.161-2.914,14.445-8.74,21.851C43.734,41.659,36.947,45.361,29.2,45.361
		c-1.628,0-3.068-0.18-4.321-0.537c-1.253-0.358-2.661-0.992-4.224-1.904L17.09,55.518c-0.716,2.474-1.074,4.085-1.074,4.834
		c0,0.716,0.187,1.326,0.562,1.831c0.374,0.504,0.984,0.895,1.831,1.172c0.846,0.276,2.522,0.415,5.029,0.415l-0.439,1.807H0
		l0.488-1.807c3.027-0.131,5.07-0.651,6.128-1.563c1.058-0.912,2.173-3.435,3.345-7.568l12.354-42.773
		c0.749-2.702,1.123-4.378,1.123-5.029c0-0.879-0.252-1.563-0.757-2.051c-0.505-0.488-1.278-0.732-2.319-0.732
		c-0.944,0-2.263,0.114-3.955,0.342V2.49L33.155,0z M21.778,39.063c2.018,2.409,4.736,3.613,8.154,3.613
		c1.692,0,3.418-0.472,5.176-1.416c1.758-0.943,3.475-2.344,5.151-4.199c1.676-1.855,3.182-3.995,4.517-6.421
		c1.334-2.425,2.53-5.281,3.589-8.569c1.058-3.288,1.587-6.543,1.587-9.766c0-2.604-0.595-4.598-1.782-5.981
		c-1.188-1.383-2.58-2.075-4.175-2.075c-3.516,0-6.991,2.019-10.425,6.055c-3.435,4.036-5.949,8.757-7.544,14.16L21.778,39.063z"/>
</g>
</svg>
