<?xml version="1.0" encoding="utf-8"?>
<!-- Generator: Adobe Illustrator 14.0.0, SVG Export Plug-In . SVG Version: 6.00 Build 43363)  -->
<!DOCTYPE svg PUBLIC "-//W3C//DTD SVG 1.1//EN" "http://www.w3.org/Graphics/SVG/1.1/DTD/svg11.dtd">
<svg version="1.1" id="图层_1" xmlns="http://www.w3.org/2000/svg" xmlns:xlink="http://www.w3.org/1999/xlink" x="0px" y="0px"
	 width="45.459px" height="70.947px" viewBox="0 0 45.459 70.947" enable-background="new 0 0 45.459 70.947" xml:space="preserve">
<path d="M42.236,34.424c0.391-3.678,0.586-6.706,0.586-9.082c0-5.859-1.538-10.392-4.614-13.599c-3.076-3.206-7.17-4.81-12.28-4.81
	c-3.451,0-6.315,0.651-8.594,1.953c-2.279,1.302-4.313,3.239-6.104,5.811H8.984c2.506-5.143,5.208-8.878,8.105-11.206
	C19.986,1.164,23.486,0,27.588,0c2.93,0,5.786,0.798,8.569,2.393c2.783,1.595,5.029,4.167,6.738,7.715
	c1.709,3.548,2.563,8.35,2.563,14.404c0,11.523-2.507,21.875-7.52,31.055C32.308,65.82,25.179,70.947,16.553,70.947
	c-5.078,0-9.106-1.465-12.085-4.395S0,59.636,0,54.59c0-3.809,0.757-7.544,2.271-11.206s3.426-6.763,5.737-9.302
	c2.311-2.539,4.883-4.557,7.715-6.055c3.678-1.953,7.422-2.93,11.23-2.93c2.669,0,5.086,0.513,7.251,1.538
	c2.164,1.025,3.946,2.271,5.347,3.735C40.43,31.283,41.324,32.634,42.236,34.424z M41.406,38.77
	c-1.27-3.613-3.166-6.348-5.688-8.203c-2.523-1.855-5.298-2.783-8.325-2.783c-2.93,0-5.811,1.009-8.643,3.027
	c-2.832,2.019-5.29,5.559-7.373,10.62c-2.084,5.062-3.125,10.116-3.125,15.161c0,3.711,0.895,6.567,2.686,8.569
	c1.79,2.002,4.068,3.003,6.836,3.003c4.004,0,8.089-2.115,12.256-6.348C35.335,56.413,39.127,48.73,41.406,38.77z"/>
</svg>
