<?xml version="1.0" encoding="utf-8"?>
<!-- Generator: Adobe Illustrator 14.0.0, SVG Export Plug-In . SVG Version: 6.00 Build 43363)  -->
<!DOCTYPE svg PUBLIC "-//W3C//DTD SVG 1.1//EN" "http://www.w3.org/Graphics/SVG/1.1/DTD/svg11.dtd">
<svg version="1.1" id="图层_1" xmlns="http://www.w3.org/2000/svg" xmlns:xlink="http://www.w3.org/1999/xlink" x="0px" y="0px"
	 width="76.318px" height="70.459px" viewBox="0 0 76.318 70.459" enable-background="new 0 0 76.318 70.459" xml:space="preserve">
<path d="M14.258,0c4.395,0,7.804,1.823,10.229,5.469c2.425,3.646,3.638,7.829,3.638,12.549c0,5.664-1.367,10.042-4.102,13.135
	c-2.734,3.093-6.022,4.639-9.863,4.639c-2.572,0-4.932-0.708-7.08-2.124s-3.866-3.523-5.151-6.323C0.643,24.544,0,21.436,0,18.018
	s0.65-6.567,1.953-9.448C3.255,5.688,5.037,3.54,7.3,2.124C9.562,0.708,11.881,0,14.258,0z M14.111,2.734
	c-1.66,0-3.134,0.977-4.419,2.93c-1.286,1.953-1.929,6.055-1.929,12.305c0,4.525,0.357,7.976,1.074,10.352
	c0.553,1.791,1.416,3.174,2.588,4.15c0.684,0.586,1.529,0.879,2.539,0.879c1.563,0,2.896-0.846,4.004-2.539
	c1.627-2.506,2.441-6.689,2.441-12.549c0-6.185-0.798-10.53-2.393-13.037C16.976,3.564,15.674,2.734,14.111,2.734z M64.453,0
	L16.211,70.459h-4.346L60.107,0H64.453z M62.207,34.863c2.311,0,4.614,0.732,6.909,2.197s4.068,3.598,5.322,6.396
	c1.253,2.8,1.88,5.876,1.88,9.229c0,5.762-1.384,10.165-4.15,13.208c-2.768,3.043-6.039,4.565-9.814,4.565
	c-2.377,0-4.68-0.732-6.909-2.197c-2.23-1.465-3.988-3.556-5.273-6.274c-1.286-2.718-1.929-5.818-1.929-9.302
	c0-3.418,0.643-6.543,1.929-9.375c1.285-2.832,3.043-4.947,5.273-6.348C57.674,35.563,59.928,34.863,62.207,34.863z M62.256,37.451
	c-1.563,0-2.914,0.879-4.053,2.637c-1.465,2.279-2.197,6.592-2.197,12.939c0,5.827,0.748,9.896,2.246,12.207
	c1.106,1.66,2.441,2.49,4.004,2.49c1.497,0,2.832-0.895,4.004-2.686c1.563-2.376,2.344-6.461,2.344-12.256
	c0-6.119-0.781-10.4-2.344-12.842C65.186,38.281,63.851,37.451,62.256,37.451z"/>
</svg>
