<?xml version="1.0" encoding="utf-8"?>
<!-- Generator: Adobe Illustrator 14.0.0, SVG Export Plug-In . SVG Version: 6.00 Build 43363)  -->
<!DOCTYPE svg PUBLIC "-//W3C//DTD SVG 1.1//EN" "http://www.w3.org/Graphics/SVG/1.1/DTD/svg11.dtd">
<svg version="1.1" id="图层_1" xmlns="http://www.w3.org/2000/svg" xmlns:xlink="http://www.w3.org/1999/xlink" x="0px" y="0px"
	 width="45.068px" height="90.82px" viewBox="0 0 45.068 90.82" enable-background="new 0 0 45.068 90.82" xml:space="preserve">
<path d="M45.068,40.576c0,7.617-2.701,14.355-8.105,20.215c-5.209,5.664-11.295,8.821-18.262,9.473L12.988,90.82H7.959l5.713-20.41
	c-4.068-0.065-7.34-1.416-9.814-4.053C1.285,63.623,0,59.929,0,55.273c0-7.617,2.734-14.388,8.203-20.313
	c5.273-5.729,11.344-8.87,18.213-9.424L33.74,0h4.98l-7.275,25.488c4.004,0.293,7.227,1.693,9.668,4.199
	C43.75,32.39,45.068,36.019,45.068,40.576z M25.684,28.223c-5.143,1.074-9.439,4.753-12.891,11.035
	C9.604,45.02,8.008,51.107,8.008,57.52c0,2.344,0.553,4.411,1.66,6.201c1.172,1.889,2.783,3.109,4.834,3.662L25.684,28.223z
	 M37.061,38.33c0-2.311-0.57-4.378-1.709-6.201c-1.205-1.953-2.783-3.19-4.736-3.711l-11.133,39.16
	c5.111-1.074,9.391-4.752,12.842-11.035C35.482,50.814,37.061,44.743,37.061,38.33z"/>
</svg>
