<?xml version="1.0" encoding="utf-8"?>
<!-- Generator: Adobe Illustrator 14.0.0, SVG Export Plug-In . SVG Version: 6.00 Build 43363)  -->
<!DOCTYPE svg PUBLIC "-//W3C//DTD SVG 1.1//EN" "http://www.w3.org/Graphics/SVG/1.1/DTD/svg11.dtd">
<svg version="1.1" id="图层_1" xmlns="http://www.w3.org/2000/svg" xmlns:xlink="http://www.w3.org/1999/xlink" x="0px" y="0px"
	 width="50.782px" height="44.189px" viewBox="0 0 50.782 44.189" enable-background="new 0 0 50.782 44.189" xml:space="preserve">
<path d="M50.781,0l-2.002,6.885h-11.67L31.396,26.27c-1.041,3.581-1.563,6.234-1.563,7.959c0,1.27,0.398,2.319,1.197,3.149
	c0.797,0.83,1.846,1.245,3.148,1.245c2.768,0,4.98-2.148,6.641-6.445h1.904c-2.182,8.008-6.104,12.012-11.768,12.012
	c-2.377,0-4.289-0.7-5.736-2.1c-1.449-1.399-2.174-3.385-2.174-5.957c0-2.018,0.473-4.834,1.416-8.447l1.221-4.639
	c0.098-0.455,0.244-1.009,0.439-1.66l4.59-14.502H20.8l-5.176,17.822c-2.377,8.171-4.256,13.461-5.639,15.869
	c-1.385,2.409-3.199,3.613-5.445,3.613c-1.139,0-2.182-0.351-3.125-1.05S0,41.504,0,40.332c0-1.563,1.188-3.727,3.564-6.494
	c5.893-6.9,10.27-15.885,13.135-26.953h-3.564c-5.6,0-9.213,1.726-10.84,5.176H0.439C3.402,4.021,8.609,0,16.064,0H50.781z"/>
</svg>
