<?xml version="1.0" encoding="utf-8"?>
<!-- Generator: Adobe Illustrator 14.0.0, SVG Export Plug-In . SVG Version: 6.00 Build 43363)  -->
<!DOCTYPE svg PUBLIC "-//W3C//DTD SVG 1.1//EN" "http://www.w3.org/Graphics/SVG/1.1/DTD/svg11.dtd">
<svg version="1.1" id="图层_1" xmlns="http://www.w3.org/2000/svg" xmlns:xlink="http://www.w3.org/1999/xlink" x="0px" y="0px"
	 width="87.891px" height="66.211px" viewBox="0 0 87.891 66.211" enable-background="new 0 0 87.891 66.211" xml:space="preserve">
<g>
	<path d="M18.848,35.205v19.287c0,4.167,0.456,6.755,1.367,7.764c1.237,1.433,3.108,2.148,5.615,2.148h2.539v1.807H0v-1.807h2.49
		c2.799,0,4.801-0.911,6.006-2.734c0.651-1.009,0.977-3.401,0.977-7.178V11.719c0-4.167-0.439-6.754-1.318-7.764
		C6.885,2.523,4.997,1.807,2.49,1.807H0V0h24.268c5.924,0,10.596,0.61,14.014,1.831s6.299,3.28,8.643,6.177
		c2.344,2.897,3.516,6.332,3.516,10.303c0,5.404-1.782,9.798-5.347,13.184c-3.564,3.386-8.603,5.078-15.112,5.078
		c-1.596,0-3.32-0.114-5.176-0.342C22.949,36.003,20.963,35.661,18.848,35.205z M18.848,32.422c1.725,0.326,3.255,0.57,4.59,0.732
		c1.334,0.163,2.474,0.244,3.418,0.244c3.385,0,6.307-1.31,8.765-3.931c2.457-2.62,3.687-6.014,3.687-10.181
		c0-2.864-0.586-5.525-1.758-7.983c-1.172-2.458-2.832-4.297-4.98-5.518s-4.59-1.831-7.324-1.831c-1.66,0-3.792,0.31-6.396,0.928
		V32.422z"/>
	<path d="M70.166,20.166v10.059c3.743-6.706,7.584-10.059,11.523-10.059c1.79,0,3.271,0.545,4.443,1.636
		c1.172,1.091,1.758,2.352,1.758,3.784c0,1.27-0.424,2.344-1.27,3.223c-0.847,0.879-1.855,1.318-3.027,1.318
		c-1.14,0-2.417-0.562-3.833-1.685s-2.466-1.685-3.149-1.685c-0.586,0-1.221,0.326-1.904,0.977
		c-1.465,1.335-2.979,3.532-4.541,6.592v21.436c0,2.475,0.309,4.346,0.928,5.615c0.423,0.879,1.172,1.611,2.246,2.197
		s2.62,0.879,4.639,0.879v1.758h-22.9v-1.758c2.278,0,3.971-0.357,5.078-1.074c0.813-0.521,1.383-1.351,1.709-2.49
		c0.162-0.553,0.244-2.132,0.244-4.736V38.818c0-5.208-0.106-8.309-0.317-9.302c-0.212-0.993-0.603-1.717-1.172-2.173
		c-0.57-0.456-1.278-0.684-2.124-0.684c-1.01,0-2.148,0.244-3.418,0.732l-0.488-1.758l13.525-5.469H70.166z"/>
</g>
</svg>
