<?xml version="1.0" encoding="utf-8"?>
<!-- Generator: Adobe Illustrator 14.0.0, SVG Export Plug-In . SVG Version: 6.00 Build 43363)  -->
<!DOCTYPE svg PUBLIC "-//W3C//DTD SVG 1.1//EN" "http://www.w3.org/Graphics/SVG/1.1/DTD/svg11.dtd">
<svg version="1.1" id="图层_1" xmlns="http://www.w3.org/2000/svg" xmlns:xlink="http://www.w3.org/1999/xlink" x="0px" y="0px"
	 width="107.193px" height="103.455px" viewBox="0 0 107.193 103.455" enable-background="new 0 0 107.193 103.455"
	 xml:space="preserve">
<g>
	<path d="M77.591,5.646H29.602V84.61c0,6.816,0.878,11.139,2.633,12.97c1.754,1.831,5.861,2.849,12.32,3.052v2.823H0v-2.823
		c6.409-0.203,10.503-1.221,12.284-3.052c1.78-1.831,2.67-6.153,2.67-12.97V18.845c0-6.815-0.89-11.139-2.67-12.97
		C10.503,4.044,6.409,3.027,0,2.823V0h107.193v2.823c-6.409,0.204-10.504,1.221-12.283,3.052c-1.782,1.831-2.671,6.154-2.671,12.97
		V84.61c0,6.816,0.889,11.139,2.671,12.97c1.779,1.831,5.874,2.849,12.283,3.052v2.823H62.714v-2.823
		c6.356-0.203,10.425-1.207,12.207-3.014c1.779-1.805,2.67-6.142,2.67-13.008V5.646z"/>
</g>
</svg>
