<?xml version="1.0" encoding="utf-8"?>
<!-- Generator: Adobe Illustrator 14.0.0, SVG Export Plug-In . SVG Version: 6.00 Build 43363)  -->
<!DOCTYPE svg PUBLIC "-//W3C//DTD SVG 1.1//EN" "http://www.w3.org/Graphics/SVG/1.1/DTD/svg11.dtd">
<svg version="1.1" id="图层_1" xmlns="http://www.w3.org/2000/svg" xmlns:xlink="http://www.w3.org/1999/xlink" x="0px" y="0px"
	 width="60.498px" height="48.73px" viewBox="0 0 60.498 48.73" enable-background="new 0 0 60.498 48.73" xml:space="preserve">
<path d="M60.498,47.949c-2.084,0.521-3.972,0.781-5.664,0.781c-4.167,0-7.797-1.447-10.889-4.346
	c-3.093-2.896-6.071-7.502-8.936-13.818c-3.19,5.404-6.308,9.295-9.351,11.67c-3.044,2.377-6.372,3.564-9.985,3.564
	c-3.093,0-5.835-0.943-8.228-2.832c-2.393-1.887-4.232-4.451-5.518-7.689C0.643,32.039,0,28.451,0,24.511
	c0-4.004,0.716-7.69,2.148-11.059C3.58,10.083,5.518,7.479,7.959,5.64c2.441-1.839,5.176-2.759,8.203-2.759
	c2.571,0,4.842,0.497,6.812,1.489c1.969,0.993,3.873,2.547,5.713,4.663c1.839,2.116,3.946,5.192,6.323,9.229
	c2.181-4.167,4.305-7.609,6.372-10.327c2.066-2.718,4.248-4.72,6.543-6.006C50.22,0.643,52.994,0,56.25,0
	c1.627,0,3.027,0.146,4.199,0.439l-1.563,7.568c-0.977-0.163-1.889-0.244-2.734-0.244c-2.214,0-4.191,0.505-5.933,1.514
	c-1.742,1.009-3.516,2.669-5.322,4.98c-1.807,2.312-3.979,5.697-6.519,10.156c1.595,3.094,3.149,5.738,4.663,7.936
	s2.962,3.906,4.346,5.127c1.383,1.221,2.774,2.115,4.175,2.686c1.399,0.568,2.945,0.854,4.639,0.854
	c1.009,0,1.888-0.064,2.637-0.195L60.498,47.949z M31.641,24.414c-2.865-4.98-5.502-8.528-7.91-10.644
	c-2.409-2.116-4.932-3.174-7.568-3.174c-1.921,0-3.654,0.488-5.2,1.465c-1.547,0.977-2.775,2.482-3.687,4.517
	c-0.912,2.035-1.367,4.549-1.367,7.543c0,3.289,0.479,5.99,1.44,8.105c0.96,2.117,2.205,3.621,3.735,4.518
	c1.529,0.895,3.223,1.342,5.078,1.342c2.799,0,5.46-1.115,7.983-3.344C26.668,32.511,29.166,29.07,31.641,24.414z"/>
</svg>
