<?xml version="1.0" encoding="utf-8"?>
<!-- Generator: Adobe Illustrator 14.0.0, SVG Export Plug-In . SVG Version: 6.00 Build 43363)  -->
<!DOCTYPE svg PUBLIC "-//W3C//DTD SVG 1.1//EN" "http://www.w3.org/Graphics/SVG/1.1/DTD/svg11.dtd">
<svg version="1.1" id="图层_1" xmlns="http://www.w3.org/2000/svg" xmlns:xlink="http://www.w3.org/1999/xlink" x="0px" y="0px"
	 width="57.714px" height="65.576px" viewBox="0 0 57.714 65.576" enable-background="new 0 0 57.714 65.576" xml:space="preserve">
<path d="M27.636,1.172h4.785L19.58,43.311c4.068,0,7.438-1.188,10.107-3.564c2.67-2.376,5.127-7.063,7.373-14.063l3.418-10.645
	c1.627-5.11,3.76-8.895,6.396-11.353C49.511,1.229,52.279,0,55.175,0c0.846,0,1.693,0.13,2.539,0.391v1.807
	c-2.832,0.033-4.996,2.279-6.494,6.738L47.46,20.41c-2.051,6.186-4.223,10.954-6.518,14.307c-2.295,3.354-5.314,5.974-9.059,7.861
	s-8.057,2.832-12.939,2.832L12.89,65.576H7.958l6.104-20.166c-4.199-0.554-7.592-2.344-10.18-5.371S0,33.61,0,29.834
	c0-3.353,0.912-8.252,2.734-14.697c0.977-3.483,1.465-6.038,1.465-7.666c0-3.45-1.172-5.176-3.516-5.176
	c-0.131,0-0.326,0.017-0.586,0.049L0.39,0.537C1.464,0.179,2.505,0,3.515,0c2.572,0,4.582,0.936,6.031,2.808
	c1.447,1.872,2.172,4.403,2.172,7.593c0,3.093-0.748,7.08-2.246,11.963c-1.465,4.851-2.197,8.285-2.197,10.303
	c0,2.67,0.66,4.98,1.979,6.934s3.133,3.19,5.443,3.711L27.636,1.172z"/>
</svg>
