<?xml version="1.0" encoding="utf-8"?>
<!-- Generator: Adobe Illustrator 14.0.0, SVG Export Plug-In . SVG Version: 6.00 Build 43363)  -->
<!DOCTYPE svg PUBLIC "-//W3C//DTD SVG 1.1//EN" "http://www.w3.org/Graphics/SVG/1.1/DTD/svg11.dtd">
<svg version="1.1" id="图层_1" xmlns="http://www.w3.org/2000/svg" xmlns:xlink="http://www.w3.org/1999/xlink" x="0px" y="0px"
	 width="35.889px" height="69.043px" viewBox="0 0 35.889 69.043" enable-background="new 0 0 35.889 69.043" xml:space="preserve">
<path d="M17.676,52.1h-2.002c0.228-4.102,0.74-7.495,1.538-10.181c0.797-2.686,2.449-6.421,4.956-11.206
	c1.953-3.678,3.223-6.502,3.809-8.472c0.586-1.969,0.879-3.963,0.879-5.981c0-4.134-1.099-7.422-3.296-9.863
	s-4.892-3.662-8.081-3.662c-2.832,0-5.063,0.667-6.689,2.002C7.161,6.071,6.348,7.52,6.348,9.082c0,1.205,0.488,2.686,1.465,4.443
	s1.465,3.093,1.465,4.004c0,1.172-0.375,2.157-1.123,2.954c-0.749,0.798-1.66,1.196-2.734,1.196c-1.367,0-2.612-0.675-3.735-2.026
	C0.562,18.303,0,16.423,0,14.014c0-3.678,1.578-6.934,4.736-9.766C7.894,1.416,12.174,0,17.578,0c6.705,0,11.637,1.953,14.795,5.859
	c2.344,2.865,3.516,6.039,3.516,9.521c0,2.376-0.529,4.818-1.587,7.324c-1.059,2.507-3.068,5.453-6.03,8.838
	c-4.721,5.339-7.609,9.123-8.667,11.353C18.546,45.125,17.903,48.193,17.676,52.1z M16.992,58.154c1.529,0,2.823,0.529,3.882,1.587
	c1.058,1.059,1.587,2.353,1.587,3.882c0,1.498-0.537,2.775-1.611,3.833s-2.36,1.587-3.857,1.587c-1.498,0-2.775-0.529-3.833-1.587
	c-1.059-1.058-1.587-2.335-1.587-3.833c0-1.529,0.528-2.823,1.587-3.882C14.217,58.684,15.494,58.154,16.992,58.154z"/>
</svg>
