<?xml version="1.0" encoding="utf-8"?>
<!-- Generator: Adobe Illustrator 14.0.0, SVG Export Plug-In . SVG Version: 6.00 Build 43363)  -->
<!DOCTYPE svg PUBLIC "-//W3C//DTD SVG 1.1//EN" "http://www.w3.org/Graphics/SVG/1.1/DTD/svg11.dtd">
<svg version="1.1" id="图层_1" xmlns="http://www.w3.org/2000/svg" xmlns:xlink="http://www.w3.org/1999/xlink" x="0px" y="0px"
	 width="38.428px" height="44.189px" viewBox="0 0 38.428 44.189" enable-background="new 0 0 38.428 44.189" xml:space="preserve">
<g>
	<path d="M3.174,2.734L20.02,0l-7.031,23.73C18.685,13.997,23.86,7.194,28.516,3.32C31.152,1.106,33.301,0,34.961,0
		c1.074,0,1.92,0.317,2.539,0.952c0.618,0.635,0.928,1.555,0.928,2.759c0,2.148-0.554,4.199-1.66,6.152
		c-0.781,1.465-1.904,2.197-3.369,2.197c-0.749,0-1.392-0.244-1.929-0.732s-0.871-1.237-1.001-2.246
		c-0.065-0.618-0.212-1.025-0.439-1.221c-0.261-0.261-0.57-0.391-0.928-0.391c-0.554,0-1.074,0.13-1.563,0.391
		c-0.847,0.456-2.133,1.726-3.857,3.809c-2.702,3.19-5.632,7.324-8.789,12.402c-1.367,2.148-2.539,4.574-3.516,7.275
		c-1.367,3.711-2.148,5.941-2.344,6.689l-1.563,6.152H0l9.033-30.322c1.042-3.516,1.563-6.022,1.563-7.52
		c0-0.586-0.244-1.074-0.732-1.465C9.212,4.362,8.35,4.102,7.275,4.102c-0.684,0-1.937,0.146-3.76,0.439L3.174,2.734z"/>
</g>
</svg>
