<?xml version="1.0" encoding="utf-8"?>
<!-- Generator: Adobe Illustrator 14.0.0, SVG Export Plug-In . SVG Version: 6.00 Build 43363)  -->
<!DOCTYPE svg PUBLIC "-//W3C//DTD SVG 1.1//EN" "http://www.w3.org/Graphics/SVG/1.1/DTD/svg11.dtd">
<svg version="1.1" id="图层_1" xmlns="http://www.w3.org/2000/svg" xmlns:xlink="http://www.w3.org/1999/xlink" x="0px" y="0px"
	 width="50.879px" height="65.576px" viewBox="0 0 50.879 65.576" enable-background="new 0 0 50.879 65.576" xml:space="preserve">
<path d="M15.918,41.992l-1.807,6.592c-1.822,6.412-4.068,12.076-6.738,16.992H0c2.441-4.069,4.541-9.18,6.299-15.332l8.105-28.223
	c1.725-6.055,3.523-10.392,5.396-13.013c1.871-2.62,4.305-4.777,7.299-6.47C30.094,0.847,33.365,0,36.914,0
	c4.59,0,8.064,1.538,10.426,4.614c2.359,3.076,3.539,6.567,3.539,10.474c0,4.362-1.033,9.139-3.1,14.331
	c-2.068,5.192-5.152,9.147-9.254,11.865c-4.102,2.719-8.658,4.077-13.672,4.077C20.914,45.361,17.936,44.238,15.918,41.992z
	 M17.09,38.281c1.596,3.125,4.135,4.688,7.617,4.688c2.637,0,5.299-1.082,7.984-3.247s5.135-6.144,7.348-11.938
	c2.213-5.794,3.32-11.23,3.32-16.309c0-2.669-0.619-4.842-1.855-6.519c-1.236-1.676-3.027-2.515-5.371-2.515
	c-2.213,0-4.402,0.887-6.566,2.661c-2.166,1.774-4.225,5.9-6.178,12.378L17.09,38.281z"/>
</svg>
