<?xml version="1.0" encoding="utf-8"?>
<!-- Generator: Adobe Illustrator 14.0.0, SVG Export Plug-In . SVG Version: 6.00 Build 43363)  -->
<!DOCTYPE svg PUBLIC "-//W3C//DTD SVG 1.1//EN" "http://www.w3.org/Graphics/SVG/1.1/DTD/svg11.dtd">
<svg version="1.1" id="图层_1" xmlns="http://www.w3.org/2000/svg" xmlns:xlink="http://www.w3.org/1999/xlink" x="0px" y="0px"
	 width="37.207px" height="45.361px" viewBox="0 0 37.207 45.361" enable-background="new 0 0 37.207 45.361" xml:space="preserve">
<g>
	<path d="M37.207,0l-2.979,14.99h-1.807c-0.163-4.362-1.091-7.536-2.783-9.521C27.945,3.483,25.846,2.49,23.34,2.49
		c-2.019,0-3.622,0.554-4.81,1.66c-1.188,1.106-1.782,2.441-1.782,4.004c0,1.074,0.236,2.1,0.708,3.076
		c0.472,0.977,1.505,2.344,3.101,4.102c4.231,4.622,6.966,8.105,8.203,10.449c1.236,2.344,1.855,4.558,1.855,6.641
		c0,3.386-1.408,6.389-4.224,9.009c-2.816,2.621-6.372,3.931-10.669,3.931c-2.344,0-5.046-0.554-8.105-1.66
		c-1.074-0.391-1.904-0.586-2.49-0.586c-1.465,0-2.572,0.749-3.32,2.246H0l2.979-15.82h1.807c0.195,4.948,1.221,8.447,3.076,10.498
		s4.395,3.076,7.617,3.076c2.474,0,4.435-0.691,5.884-2.075c1.448-1.383,2.173-3.084,2.173-5.103c0-1.302-0.261-2.506-0.781-3.613
		c-0.912-1.953-2.824-4.654-5.737-8.105c-2.914-3.45-4.785-6.038-5.615-7.764s-1.245-3.45-1.245-5.176
		c0-3.157,1.147-5.827,3.442-8.008S18.848,0,22.461,0c1.042,0,1.985,0.081,2.832,0.244c0.456,0.098,1.521,0.464,3.198,1.099
		c1.676,0.635,2.791,0.952,3.345,0.952c1.399,0,2.571-0.765,3.516-2.295H37.207z"/>
</g>
</svg>
