<?xml version="1.0" encoding="utf-8"?>
<!-- Generator: Adobe Illustrator 14.0.0, SVG Export Plug-In . SVG Version: 6.00 Build 43363)  -->
<!DOCTYPE svg PUBLIC "-//W3C//DTD SVG 1.1//EN" "http://www.w3.org/Graphics/SVG/1.1/DTD/svg11.dtd">
<svg version="1.1" id="图层_1" xmlns="http://www.w3.org/2000/svg" xmlns:xlink="http://www.w3.org/1999/xlink" x="0px" y="0px"
	 width="119.532px" height="47.461px" viewBox="0 0 119.532 47.461" enable-background="new 0 0 119.532 47.461"
	 xml:space="preserve">
<g>
	<path d="M27.149,0.049v15.234h-1.611c-1.238-4.785-2.825-8.04-4.762-9.766c-1.937-1.725-4.402-2.588-7.397-2.588
		c-2.279,0-4.118,0.603-5.518,1.807c-1.4,1.205-2.1,2.539-2.1,4.004c0,1.823,0.521,3.386,1.563,4.688
		c1.009,1.335,3.06,2.751,6.152,4.248l7.129,3.467c6.607,3.223,9.912,7.471,9.912,12.744c0,4.069-1.539,7.349-4.615,9.839
		s-6.518,3.735-10.327,3.735c-2.734,0-5.859-0.488-9.375-1.465c-1.074-0.325-1.953-0.488-2.637-0.488
		c-0.749,0-1.335,0.424-1.758,1.27H0.195V30.811h1.611c0.911,4.558,2.653,7.992,5.225,10.303c2.571,2.312,5.452,3.467,8.643,3.467
		c2.246,0,4.077-0.659,5.493-1.978s2.125-2.905,2.125-4.761c0-2.246-0.79-4.134-2.369-5.664c-1.579-1.53-4.728-3.467-9.448-5.811
		c-4.72-2.344-7.813-4.459-9.277-6.348C0.732,18.164,0,15.82,0,12.988C0,9.31,1.261,6.234,3.784,3.76
		c2.522-2.474,5.786-3.711,9.79-3.711c1.758,0,3.89,0.375,6.397,1.123c1.66,0.488,2.766,0.732,3.32,0.732
		c0.52,0,0.928-0.114,1.221-0.342c0.293-0.228,0.635-0.732,1.025-1.514H27.149z"/>
	<path d="M44.678,18.213c-0.033,6.641,1.578,11.849,4.834,15.625c3.255,3.776,7.08,5.664,11.475,5.664
		c2.93,0,5.477-0.806,7.642-2.417c2.164-1.611,3.979-4.37,5.444-8.276l1.514,0.977c-0.684,4.46-2.67,8.521-5.957,12.183
		c-3.288,3.662-7.406,5.493-12.354,5.493c-5.371,0-9.97-2.091-13.794-6.274c-3.825-4.183-5.737-9.806-5.737-16.87
		c0-7.649,1.961-13.615,5.884-17.896C47.55,2.141,52.474,0,58.399,0c5.013,0,9.131,1.652,12.354,4.956
		c3.223,3.304,4.834,7.723,4.834,13.257H44.678z M44.678,15.381h20.703c-0.163-2.864-0.505-4.883-1.025-6.055
		c-0.814-1.823-2.026-3.255-3.638-4.297c-1.611-1.042-3.296-1.563-5.054-1.563c-2.702,0-5.119,1.05-7.251,3.149
		C46.281,8.716,45.036,11.638,44.678,15.381z"/>
	<path d="M119.532,29.102c-1.205,5.893-3.564,10.425-7.08,13.599s-7.406,4.761-11.67,4.761c-5.078,0-9.506-2.132-13.281-6.396
		c-3.776-4.264-5.664-10.026-5.664-17.285c0-7.031,2.091-12.744,6.274-17.139c4.183-4.395,9.204-6.592,15.063-6.592
		c4.395,0,8.008,1.164,10.84,3.491c2.832,2.328,4.248,4.745,4.248,7.251c0,1.237-0.399,2.238-1.196,3.003
		c-0.798,0.765-1.913,1.147-3.345,1.147c-1.921,0-3.369-0.618-4.346-1.855c-0.554-0.684-0.92-1.985-1.099-3.906
		c-0.18-1.92-0.839-3.385-1.978-4.395c-1.14-0.977-2.719-1.465-4.736-1.465c-3.256,0-5.876,1.205-7.861,3.613
		c-2.637,3.19-3.955,7.406-3.955,12.646c0,5.339,1.31,10.051,3.931,14.136c2.62,4.086,6.16,6.128,10.62,6.128
		c3.189,0,6.055-1.09,8.594-3.271c1.79-1.497,3.531-4.215,5.225-8.154L119.532,29.102z"/>
</g>
</svg>
