<?xml version="1.0" encoding="utf-8"?>
<!-- Generator: Adobe Illustrator 14.0.0, SVG Export Plug-In . SVG Version: 6.00 Build 43363)  -->
<!DOCTYPE svg PUBLIC "-//W3C//DTD SVG 1.1//EN" "http://www.w3.org/Graphics/SVG/1.1/DTD/svg11.dtd">
<svg version="1.1" id="图层_1" xmlns="http://www.w3.org/2000/svg" xmlns:xlink="http://www.w3.org/1999/xlink" x="0px" y="0px"
	 width="14.551px" height="62.793px" viewBox="0 0 14.551 62.793" enable-background="new 0 0 14.551 62.793" xml:space="preserve">
<path d="M0,62.793v-2.148c3.353-1.107,5.948-2.824,7.788-5.151c1.839-2.328,2.759-4.794,2.759-7.397c0-0.619-0.146-1.14-0.439-1.563
	c-0.229-0.293-0.456-0.439-0.684-0.439c-0.358,0-1.14,0.325-2.344,0.977c-0.586,0.293-1.205,0.439-1.855,0.439
	c-1.596,0-2.865-0.473-3.809-1.416C0.472,45.15,0,43.848,0,42.188c0-1.595,0.61-2.962,1.831-4.102
	c1.221-1.139,2.71-1.709,4.468-1.709c2.148,0,4.061,0.936,5.737,2.808c1.676,1.872,2.515,4.354,2.515,7.446
	c0,3.353-1.164,6.47-3.491,9.351C8.731,58.862,5.045,61.133,0,62.793z M6.836,0c1.497,0,2.774,0.521,3.833,1.563
	c1.058,1.042,1.587,2.312,1.587,3.809c0,1.498-0.529,2.775-1.587,3.833c-1.059,1.058-2.336,1.587-3.833,1.587
	c-1.498,0-2.775-0.529-3.833-1.587C1.944,8.146,1.416,6.869,1.416,5.371c0-1.497,0.528-2.767,1.587-3.809
	C4.061,0.521,5.338,0,6.836,0z"/>
</svg>
