<?xml version="1.0" encoding="utf-8"?>
<!-- Generator: Adobe Illustrator 14.0.0, SVG Export Plug-In . SVG Version: 6.00 Build 43363)  -->
<!DOCTYPE svg PUBLIC "-//W3C//DTD SVG 1.1//EN" "http://www.w3.org/Graphics/SVG/1.1/DTD/svg11.dtd">
<svg version="1.1" id="图层_1" xmlns="http://www.w3.org/2000/svg" xmlns:xlink="http://www.w3.org/1999/xlink" x="0px" y="0px"
	 width="50.098px" height="44.189px" viewBox="0 0 50.098 44.189" enable-background="new 0 0 50.098 44.189" xml:space="preserve">
<path d="M50.098,0l-1.953,6.885H32.275c4.59,3.809,6.885,8.073,6.885,12.793c0,6.186-2.4,11.816-7.201,16.895
	c-4.803,5.078-10.557,7.617-17.262,7.617c-4.688,0-8.309-1.294-10.863-3.882C1.277,37.72,0,34.229,0,29.834
	c0-4.166,0.977-8.512,2.93-13.037c1.953-4.524,4.623-8.081,8.008-10.669s6.918-4.256,10.596-5.005C25.211,0.375,30.924,0,38.672,0
	H50.098z M29.883,6.885C21.68,6.95,15.895,9.896,12.525,15.723C9.156,21.55,7.471,27.426,7.471,33.35
	c0,5.729,2.475,8.594,7.422,8.594c4.752,0,8.766-3.157,12.037-9.473c3.271-6.314,4.906-12.239,4.906-17.773
	C31.836,11.377,31.186,8.773,29.883,6.885z"/>
</svg>
