<?xml version="1.0" encoding="utf-8"?>
<!-- Generator: Adobe Illustrator 14.0.0, SVG Export Plug-In . SVG Version: 6.00 Build 43363)  -->
<!DOCTYPE svg PUBLIC "-//W3C//DTD SVG 1.1//EN" "http://www.w3.org/Graphics/SVG/1.1/DTD/svg11.dtd">
<svg version="1.1" id="图层_1" xmlns="http://www.w3.org/2000/svg" xmlns:xlink="http://www.w3.org/1999/xlink" x="0px" y="0px"
	 width="161.182px" height="70.801px" viewBox="0 0 161.182 70.801" enable-background="new 0 0 161.182 70.801"
	 xml:space="preserve">
<g>
	<path d="M27.148,23.389v15.234h-1.611c-1.237-4.785-2.824-8.04-4.761-9.766c-1.937-1.725-4.403-2.588-7.397-2.588
		c-2.279,0-4.118,0.603-5.518,1.807c-1.4,1.205-2.1,2.539-2.1,4.004c0,1.823,0.521,3.386,1.563,4.688
		c1.009,1.335,3.06,2.751,6.152,4.248l7.129,3.467c6.608,3.223,9.912,7.471,9.912,12.744c0,4.069-1.538,7.349-4.614,9.839
		s-6.519,3.735-10.327,3.735c-2.734,0-5.859-0.488-9.375-1.465c-1.074-0.325-1.953-0.488-2.637-0.488
		c-0.749,0-1.335,0.424-1.758,1.27H0.195V54.15h1.611c0.911,4.558,2.653,7.992,5.225,10.303c2.571,2.312,5.452,3.467,8.643,3.467
		c2.246,0,4.077-0.659,5.493-1.978s2.124-2.905,2.124-4.761c0-2.246-0.79-4.134-2.368-5.664c-1.579-1.53-4.729-3.467-9.448-5.811
		c-4.72-2.344-7.813-4.459-9.277-6.348C0.732,41.504,0,39.16,0,36.328c0-3.678,1.261-6.754,3.784-9.229
		c2.522-2.474,5.786-3.711,9.79-3.711c1.758,0,3.89,0.375,6.396,1.123c1.66,0.488,2.767,0.732,3.32,0.732
		c0.521,0,0.928-0.114,1.221-0.342c0.293-0.228,0.635-0.732,1.025-1.514H27.148z"/>
	<path d="M52.588,23.389v35.938c0,2.8,0.203,4.663,0.61,5.591c0.406,0.928,1.009,1.62,1.807,2.075
		c0.797,0.456,2.254,0.684,4.37,0.684v1.758H37.646v-1.758c2.181,0,3.646-0.211,4.395-0.635c0.748-0.423,1.343-1.123,1.782-2.1
		s0.659-2.848,0.659-5.615V42.09c0-4.85-0.146-7.991-0.439-9.424c-0.229-1.042-0.586-1.766-1.074-2.173
		c-0.488-0.407-1.156-0.61-2.002-0.61c-0.912,0-2.019,0.244-3.32,0.732l-0.684-1.758l13.477-5.469H52.588z M48.535,0
		c1.367,0,2.53,0.48,3.491,1.44c0.96,0.96,1.44,2.124,1.44,3.491s-0.48,2.539-1.44,3.516c-0.961,0.977-2.124,1.465-3.491,1.465
		s-2.539-0.488-3.516-1.465s-1.465-2.148-1.465-3.516s0.479-2.531,1.44-3.491C45.955,0.48,47.135,0,48.535,0z"/>
	<path d="M77.979,32.861c5.24-6.315,10.237-9.473,14.99-9.473c2.441,0,4.541,0.61,6.299,1.831s3.157,3.231,4.199,6.03
		c0.716,1.953,1.074,4.948,1.074,8.984v19.092c0,2.832,0.228,4.753,0.684,5.762c0.357,0.814,0.936,1.449,1.733,1.904
		c0.797,0.456,2.271,0.684,4.419,0.684v1.758H89.258v-1.758h0.928c2.083,0,3.54-0.317,4.37-0.952s1.407-1.57,1.733-2.808
		c0.13-0.488,0.195-2.018,0.195-4.59V41.016c0-4.069-0.529-7.023-1.587-8.862c-1.059-1.839-2.841-2.759-5.347-2.759
		c-3.874,0-7.731,2.116-11.572,6.348v23.584c0,3.027,0.179,4.899,0.537,5.615c0.455,0.944,1.082,1.636,1.88,2.075
		c0.797,0.439,2.417,0.659,4.858,0.659v1.758H63.135v-1.758h0.977c2.278,0,3.816-0.577,4.614-1.733
		c0.797-1.155,1.196-3.36,1.196-6.616V42.725c0-5.371-0.122-8.643-0.366-9.814s-0.619-1.969-1.123-2.393
		c-0.505-0.423-1.181-0.635-2.026-0.635c-0.912,0-2.002,0.244-3.271,0.732l-0.732-1.758l13.477-5.469h2.1V32.861z"/>
	<path d="M128.076,0v32.715c3.613-3.971,6.478-6.519,8.594-7.642c2.115-1.123,4.231-1.685,6.348-1.685c2.539,0,4.72,0.7,6.543,2.1
		c1.822,1.4,3.174,3.597,4.053,6.592c0.618,2.083,0.928,5.892,0.928,11.426v15.82c0,2.832,0.228,4.77,0.684,5.811
		c0.325,0.781,0.879,1.4,1.66,1.855c0.781,0.456,2.213,0.684,4.297,0.684v1.758h-21.973v-1.758h1.025
		c2.083,0,3.531-0.317,4.346-0.952c0.813-0.635,1.383-1.57,1.709-2.808c0.098-0.521,0.146-2.051,0.146-4.59v-15.82
		c0-4.883-0.253-8.089-0.757-9.619c-0.505-1.53-1.311-2.677-2.417-3.442c-1.107-0.765-2.441-1.147-4.004-1.147
		c-1.596,0-3.256,0.423-4.98,1.27c-1.726,0.847-3.793,2.556-6.201,5.127v23.633c0,3.061,0.171,4.965,0.513,5.713
		c0.342,0.749,0.977,1.376,1.904,1.88c0.928,0.505,2.53,0.757,4.81,0.757v1.758h-22.168v-1.758c1.985,0,3.548-0.309,4.688-0.928
		c0.65-0.325,1.172-0.943,1.563-1.855c0.391-0.911,0.586-2.767,0.586-5.566V18.848c0-5.11-0.122-8.252-0.366-9.424
		s-0.619-1.969-1.123-2.393c-0.505-0.423-1.181-0.635-2.026-0.635c-0.684,0-1.791,0.261-3.32,0.781l-0.684-1.709L125.83,0H128.076z"
		/>
</g>
</svg>
