<?xml version="1.0" encoding="utf-8"?>
<!-- Generator: Adobe Illustrator 14.0.0, SVG Export Plug-In . SVG Version: 6.00 Build 43363)  -->
<!DOCTYPE svg PUBLIC "-//W3C//DTD SVG 1.1//EN" "http://www.w3.org/Graphics/SVG/1.1/DTD/svg11.dtd">
<svg version="1.1" id="图层_1" xmlns="http://www.w3.org/2000/svg" xmlns:xlink="http://www.w3.org/1999/xlink" x="0px" y="0px"
	 width="35.889px" height="40.527px" viewBox="0 0 35.889 40.527" enable-background="new 0 0 35.889 40.527" xml:space="preserve">
<path d="M17.041,18.457c-0.131-2.246-0.586-4.476-1.367-6.689c-1.107-3.19-1.66-5.387-1.66-6.592c0-1.692,0.398-2.979,1.196-3.857
	C16.007,0.439,16.992,0,18.164,0c1.009,0,1.888,0.439,2.637,1.318c0.748,0.879,1.123,2.132,1.123,3.76
	c0,1.465-0.432,3.508-1.294,6.128c-0.863,2.621-1.392,5.038-1.587,7.251c1.79-1.139,3.401-2.522,4.834-4.15
	c2.213-2.571,3.857-4.167,4.932-4.785c1.074-0.618,2.164-0.928,3.271-0.928c1.074,0,1.978,0.366,2.71,1.099s1.099,1.604,1.099,2.612
	c0,1.205-0.537,2.279-1.611,3.223c-1.074,0.944-3.76,1.888-8.057,2.832c-2.507,0.554-4.59,1.188-6.25,1.904
	c1.692,0.879,3.76,1.547,6.201,2.002c3.938,0.717,6.519,1.611,7.739,2.686s1.831,2.246,1.831,3.516c0,0.977-0.366,1.823-1.099,2.539
	c-0.732,0.717-1.587,1.074-2.563,1.074s-2.06-0.342-3.247-1.025c-1.188-0.684-2.792-2.213-4.81-4.59
	c-1.335-1.595-2.995-3.092-4.98-4.492c0.064,1.855,0.439,3.874,1.123,6.055c1.172,3.842,1.758,6.462,1.758,7.861
	c0,1.303-0.391,2.4-1.172,3.296s-1.611,1.343-2.49,1.343c-1.205,0-2.295-0.472-3.271-1.416c-0.684-0.684-1.025-1.773-1.025-3.271
	c0-1.563,0.374-3.442,1.123-5.64c0.748-2.197,1.221-3.711,1.416-4.541s0.374-2.059,0.537-3.687c-1.921,1.27-3.598,2.686-5.029,4.248
	c-2.377,2.67-4.167,4.362-5.371,5.078C5.794,31.82,4.915,32.08,4.004,32.08c-1.107,0-2.051-0.374-2.832-1.123
	C0.391,30.209,0,29.379,0,28.467c0-0.813,0.333-1.668,1.001-2.563c0.667-0.896,1.668-1.636,3.003-2.222
	c0.879-0.391,2.881-0.911,6.006-1.563c2.018-0.423,3.987-1.041,5.908-1.855c-1.758-0.879-3.857-1.563-6.299-2.051
	c-4.004-0.846-6.479-1.611-7.422-2.295C0.732,14.844,0,13.542,0,12.012c0-0.879,0.366-1.685,1.099-2.417s1.587-1.099,2.563-1.099
	c1.074,0,2.213,0.342,3.418,1.025c1.204,0.684,2.701,2.059,4.492,4.126C13.362,15.715,15.186,17.318,17.041,18.457z"/>
</svg>
