<?xml version="1.0" encoding="utf-8"?>
<!-- Generator: Adobe Illustrator 14.0.0, SVG Export Plug-In . SVG Version: 6.00 Build 43363)  -->
<!DOCTYPE svg PUBLIC "-//W3C//DTD SVG 1.1//EN" "http://www.w3.org/Graphics/SVG/1.1/DTD/svg11.dtd">
<svg version="1.1" id="图层_1" xmlns="http://www.w3.org/2000/svg" xmlns:xlink="http://www.w3.org/1999/xlink" x="0px" y="0px"
	 width="130.616px" height="67.432px" viewBox="0 0 130.616 67.432" enable-background="new 0 0 130.616 67.432"
	 xml:space="preserve">
<g>
	<path d="M27.149,0v15.234h-1.611c-1.238-4.785-2.825-8.04-4.762-9.766c-1.937-1.725-4.402-2.588-7.397-2.588
		c-2.279,0-4.118,0.603-5.518,1.807c-1.4,1.205-2.1,2.539-2.1,4.004c0,1.823,0.521,3.386,1.563,4.688
		c1.009,1.335,3.06,2.751,6.152,4.248l7.129,3.467c6.607,3.223,9.912,7.471,9.912,12.744c0,4.069-1.539,7.348-4.615,9.838
		s-6.518,3.736-10.327,3.736c-2.734,0-5.859-0.488-9.375-1.465c-1.074-0.326-1.953-0.488-2.637-0.488
		c-0.749,0-1.335,0.424-1.758,1.27H0.195V30.762h1.611c0.911,4.558,2.653,7.992,5.225,10.303c2.571,2.311,5.452,3.467,8.643,3.467
		c2.246,0,4.077-0.66,5.493-1.979s2.125-2.904,2.125-4.76c0-2.246-0.79-4.134-2.369-5.664c-1.579-1.53-4.728-3.467-9.448-5.811
		c-4.72-2.344-7.813-4.459-9.277-6.348C0.732,18.115,0,15.771,0,12.939c0-3.678,1.261-6.754,3.784-9.229
		C6.307,1.237,9.57,0,13.574,0c1.758,0,3.89,0.375,6.397,1.123c1.66,0.488,2.766,0.732,3.32,0.732c0.52,0,0.928-0.114,1.221-0.342
		C24.805,1.286,25.147,0.781,25.538,0H27.149z"/>
	<path d="M76.368,1.318v27.1c0,5.176,0.122,8.342,0.366,9.497c0.244,1.156,0.635,1.961,1.172,2.417
		c0.537,0.455,1.163,0.684,1.88,0.684c1.009,0,2.148-0.277,3.418-0.83l0.684,1.709l-13.379,5.518h-2.197v-9.473
		c-3.842,4.167-6.771,6.788-8.789,7.862c-2.019,1.074-4.15,1.611-6.396,1.611c-2.507,0-4.68-0.725-6.519-2.174
		c-1.84-1.447-3.117-3.312-3.833-5.59C42.057,37.37,41.7,34.147,41.7,29.98V10.01c0-2.116-0.229-3.581-0.684-4.395
		c-0.456-0.813-1.132-1.44-2.026-1.88c-0.896-0.439-2.515-0.643-4.858-0.61V1.318h15.674V31.25c0,4.167,0.724,6.901,2.173,8.204
		c1.448,1.302,3.198,1.953,5.249,1.953c1.399,0,2.986-0.439,4.761-1.318c1.773-0.879,3.882-2.556,6.323-5.03V9.717
		c0-2.539-0.464-4.256-1.392-5.151c-0.928-0.895-2.856-1.375-5.786-1.44V1.318H76.368z"/>
	<path d="M83.936,5.762l13.77-5.566h1.855v10.449c2.311-3.938,4.63-6.697,6.958-8.276C108.846,0.79,111.295,0,113.868,0
		c4.492,0,8.235,1.758,11.23,5.273c3.678,4.297,5.518,9.896,5.518,16.797c0,7.715-2.214,14.095-6.641,19.141
		c-3.646,4.135-8.236,6.201-13.77,6.201c-2.409,0-4.492-0.342-6.25-1.025c-1.303-0.488-2.768-1.465-4.395-2.93v13.623
		c0,3.059,0.187,5.004,0.562,5.834c0.374,0.83,1.025,1.49,1.953,1.979s2.612,0.732,5.054,0.732v1.807H83.692v-1.807h1.221
		c1.79,0.031,3.32-0.311,4.59-1.025c0.618-0.359,1.099-0.938,1.44-1.734s0.513-2.824,0.513-6.078V14.502
		c0-2.897-0.131-4.736-0.391-5.518c-0.261-0.781-0.676-1.367-1.245-1.758c-0.57-0.391-1.343-0.586-2.319-0.586
		c-0.781,0-1.774,0.228-2.979,0.684L83.936,5.762z M99.561,13.525v16.699c0,3.613,0.146,5.99,0.439,7.129
		c0.455,1.888,1.57,3.548,3.345,4.981c1.773,1.432,4.012,2.148,6.714,2.148c3.255,0,5.892-1.27,7.91-3.809
		c2.637-3.321,3.955-7.992,3.955-14.014c0-6.836-1.498-12.093-4.492-15.771c-2.084-2.539-4.558-3.809-7.422-3.809
		c-1.563,0-3.109,0.391-4.639,1.172C104.2,8.838,102.262,10.596,99.561,13.525z"/>
</g>
</svg>
