<?xml version="1.0" encoding="utf-8"?>
<!-- Generator: Adobe Illustrator 14.0.0, SVG Export Plug-In . SVG Version: 6.00 Build 43363)  -->
<!DOCTYPE svg PUBLIC "-//W3C//DTD SVG 1.1//EN" "http://www.w3.org/Graphics/SVG/1.1/DTD/svg11.dtd">
<svg version="1.1" id="图层_1" xmlns="http://www.w3.org/2000/svg" xmlns:xlink="http://www.w3.org/1999/xlink" x="0px" y="0px"
	 width="25.732px" height="57.471px" viewBox="0 0 25.732 57.471" enable-background="new 0 0 25.732 57.471" xml:space="preserve">
<g>
	<path d="M21.875,0l-3.809,13.281h7.666l-0.83,3.076h-7.617L8.886,45.166c-0.912,3.093-1.367,5.095-1.367,6.006
		c0,0.554,0.13,0.977,0.391,1.27c0.26,0.293,0.569,0.439,0.928,0.439c0.813,0,1.888-0.569,3.223-1.709
		c0.781-0.65,2.522-2.652,5.225-6.006l1.611,1.221c-2.995,4.362-5.827,7.438-8.496,9.229c-1.823,1.236-3.662,1.855-5.518,1.855
		c-1.433,0-2.604-0.448-3.516-1.343C0.455,55.233,0,54.086,0,52.686c0-1.758,0.521-4.443,1.563-8.057l8.154-28.271H2.343
		l0.488-1.904c3.581-0.977,6.559-2.433,8.936-4.37C14.143,8.146,16.796,4.785,19.726,0H21.875z"/>
</g>
</svg>
