<?xml version="1.0" encoding="utf-8"?>
<!-- Generator: Adobe Illustrator 14.0.0, SVG Export Plug-In . SVG Version: 6.00 Build 43363)  -->
<!DOCTYPE svg PUBLIC "-//W3C//DTD SVG 1.1//EN" "http://www.w3.org/Graphics/SVG/1.1/DTD/svg11.dtd">
<svg version="1.1" id="图层_1" xmlns="http://www.w3.org/2000/svg" xmlns:xlink="http://www.w3.org/1999/xlink" x="0px" y="0px"
	 width="120.752px" height="60.352px" viewBox="0 0 120.752 60.352" enable-background="new 0 0 120.752 60.352"
	 xml:space="preserve">
<g>
	<path d="M15.137,0v14.697h10.449v3.418H15.137v29.004c0,2.897,0.415,4.851,1.245,5.859c0.83,1.01,1.896,1.514,3.198,1.514
		c1.074,0,2.116-0.333,3.125-1.001c1.009-0.667,1.79-1.651,2.344-2.954h1.904c-1.14,3.19-2.751,5.591-4.834,7.202
		c-2.083,1.611-4.232,2.417-6.445,2.417c-1.498,0-2.962-0.415-4.395-1.245c-1.433-0.83-2.49-2.018-3.174-3.564
		c-0.684-1.546-1.025-3.931-1.025-7.153V18.115H0v-1.611c1.79-0.716,3.621-1.929,5.493-3.638c1.872-1.709,3.54-3.735,5.005-6.079
		C11.247,5.55,12.288,3.288,13.623,0H15.137z"/>
	<path d="M55.274,52.979c-4.59,3.549-7.471,5.6-8.643,6.152c-1.758,0.813-3.631,1.221-5.615,1.221c-3.094,0-5.641-1.058-7.643-3.174
		c-2.001-2.115-3.002-4.898-3.002-8.35c0-2.181,0.488-4.069,1.465-5.664c1.334-2.213,3.653-4.297,6.957-6.25
		s8.797-4.329,16.48-7.129v-1.758c0-4.459-0.709-7.52-2.125-9.18s-3.475-2.49-6.176-2.49c-2.051,0-3.68,0.554-4.883,1.66
		c-1.238,1.107-1.855,2.376-1.855,3.809l0.098,2.832c0,1.498-0.384,2.653-1.148,3.467c-0.765,0.814-1.766,1.221-3.002,1.221
		c-1.205,0-2.19-0.423-2.955-1.27c-0.765-0.846-1.146-2.002-1.146-3.467c0-2.799,1.432-5.371,4.297-7.715
		c2.863-2.344,6.885-3.516,12.061-3.516c3.971,0,7.227,0.667,9.766,2.002c1.92,1.009,3.336,2.588,4.248,4.736
		c0.586,1.4,0.879,4.265,0.879,8.594v15.186c0,4.265,0.08,6.877,0.244,7.837c0.162,0.961,0.431,1.604,0.805,1.929
		c0.374,0.326,0.807,0.488,1.295,0.488c0.52,0,0.977-0.113,1.367-0.342c0.684-0.423,2.002-1.611,3.955-3.564v2.734
		c-3.646,4.883-7.129,7.324-10.449,7.324c-1.596,0-2.865-0.554-3.809-1.66C55.793,57.536,55.305,55.648,55.274,52.979z
		 M55.274,49.805V32.764c-4.916,1.953-8.09,3.337-9.521,4.15c-2.572,1.433-4.412,2.93-5.518,4.492
		c-1.107,1.563-1.66,3.271-1.66,5.127c0,2.344,0.699,4.289,2.1,5.835c1.398,1.547,3.01,2.319,4.834,2.319
		C47.981,54.688,51.237,53.061,55.274,49.805z"/>
	<path d="M87.354,22.852c5.24-6.315,10.237-9.473,14.99-9.473c2.441,0,4.541,0.61,6.299,1.831s3.157,3.231,4.199,6.03
		c0.716,1.953,1.074,4.948,1.074,8.984v19.092c0,2.832,0.228,4.753,0.684,5.762c0.357,0.814,0.936,1.449,1.733,1.904
		c0.797,0.456,2.271,0.684,4.419,0.684v1.758H98.633v-1.758h0.928c2.083,0,3.54-0.317,4.37-0.952s1.407-1.57,1.733-2.808
		c0.13-0.488,0.195-2.018,0.195-4.59V31.006c0-4.069-0.529-7.023-1.587-8.862c-1.059-1.839-2.841-2.759-5.347-2.759
		c-3.874,0-7.731,2.116-11.572,6.348v23.584c0,3.027,0.179,4.899,0.537,5.615c0.455,0.944,1.082,1.636,1.88,2.075
		c0.797,0.439,2.417,0.659,4.858,0.659v1.758H72.51v-1.758h0.977c2.278,0,3.816-0.577,4.614-1.733
		c0.797-1.155,1.196-3.36,1.196-6.616V32.715c0-5.371-0.122-8.643-0.366-9.814s-0.619-1.969-1.123-2.393
		c-0.505-0.423-1.181-0.635-2.026-0.635c-0.912,0-2.002,0.244-3.271,0.732l-0.732-1.758l13.477-5.469h2.1V22.852z"/>
</g>
</svg>
