<?xml version="1.0" encoding="utf-8"?>
<!-- Generator: Adobe Illustrator 14.0.0, SVG Export Plug-In . SVG Version: 6.00 Build 43363)  -->
<!DOCTYPE svg PUBLIC "-//W3C//DTD SVG 1.1//EN" "http://www.w3.org/Graphics/SVG/1.1/DTD/svg11.dtd">
<svg version="1.1" id="图层_1" xmlns="http://www.w3.org/2000/svg" xmlns:xlink="http://www.w3.org/1999/xlink" x="0px" y="0px"
	 width="170.557px" height="70.361px" viewBox="0 0 170.557 70.361" enable-background="new 0 0 170.557 70.361"
	 xml:space="preserve">
<g>
	<path d="M15.137,10.01v14.697h10.449v3.418H15.137v29.004c0,2.897,0.415,4.851,1.245,5.859c0.83,1.009,1.896,1.514,3.198,1.514
		c1.074,0,2.115-0.333,3.125-1.001c1.009-0.667,1.79-1.652,2.344-2.954h1.904c-1.14,3.19-2.751,5.591-4.834,7.202
		c-2.084,1.611-4.232,2.417-6.445,2.417c-1.498,0-2.962-0.415-4.395-1.245c-1.433-0.83-2.49-2.018-3.174-3.564
		c-0.684-1.546-1.025-3.931-1.025-7.153V28.125H0v-1.611c1.79-0.716,3.621-1.929,5.493-3.638c1.872-1.709,3.54-3.735,5.005-6.079
		c0.749-1.237,1.79-3.499,3.125-6.787H15.137z"/>
	<path d="M55.273,62.988c-4.59,3.548-7.471,5.599-8.643,6.152c-1.758,0.813-3.63,1.221-5.615,1.221c-3.093,0-5.64-1.058-7.642-3.174
		c-2.002-2.116-3.003-4.899-3.003-8.35c0-2.181,0.488-4.069,1.465-5.664c1.334-2.213,3.653-4.297,6.958-6.25
		c3.304-1.953,8.797-4.329,16.479-7.129v-1.758c0-4.459-0.708-7.52-2.124-9.18s-3.476-2.49-6.177-2.49
		c-2.051,0-3.679,0.554-4.883,1.66c-1.237,1.107-1.855,2.376-1.855,3.809l0.098,2.832c0,1.498-0.383,2.653-1.147,3.467
		c-0.766,0.814-1.767,1.221-3.003,1.221c-1.205,0-2.189-0.423-2.954-1.27c-0.766-0.846-1.147-2.002-1.147-3.467
		c0-2.799,1.432-5.371,4.297-7.715c2.864-2.344,6.885-3.516,12.061-3.516c3.971,0,7.227,0.667,9.766,2.002
		c1.92,1.009,3.336,2.588,4.248,4.736c0.586,1.4,0.879,4.265,0.879,8.594v15.186c0,4.265,0.081,6.877,0.244,7.837
		c0.162,0.96,0.431,1.604,0.806,1.929c0.374,0.326,0.806,0.488,1.294,0.488c0.521,0,0.977-0.114,1.367-0.342
		c0.684-0.423,2.002-1.611,3.955-3.564v2.734c-3.646,4.883-7.129,7.324-10.449,7.324c-1.596,0-2.865-0.554-3.809-1.66
		C55.794,67.546,55.306,65.658,55.273,62.988z M55.273,59.814V42.773c-4.916,1.953-8.09,3.337-9.521,4.15
		c-2.572,1.433-4.411,2.93-5.518,4.492c-1.107,1.563-1.66,3.271-1.66,5.127c0,2.344,0.699,4.289,2.1,5.835
		c1.399,1.546,3.011,2.319,4.834,2.319C47.981,64.697,51.236,63.07,55.273,59.814z"/>
	<path d="M87.354,32.861c5.24-6.315,10.237-9.473,14.99-9.473c2.441,0,4.541,0.61,6.299,1.831s3.157,3.231,4.199,6.03
		c0.716,1.953,1.074,4.948,1.074,8.984v19.092c0,2.832,0.228,4.753,0.684,5.762c0.357,0.814,0.936,1.449,1.733,1.904
		c0.797,0.456,2.271,0.684,4.419,0.684v1.758H98.633v-1.758h0.928c2.083,0,3.54-0.317,4.37-0.952s1.407-1.57,1.733-2.808
		c0.13-0.488,0.195-2.018,0.195-4.59V41.016c0-4.069-0.529-7.023-1.587-8.862c-1.059-1.839-2.841-2.759-5.347-2.759
		c-3.874,0-7.731,2.116-11.572,6.348v23.584c0,3.027,0.179,4.899,0.537,5.615c0.455,0.944,1.082,1.636,1.88,2.075
		c0.797,0.439,2.417,0.659,4.858,0.659v1.758H72.51v-1.758h0.977c2.278,0,3.816-0.578,4.614-1.733
		c0.797-1.155,1.196-3.361,1.196-6.616V42.725c0-5.371-0.122-8.643-0.366-9.814s-0.619-1.969-1.123-2.393
		c-0.505-0.423-1.181-0.635-2.026-0.635c-0.912,0-2.002,0.244-3.271,0.732l-0.732-1.758l13.477-5.469h2.1V32.861z"/>
	<path d="M137.451,0v32.715c3.613-3.971,6.478-6.519,8.594-7.642c2.115-1.123,4.231-1.685,6.348-1.685c2.539,0,4.72,0.7,6.543,2.1
		c1.822,1.4,3.174,3.597,4.053,6.592c0.618,2.083,0.928,5.892,0.928,11.426v15.82c0,2.832,0.228,4.769,0.684,5.811
		c0.325,0.781,0.879,1.4,1.66,1.855c0.781,0.456,2.213,0.684,4.297,0.684v1.758h-21.973v-1.758h1.025
		c2.083,0,3.531-0.317,4.346-0.952c0.813-0.635,1.383-1.57,1.709-2.808c0.098-0.521,0.146-2.051,0.146-4.59v-15.82
		c0-4.883-0.253-8.089-0.757-9.619c-0.505-1.53-1.311-2.677-2.417-3.442c-1.107-0.765-2.441-1.147-4.004-1.147
		c-1.596,0-3.256,0.423-4.98,1.27c-1.726,0.847-3.793,2.556-6.201,5.127v23.633c0,3.06,0.171,4.964,0.513,5.713
		c0.342,0.749,0.977,1.375,1.904,1.88c0.928,0.505,2.53,0.757,4.81,0.757v1.758H122.51v-1.758c1.985,0,3.548-0.309,4.688-0.928
		c0.65-0.325,1.172-0.944,1.563-1.855c0.391-0.911,0.586-2.767,0.586-5.566V18.848c0-5.11-0.122-8.252-0.366-9.424
		s-0.619-1.969-1.123-2.393c-0.505-0.423-1.181-0.635-2.026-0.635c-0.684,0-1.791,0.261-3.32,0.781l-0.684-1.709L135.205,0H137.451z
		"/>
</g>
</svg>
