<?xml version="1.0" encoding="utf-8"?>
<!-- Generator: Adobe Illustrator 14.0.0, SVG Export Plug-In . SVG Version: 6.00 Build 43363)  -->
<!DOCTYPE svg PUBLIC "-//W3C//DTD SVG 1.1//EN" "http://www.w3.org/Graphics/SVG/1.1/DTD/svg11.dtd">
<svg version="1.1" id="图层_1" xmlns="http://www.w3.org/2000/svg" xmlns:xlink="http://www.w3.org/1999/xlink" x="0px" y="0px"
	 width="36.475px" height="44.189px" viewBox="0 0 36.475 44.189" enable-background="new 0 0 36.475 44.189" xml:space="preserve">
<path d="M1.758,12.402H0C0.879,9.701,2.043,7.373,3.492,5.42c1.447-1.953,3.148-3.345,5.102-4.175S13.314,0,16.895,0h19.58
	l-2.051,6.885H22.461l-6.055,18.262c-1.172,3.613-1.758,6.462-1.758,8.545c0,3.061,1.432,4.59,4.297,4.59
	c2.67,0,4.867-2.148,6.592-6.445h1.953c-2.604,8.236-6.689,12.354-12.256,12.354c-2.084,0-3.873-0.676-5.371-2.026
	s-2.246-3.54-2.246-6.567c0-2.637,1.205-7.486,3.613-14.551l4.785-14.16c-3.971,0-6.982,0.252-9.033,0.757
	C4.932,8.146,3.189,9.733,1.758,12.402z"/>
</svg>
