<?xml version="1.0" encoding="utf-8"?>
<!-- Generator: Adobe Illustrator 14.0.0, SVG Export Plug-In . SVG Version: 6.00 Build 43363)  -->
<!DOCTYPE svg PUBLIC "-//W3C//DTD SVG 1.1//EN" "http://www.w3.org/Graphics/SVG/1.1/DTD/svg11.dtd">
<svg version="1.1" id="图层_1" xmlns="http://www.w3.org/2000/svg" xmlns:xlink="http://www.w3.org/1999/xlink" x="0px" y="0px"
	 width="46.338px" height="70.605px" viewBox="0 0 46.338 70.605" enable-background="new 0 0 46.338 70.605" xml:space="preserve">
<path d="M32.763,0c9.049,0,13.574,6.201,13.574,18.604c0,7.487-1.83,15.779-5.492,24.878s-7.846,15.894-12.549,20.386
	c-4.705,4.492-9.547,6.738-14.527,6.738c-4.068,0-7.381-1.733-9.936-5.2c-2.557-3.467-3.834-7.788-3.834-12.964
	c0-3.32,0.732-7.91,2.197-13.77s3.662-11.775,6.592-17.749c2.93-5.973,6.6-10.954,11.012-14.941C24.21,1.994,28.53,0,32.763,0z
	 M11.229,35.986C8.235,45.329,6.737,52.49,6.737,57.471c0,3.256,0.668,5.916,2.002,7.983s3.32,3.101,5.957,3.101
	c2.182,0,4.232-0.87,6.152-2.612c1.92-1.741,4.166-5.281,6.738-10.62c2.572-5.338,4.996-11.783,7.275-19.336H11.229z M35.79,33.203
	c2.182-6.868,3.271-13.542,3.271-20.02c0-7.422-2.1-11.133-6.299-11.133c-3.678,0-7.291,2.775-10.84,8.325
	c-3.549,5.55-6.803,13.159-9.766,22.827H35.79z"/>
</svg>
