<?xml version="1.0" encoding="utf-8"?>
<!-- Generator: Adobe Illustrator 14.0.0, SVG Export Plug-In . SVG Version: 6.00 Build 43363)  -->
<!DOCTYPE svg PUBLIC "-//W3C//DTD SVG 1.1//EN" "http://www.w3.org/Graphics/SVG/1.1/DTD/svg11.dtd">
<svg version="1.1" id="图层_1" xmlns="http://www.w3.org/2000/svg" xmlns:xlink="http://www.w3.org/1999/xlink" x="0px" y="0px"
	 width="52.1px" height="13.672px" viewBox="0 0 52.1 13.672" enable-background="new 0 0 52.1 13.672" xml:space="preserve">
<path d="M49.902,0.146H52.1c-0.131,4.232-1.335,7.544-3.613,9.937c-2.279,2.393-5.063,3.589-8.35,3.589
	c-1.498,0-3.109-0.252-4.834-0.757c-1.726-0.505-6.186-2.222-13.379-5.151C16.91,5.681,13.346,4.639,11.23,4.639
	c-2.279,0-4.199,0.7-5.762,2.1c-1.563,1.4-2.67,3.679-3.32,6.836H0C0.195,9.18,1.399,5.819,3.613,3.491
	C5.826,1.164,8.431,0,11.426,0c1.432,0,2.896,0.228,4.395,0.684c3.385,0.977,7.837,2.645,13.354,5.005
	c5.518,2.36,9.399,3.54,11.646,3.54c2.441,0,4.492-0.781,6.152-2.344S49.609,3.076,49.902,0.146z"/>
</svg>
