<?xml version="1.0" encoding="utf-8"?>
<!-- Generator: Adobe Illustrator 14.0.0, SVG Export Plug-In . SVG Version: 6.00 Build 43363)  -->
<!DOCTYPE svg PUBLIC "-//W3C//DTD SVG 1.1//EN" "http://www.w3.org/Graphics/SVG/1.1/DTD/svg11.dtd">
<svg version="1.1" id="图层_1" xmlns="http://www.w3.org/2000/svg" xmlns:xlink="http://www.w3.org/1999/xlink" x="0px" y="0px"
	 width="44.141px" height="45.361px" viewBox="0 0 44.141 45.361" enable-background="new 0 0 44.141 45.361" xml:space="preserve">
<g>
	<path d="M44.141,1.172l-8.496,29.102c-1.27,4.33-1.904,7.064-1.904,8.203c0,0.586,0.105,1.018,0.317,1.294
		c0.211,0.277,0.496,0.415,0.854,0.415c0.553,0,1.163-0.252,1.831-0.757c0.667-0.504,2.352-2.515,5.054-6.03l1.465,1.123
		c-2.572,4.069-5.209,7.064-7.91,8.984c-1.791,1.236-3.516,1.855-5.176,1.855c-1.27,0-2.263-0.358-2.979-1.074
		c-0.717-0.716-1.074-1.644-1.074-2.783c0-1.106,0.211-2.571,0.635-4.395c0.521-2.408,2.002-7.649,4.443-15.723
		c-5.534,9.082-10.165,15.349-13.892,18.799c-3.728,3.451-7.186,5.176-10.376,5.176c-1.498,0-2.767-0.521-3.809-1.563
		c-1.042-1.041-1.563-2.359-1.563-3.955c0-2.441,0.716-6.185,2.148-11.23l4.248-15.088C9,9.912,9.521,7.666,9.521,6.787
		c0-0.391-0.139-0.724-0.415-1.001C8.83,5.51,8.528,5.371,8.203,5.371c-0.684,0-1.367,0.244-2.051,0.732s-2.23,2.295-4.639,5.42
		L0,10.449C2.441,6.673,5.029,3.89,7.764,2.1C9.847,0.7,11.768,0,13.525,0c1.204,0,2.189,0.383,2.954,1.147
		c0.765,0.766,1.147,1.75,1.147,2.954c0,1.758-0.651,4.899-1.953,9.424l-4.59,15.771c-1.27,4.297-1.904,7.016-1.904,8.154
		c0,0.619,0.203,1.115,0.61,1.489c0.407,0.375,0.952,0.562,1.636,0.562c1.074,0,2.474-0.537,4.199-1.611
		c1.725-1.074,4.028-3.458,6.909-7.153c2.881-3.694,5.257-7.161,7.129-10.4c1.871-3.238,3.865-8.391,5.981-15.454l1.074-3.711
		H44.141z"/>
</g>
</svg>
