<?xml version="1.0" encoding="utf-8"?>
<!-- Generator: Adobe Illustrator 14.0.0, SVG Export Plug-In . SVG Version: 6.00 Build 43363)  -->
<!DOCTYPE svg PUBLIC "-//W3C//DTD SVG 1.1//EN" "http://www.w3.org/Graphics/SVG/1.1/DTD/svg11.dtd">
<svg version="1.1" id="图层_1" xmlns="http://www.w3.org/2000/svg" xmlns:xlink="http://www.w3.org/1999/xlink" x="0px" y="0px"
	 width="39.795px" height="45.361px" viewBox="0 0 39.795 45.361" enable-background="new 0 0 39.795 45.361" xml:space="preserve">
<path d="M1.514,11.621L0,10.596C4.654,3.532,9.195,0,13.623,0c2.865,0,4.297,1.465,4.297,4.395c0,1.563-0.439,3.809-1.318,6.738
	l-5.176,17.48c-0.943,3.19-1.416,5.664-1.416,7.422c0,2.441,0.635,4.256,1.904,5.444s2.719,1.782,4.346,1.782
	c4.199,0,8.219-2.856,12.061-8.569s5.762-12.198,5.762-19.458c0-7.91-2.945-12.37-8.838-13.379L25.537,0
	c9.506,1.628,14.258,7.341,14.258,17.139c0,6.511-2.262,12.842-6.787,18.994s-10.221,9.229-17.09,9.229
	c-4.004,0-7.17-0.985-9.496-2.954c-2.328-1.97-3.492-4.451-3.492-7.446c0-2.083,0.586-5.225,1.758-9.424L8.74,10.889
	c0.521-1.79,0.781-3.092,0.781-3.906c0-1.009-0.488-1.514-1.465-1.514c-0.781,0-1.563,0.366-2.344,1.099S3.531,8.984,1.514,11.621z"
	/>
</svg>
