<?xml version="1.0" encoding="utf-8"?>
<!-- Generator: Adobe Illustrator 14.0.0, SVG Export Plug-In . SVG Version: 6.00 Build 43363)  -->
<!DOCTYPE svg PUBLIC "-//W3C//DTD SVG 1.1//EN" "http://www.w3.org/Graphics/SVG/1.1/DTD/svg11.dtd">
<svg version="1.1" id="图层_1" xmlns="http://www.w3.org/2000/svg" xmlns:xlink="http://www.w3.org/1999/xlink" x="0px" y="0px"
	 width="42.09px" height="45.361px" viewBox="0 0 42.09 45.361" enable-background="new 0 0 42.09 45.361" xml:space="preserve">
<g>
	<path d="M0,3.027L14.111,0c1.009,2.409,1.823,4.866,2.441,7.373c0.879,3.679,1.595,8.04,2.148,13.086
		c0.26,2.539,0.618,7.91,1.074,16.113c4.069-4.492,6.494-7.275,7.275-8.35c4.297-5.827,6.771-9.245,7.422-10.254
		c1.074-1.726,1.822-3.239,2.246-4.541c0.357-0.977,0.537-1.904,0.537-2.783c0-0.847-0.757-1.823-2.271-2.93
		s-2.271-2.344-2.271-3.711c0-1.042,0.415-1.97,1.245-2.783S35.774,0,36.914,0c1.367,0,2.571,0.562,3.613,1.685
		c1.041,1.123,1.563,2.515,1.563,4.175s-0.261,3.255-0.781,4.785c-0.847,2.474-2.426,5.493-4.736,9.058
		c-2.312,3.564-6.039,8.342-11.182,14.331c-0.651,0.749-4.265,4.525-10.84,11.328h-1.807c-0.781-20.605-2.409-33.464-4.883-38.574
		c-0.814-1.66-2.165-2.49-4.053-2.49c-0.814,0-1.97,0.146-3.467,0.439L0,3.027z"/>
</g>
</svg>
