<?xml version="1.0" encoding="utf-8"?>
<!-- Generator: Adobe Illustrator 14.0.0, SVG Export Plug-In . SVG Version: 6.00 Build 43363)  -->
<!DOCTYPE svg PUBLIC "-//W3C//DTD SVG 1.1//EN" "http://www.w3.org/Graphics/SVG/1.1/DTD/svg11.dtd">
<svg version="1.1" id="图层_1" xmlns="http://www.w3.org/2000/svg" xmlns:xlink="http://www.w3.org/1999/xlink" x="0px" y="0px"
	 width="56.055px" height="45.557px" viewBox="0 0 56.055 45.557" enable-background="new 0 0 56.055 45.557" xml:space="preserve">
<path d="M55.713,5.078c-1.205,4.199-6.869,9.506-16.992,15.918c-1.628,4.851-2.36,8.691-2.197,11.523
	c0.228,4.069,1.855,6.104,4.883,6.104c4.199,0,7.275-2.93,9.229-8.789h1.758c-2.995,10.482-7.731,15.723-14.209,15.723
	c-4.948,0-7.373-2.686-7.275-8.057c0.032-2.018,1.025-6.429,2.979-13.232l0.195-0.635L17.725,33.35
	c-3.906,8.139-8.643,12.207-14.209,12.207C1.172,45.557,0,44.58,0,42.627c0-0.618,0.113-1.334,0.342-2.148
	c1.236-4.264,6.852-9.391,16.846-15.381c0.455-1.302,0.83-2.441,1.123-3.418c0.879-3.092,1.27-5.729,1.172-7.91
	c-0.229-4.557-1.84-6.836-4.834-6.836c-4.199,0-7.275,2.897-9.229,8.691H3.662C6.656,5.209,11.393,0,17.871,0
	c4.947,0,7.34,2.93,7.178,8.789c-0.033,1.693-1.059,6.039-3.076,13.037l-0.342,1.123l16.064-9.375C41.731,4.525,46.68,0,52.539,0
	c2.344,0,3.516,0.977,3.516,2.93C56.055,3.549,55.94,4.265,55.713,5.078z"/>
</svg>
