<?xml version="1.0" encoding="utf-8"?>
<!-- Generator: Adobe Illustrator 14.0.0, SVG Export Plug-In . SVG Version: 6.00 Build 43363)  -->
<!DOCTYPE svg PUBLIC "-//W3C//DTD SVG 1.1//EN" "http://www.w3.org/Graphics/SVG/1.1/DTD/svg11.dtd">
<svg version="1.1" id="图层_1" xmlns="http://www.w3.org/2000/svg" xmlns:xlink="http://www.w3.org/1999/xlink" x="0px" y="0px"
	 width="47.656px" height="65.576px" viewBox="0 0 47.656 65.576" enable-background="new 0 0 47.656 65.576" xml:space="preserve">
<path d="M13.916,65.576h-4.98l5.908-20.215c-4.721-0.033-8.374-1.456-10.962-4.272C1.294,38.273,0,34.408,0,29.492
	c0-7.486,2.327-14.225,6.982-20.215C11.637,3.288,17.447,0.195,24.414,0l-0.537,1.758c-4.362,0.717-8.163,4.281-11.401,10.693
	c-3.239,6.413-4.858,12.695-4.858,18.848c0,7.422,2.637,11.247,7.91,11.475l6.592-21.826c1.66-5.631,3.157-9.822,4.492-12.573
	c1.334-2.75,2.979-4.834,4.932-6.25S35.579,0,37.793,0c3.125,0,5.55,1.327,7.275,3.979c1.725,2.653,2.588,6.161,2.588,10.522
	c0,7.878-2.434,14.917-7.3,21.118c-4.867,6.201-11.776,9.464-20.728,9.79L13.916,65.576z M20.508,42.725
	c6.51-0.423,11.539-3.8,15.088-10.132c3.548-6.331,5.322-12.801,5.322-19.409c0-5.631-1.433-8.447-4.297-8.447
	c-1.726,0-3.271,1.042-4.639,3.125c-1.367,2.084-3.142,6.82-5.322,14.209L20.508,42.725z"/>
</svg>
