<?xml version="1.0" encoding="utf-8"?>
<!-- Generator: Adobe Illustrator 14.0.0, SVG Export Plug-In . SVG Version: 6.00 Build 43363)  -->
<!DOCTYPE svg PUBLIC "-//W3C//DTD SVG 1.1//EN" "http://www.w3.org/Graphics/SVG/1.1/DTD/svg11.dtd">
<svg version="1.1" id="图层_1" xmlns="http://www.w3.org/2000/svg" xmlns:xlink="http://www.w3.org/1999/xlink" x="0px" y="0px"
	 width="69.189px" height="44.189px" viewBox="0 0 69.189 44.189" enable-background="new 0 0 69.189 44.189" xml:space="preserve">
<path d="M69.189,0l-2.051,6.885h-5.957C63.46,9.521,64.6,13.054,64.6,17.48c0,6.608-2.084,12.598-6.25,17.969
	c-4.492,5.827-9.994,8.74-16.504,8.74c-6.967,0-10.856-3.694-11.67-11.084c-4.46,7.39-9.44,11.084-14.941,11.084
	c-4.33,0-7.683-1.611-10.059-4.834c-2.116-2.896-3.174-6.592-3.174-11.084c0-9.407,3.613-16.52,10.84-21.338
	C10.367,7.031,8.414,7.26,6.982,7.617c-2.051,0.488-3.793,2.084-5.225,4.785H0C1.888,6.576,4.752,2.849,8.594,1.221
	C10.514,0.407,13.281,0,16.895,0H69.189z M56.982,14.111c0-3.092-0.814-5.501-2.441-7.227h-32.08
	C14.029,11.898,9.814,20.476,9.814,32.617c0,5.632,2.181,8.447,6.543,8.447c4.72,0,9.212-3.727,13.477-11.182
	c-0.261-3.125-0.391-4.947-0.391-5.469c0-8.072,1.985-12.109,5.957-12.109c1.953,0,2.93,1.465,2.93,4.395
	c0,2.084-2.116,6.625-6.348,13.623c0.716,6.901,3.531,10.352,8.447,10.352c5.11,0,9.293-3.32,12.549-9.961
	C55.647,25.277,56.982,19.743,56.982,14.111z"/>
</svg>
