<?xml version="1.0" encoding="utf-8"?>
<!-- Generator: Adobe Illustrator 14.0.0, SVG Export Plug-In . SVG Version: 6.00 Build 43363)  -->
<!DOCTYPE svg PUBLIC "-//W3C//DTD SVG 1.1//EN" "http://www.w3.org/Graphics/SVG/1.1/DTD/svg11.dtd">
<svg version="1.1" id="图层_1" xmlns="http://www.w3.org/2000/svg" xmlns:xlink="http://www.w3.org/1999/xlink" x="0px" y="0px"
	 width="46.495px" height="65.771px" viewBox="0 0 46.495 65.771" enable-background="new 0 0 46.495 65.771" xml:space="preserve">
<path d="M46.493,14.063c0.032,2.702-0.375,5.551-1.221,8.545c-1.791,6.25-5.16,11.54-10.107,15.869
	c-5.209,4.59-10.938,6.885-17.188,6.885c-8.496,0-13.298-4.639-14.404-13.916c-0.619,2.865-0.928,5.632-0.928,8.301
	c0,9.114,2.686,14.388,8.057,15.82c1.497,0.391,4.817,0.635,9.961,0.732c4.492,0.064,7.682,0.569,9.57,1.514
	c2.734,1.367,4.199,4.02,4.395,7.959h-1.904c-0.912-1.53-2.556-2.328-4.932-2.393c-3.093-0.033-6.201-0.065-9.326-0.098
	c-3.972-0.098-6.918-0.456-8.838-1.074c-3.158-0.977-5.615-3.776-7.373-8.398c-1.4-3.613-2.148-7.455-2.246-11.523
	c-0.098-4.427,0.586-9.212,2.051-14.355C4.306,20.15,7.69,13.786,12.216,8.838C17.651,2.946,24.064,0,31.454,0
	C41.317,0,46.33,4.688,46.493,14.063z M39.315,11.719c0.13-6.185-2.246-9.277-7.129-9.277c-4.948,0-9.457,2.702-13.525,8.105
	c-3.19,4.199-5.6,9.164-7.227,14.893c-0.749,2.572-1.107,4.965-1.074,7.178c0.032,3.19,0.797,5.746,2.295,7.666
	c1.367,1.758,3.06,2.637,5.078,2.637c4.688,0,9.065-2.848,13.135-8.545c3.125-4.361,5.501-9.391,7.129-15.088
	C38.843,16.391,39.282,13.867,39.315,11.719z"/>
</svg>
