<?xml version="1.0" encoding="utf-8"?>
<!-- Generator: Adobe Illustrator 14.0.0, SVG Export Plug-In . SVG Version: 6.00 Build 43363)  -->
<!DOCTYPE svg PUBLIC "-//W3C//DTD SVG 1.1//EN" "http://www.w3.org/Graphics/SVG/1.1/DTD/svg11.dtd">
<svg version="1.1" id="图层_1" xmlns="http://www.w3.org/2000/svg" xmlns:xlink="http://www.w3.org/1999/xlink" x="0px" y="0px"
	 width="48.096px" height="70.557px" viewBox="0 0 48.096 70.557" enable-background="new 0 0 48.096 70.557" xml:space="preserve">
<path d="M48.096,41.553c0,1.596-0.505,4.15-1.514,7.666h-1.807c0.293-1.009,0.439-1.953,0.439-2.832c0-2.571-1.14-3.857-3.418-3.857
	c-3.125,8.757-6.088,15.007-8.887,18.75c-4.59,6.186-10.466,9.277-17.627,9.277c-3.483,0-6.25-0.781-8.301-2.344
	c-2.214-1.692-3.32-4.134-3.32-7.324c0-1.302,0.309-3.23,0.928-5.786c0.618-2.555,0.928-4.5,0.928-5.835
	c0-2.083-0.944-3.125-2.832-3.125c-0.781,0-1.514,0.131-2.197,0.391L0,44.922c2.441-0.846,4.671-1.27,6.689-1.27
	c4.395,0,6.592,2.197,6.592,6.592c0,1.303-0.317,3.215-0.952,5.737c-0.635,2.523-0.952,4.436-0.952,5.737
	c0,4.069,1.611,6.104,4.834,6.104c6.934,0,12.288-6.624,16.064-19.873l1.514-5.322c-5.241,0-9.75-1.725-13.525-5.176
	c-4.167-3.809-6.25-8.756-6.25-14.844c0-6.152,1.871-11.409,5.615-15.771C23.567,2.279,28.564,0,34.619,0
	c8.268,0,12.402,5.811,12.402,17.432c0,5.078-0.798,10.303-2.393,15.674l-0.781,2.637C46.68,36.557,48.096,38.493,48.096,41.553z
	 M40.381,12.988c0-6.999-2.23-10.498-6.689-10.498c-4.167,0-7.602,3.142-10.303,9.424c-2.246,5.144-3.369,10.271-3.369,15.381
	c0,5.893,2.913,8.838,8.74,8.838c1.725,0,4.036-0.064,6.934-0.195l3.027-11.768C39.827,19.873,40.381,16.146,40.381,12.988z"/>
</svg>
