<?xml version="1.0" encoding="utf-8"?>
<!-- Generator: Adobe Illustrator 14.0.0, SVG Export Plug-In . SVG Version: 6.00 Build 43363)  -->
<!DOCTYPE svg PUBLIC "-//W3C//DTD SVG 1.1//EN" "http://www.w3.org/Graphics/SVG/1.1/DTD/svg11.dtd">
<svg version="1.1" id="图层_1" xmlns="http://www.w3.org/2000/svg" xmlns:xlink="http://www.w3.org/1999/xlink" x="0px" y="0px"
	 width="64.453px" height="45.361px" viewBox="0 0 64.453 45.361" enable-background="new 0 0 64.453 45.361" xml:space="preserve">
<g>
	<path d="M40.186,0l3.369,36.621c5.664-6.641,10.188-12.874,13.574-18.701c1.985-3.418,2.979-5.892,2.979-7.422
		c0-0.716-0.163-1.351-0.488-1.904C59.488,8.301,58.976,7.87,58.081,7.3c-0.896-0.569-1.522-1.155-1.88-1.758
		c-0.358-0.602-0.537-1.245-0.537-1.929c0-1.009,0.374-1.863,1.123-2.563C57.535,0.351,58.496,0,59.668,0
		c1.334,0,2.466,0.497,3.394,1.489c0.928,0.993,1.392,2.319,1.392,3.979c0,1.692-0.244,3.271-0.732,4.736
		c-0.977,2.8-2.881,6.413-5.713,10.84c-3.451,5.306-7.007,10.229-10.669,14.771s-6.389,7.724-8.179,9.546h-1.807L34.18,11.572
		L14.014,45.361h-2.148c-0.228-13.899-0.928-24.87-2.1-32.91c-0.488-3.353-1.302-5.55-2.441-6.592
		C6.51,5.11,5.273,4.736,3.613,4.736C2.669,4.736,1.465,4.834,0,5.029V3.271L14.014,0c1.953,5.437,3.223,13.786,3.809,25.049
		c0.195,4.265,0.358,6.95,0.488,8.057L38.379,0H40.186z"/>
</g>
</svg>
