<?xml version="1.0" encoding="utf-8"?>
<!-- Generator: Adobe Illustrator 14.0.0, SVG Export Plug-In . SVG Version: 6.00 Build 43363)  -->
<!DOCTYPE svg PUBLIC "-//W3C//DTD SVG 1.1//EN" "http://www.w3.org/Graphics/SVG/1.1/DTD/svg11.dtd">
<svg version="1.1" id="图层_1" xmlns="http://www.w3.org/2000/svg" xmlns:xlink="http://www.w3.org/1999/xlink" x="0px" y="0px"
	 width="47.266px" height="45.361px" viewBox="0 0 47.266 45.361" enable-background="new 0 0 47.266 45.361" xml:space="preserve">
<g>
	<path d="M20.85,0c1.595,1.692,2.799,3.386,3.613,5.078c0.586,1.172,1.546,4.248,2.881,9.229l4.297-6.445
		c1.139-1.563,2.522-3.052,4.15-4.468c1.627-1.416,3.06-2.385,4.297-2.905C40.869,0.163,41.731,0,42.676,0
		c1.399,0,2.515,0.374,3.345,1.123s1.245,1.66,1.245,2.734c0,1.237-0.244,2.083-0.732,2.539c-0.912,0.813-1.953,1.221-3.125,1.221
		c-0.684,0-1.416-0.146-2.197-0.439c-1.53-0.521-2.556-0.781-3.076-0.781c-0.781,0-1.709,0.456-2.783,1.367
		c-2.019,1.692-4.428,4.964-7.227,9.814l4.004,16.797c0.618,2.572,1.139,4.11,1.563,4.614c0.423,0.505,0.846,0.757,1.27,0.757
		c0.684,0,1.48-0.374,2.393-1.123c1.79-1.497,3.32-3.45,4.59-5.859l1.709,0.879c-2.051,3.842-4.655,7.031-7.813,9.57
		c-1.791,1.432-3.305,2.148-4.541,2.148c-1.823,0-3.271-1.025-4.346-3.076c-0.684-1.27-2.1-6.738-4.248-16.406
		c-5.078,8.822-9.147,14.502-12.207,17.041c-1.986,1.627-3.906,2.441-5.762,2.441c-1.302,0-2.49-0.473-3.564-1.416
		C0.391,43.229,0,42.27,0,41.064c0-1.074,0.358-1.969,1.074-2.686c0.716-0.716,1.595-1.074,2.637-1.074s2.148,0.521,3.32,1.563
		c0.846,0.749,1.497,1.123,1.953,1.123c0.391,0,0.895-0.26,1.514-0.781c1.53-1.236,3.613-3.906,6.25-8.008s4.362-7.063,5.176-8.887
		c-2.019-7.91-3.109-12.093-3.271-12.549c-0.749-2.116-1.726-3.613-2.93-4.492c-1.205-0.879-2.979-1.318-5.322-1.318
		c-0.749,0-1.611,0.032-2.588,0.098V2.295L20.85,0z"/>
</g>
</svg>
