<?xml version="1.0" encoding="utf-8"?>
<!-- Generator: Adobe Illustrator 14.0.0, SVG Export Plug-In . SVG Version: 6.00 Build 43363)  -->
<!DOCTYPE svg PUBLIC "-//W3C//DTD SVG 1.1//EN" "http://www.w3.org/Graphics/SVG/1.1/DTD/svg11.dtd">
<svg version="1.1" id="图层_1" xmlns="http://www.w3.org/2000/svg" xmlns:xlink="http://www.w3.org/1999/xlink" x="0px" y="0px"
	 width="51.855px" height="65.771px" viewBox="0 0 51.855 65.771" enable-background="new 0 0 51.855 65.771" xml:space="preserve">
<g>
	<path d="M23.974,0c1.106,1.888,1.872,3.654,2.295,5.298c0.423,1.645,0.846,4.875,1.27,9.692l2.148,24.023
		c1.953-2.344,4.785-6.055,8.496-11.133c1.79-2.474,4.004-5.843,6.641-10.107c1.595-2.604,2.571-4.427,2.93-5.469
		c0.195-0.521,0.293-1.058,0.293-1.611c0-0.358-0.114-0.651-0.342-0.879c-0.229-0.228-0.822-0.496-1.782-0.806
		C44.961,8.7,44.165,8.13,43.53,7.3s-0.952-1.782-0.952-2.856c0-1.335,0.391-2.409,1.172-3.223S45.507,0,46.679,0
		c1.432,0,2.652,0.595,3.662,1.782c1.009,1.188,1.514,2.824,1.514,4.907c0,2.571-0.879,5.51-2.637,8.813
		c-1.758,3.305-5.144,8.374-10.156,15.21c-5.013,6.836-11.084,14.29-18.213,22.363c-4.916,5.566-8.562,9.073-10.938,10.522
		c-2.376,1.448-4.411,2.173-6.104,2.173c-1.009,0-1.896-0.383-2.661-1.147C0.382,63.858,0,62.972,0,61.963
		c0-1.27,0.529-2.426,1.587-3.467c1.058-1.042,2.206-1.563,3.442-1.563c0.651,0,1.188,0.146,1.611,0.439
		c0.261,0.162,0.545,0.626,0.854,1.392c0.31,0.765,0.594,1.277,0.854,1.538c0.163,0.162,0.358,0.244,0.586,0.244
		c0.195,0,0.537-0.163,1.025-0.488c1.79-1.107,3.874-2.865,6.25-5.273c3.125-3.19,5.436-5.795,6.934-7.813L20.41,16.016
		c-0.456-5.11-1.14-8.22-2.051-9.326c-0.912-1.106-2.441-1.66-4.59-1.66c-0.684,0-1.904,0.098-3.662,0.293L9.667,3.516L23.974,0z"/>
</g>
</svg>
