<?xml version="1.0" encoding="utf-8"?>
<!-- Generator: Adobe Illustrator 14.0.0, SVG Export Plug-In . SVG Version: 6.00 Build 43363)  -->
<!DOCTYPE svg PUBLIC "-//W3C//DTD SVG 1.1//EN" "http://www.w3.org/Graphics/SVG/1.1/DTD/svg11.dtd">
<svg version="1.1" id="图层_1" xmlns="http://www.w3.org/2000/svg" xmlns:xlink="http://www.w3.org/1999/xlink" x="0px" y="0px"
	 width="50.732px" height="84.863px" viewBox="0 0 50.732 84.863" enable-background="new 0 0 50.732 84.863" xml:space="preserve">
<path d="M25.44,0v1.807c-2.898,0.195-4.346,1.351-4.346,3.467c0,2.8,2.619,4.411,7.861,4.834c6.672-5.143,12.809-7.715,18.408-7.715
	c2.246,0,3.369,0.814,3.369,2.441c0,1.986-2.012,3.613-6.031,4.883s-9.041,1.904-15.063,1.904
	c-4.818,4.297-9.123,8.846-12.916,13.647c-3.793,4.802-6.633,9.31-8.52,13.525c-1.889,4.216-2.832,8.342-2.832,12.378
	c0,3.223,0.512,5.583,1.537,7.08c1.025,1.498,2.418,2.498,4.176,3.003s4.328,0.773,7.715,0.806c3.223,0.033,5.615,0.203,7.178,0.513
	s2.855,1.147,3.881,2.515s1.539,3.239,1.539,5.615c0,3.873-1.344,7.202-4.029,9.985s-6.078,4.175-10.18,4.175
	c-4.199,0-6.299-1.352-6.299-4.053c0-2.019,1.252-3.027,3.76-3.027c0.715,0,1.758,0.162,3.125,0.488
	c1.887,0.455,3.596,0.684,5.127,0.684c3.711,0,5.566-1.4,5.566-4.199c0-2.8-2.23-4.199-6.689-4.199h-3.174
	c-5.242,0-9.051-0.513-11.426-1.538c-2.377-1.025-4.168-2.75-5.371-5.176c-1.205-2.425-1.807-4.988-1.807-7.69
	c0-4.361,0.861-8.805,2.588-13.33c1.725-4.524,4.639-9.595,8.74-15.21s9.293-10.945,15.576-15.991c-3.613,0-6.291-0.537-8.033-1.611
	s-2.611-2.474-2.611-4.199c0-1.627,0.789-2.986,2.367-4.077C20.206,0.643,22.478,0.065,25.44,0z"/>
</svg>
